/* XPM */ 
static char * cruz_xpm[] = {
"24 24 8 1",
" 	c None",
"!	c black",
"#	c #9A0000",
"$	c #C34343",
"%	c #FFA4A4",
"&	c #B7B6AC",
"'	c #FF5757",
"(	c #C32323",
"   ##            ##     ",
"  #$$#          #$$#    ",
" #$%%$#        #$%%$#   ",
" #$%%%$#      #$%%%$#   ",
" &#$%%%$#    #$%%%$#&   ",
"  &#$%%%$#  #$%%%$#&    ",
"   &#$%%%$##$%%%$#&     ",
"    &#$%%%%%%%%$#&      ",
"     &#$%%%%%%$#&       ",
"      &#%%%%%%#&        ",
"       #''''''#         ",
"      #(''''''(#        ",
"     #(''''''''(#       ",
"    #('''(##('''(#      ",
"   #('''(#&&#('''(#     ",
"  #('''(#&  &#('''(#    ",
" #('''(#&    &#('''(#   ",
" #(''(#&      &#(''(#   ",
" &#((#&        &#((#&   ",
"  &##&          &##&    ",
"   &&            &&     ",
"                        ",
"                        ",
"                        "};