/* XPM */
static char * left_xpm[] = {
"22 22 3 1",
" 	c None",
".	c #ff3300",
"X	c #0066cc",
"                      ",
" .. XX XX XX XX XX XX ",
" .. XX XX XX XX XX XX ",
" ..                   ",
" ..                XX ",
" ..                XX ",
" ..                   ",
" ..                XX ",
" ..                XX ",
" ..                   ",
" ..                XX ",
" ..                XX ",
" ..                   ",
" ..                XX ",
" ..                XX ",
" ..                   ",
" ..                XX ",
" ..                XX ",
" ..                   ",
" .. XX XX XX XX XX XX ",
" .. XX XX XX XX XX XX ",
"                      "};
