/* XPM */ 
static char * new_xpm[] = {
"22 22 141 2",
"  	c None",
"! 	c black",
"# 	c #888A85",
"$ 	c #8A8B83",
"% 	c #9D9B7B",
"& 	c #B6B06F",
"' 	c #B9B26E",
"( 	c #B2AC70",
") 	c white",
"* 	c #FEFEFA",
"+ 	c #FEF9D0",
", 	c #FCEF8E",
"- 	c #F7EE8E",
". 	c #F6EE98",
"0 	c #E4D86F",
"1 	c #FBE952",
"2 	c #DEDEDE",
"3 	c #E1E1E1",
"4 	c #E0E0E0",
"5 	c #E2E2E2",
"6 	c #E3E3E3",
"7 	c #E4E4E4",
"8 	c #E4E4E3",
"9 	c #E9E5C9",
": 	c #F3E785",
"; 	c #F6EC8E",
"< 	c #F5F2E1",
"= 	c #F6F5F3",
"> 	c #F2ECB4",
"? 	c #FAEA5F",
"@ 	c #DFDFDF",
"A 	c #E2E1E1",
"B 	c #E3E2E3",
"C 	c #E3E3E4",
"D 	c #E4E4E0",
"E 	c #EBE6BD",
"F 	c #F4E87E",
"G 	c #F5EDA2",
"H 	c #F5F4F3",
"I 	c #F6F5F5",
"J 	c #F2ECBB",
"K 	c #FAEA5C",
"L 	c #E1E2E1",
"M 	c #E5E5E4",
"N 	c #E5E5E3",
"O 	c #E9E7CA",
"P 	c #F2E893",
"Q 	c #F6E980",
"R 	c #F5EFB7",
"S 	c #F6F3DE",
"T 	c #ECE485",
"U 	c #FBE951",
"V 	c #E3E3E2",
"W 	c #E5E5E5",
"X 	c #E5E6E6",
"Y 	c #E7E6E6",
"Z 	c #E7E7E2",
"[ 	c #EAE8CC",
"] 	c #F0E8A4",
"^ 	c #F5E982",
"_ 	c #FAEE8D",
"` 	c #CAC169",
"a 	c #E6E6E6",
"b 	c #E4E3E4",
"c 	c #E6E6E7",
"d 	c #E7E8E8",
"e 	c #E8E8E8",
"f 	c #E9E9E7",
"g 	c #EBE9DF",
"h 	c #EDE9CE",
"i 	c #FEF9D3",
"j 	c #94947F",
"k 	c #ADAFAC",
"l 	c #E4E4E5",
"m 	c #E7E7E7",
"n 	c #E7E7E8",
"o 	c #E8E8E9",
"p 	c #E9E9EA",
"q 	c #EAEAEA",
"r 	c #EAEBEA",
"s 	c #ECECEC",
"t 	c #888A84",
"u 	c #E5E6E5",
"v 	c #E6E6E5",
"w 	c #E7E7E6",
"x 	c #E8E9E9",
"y 	c #E9E9E9",
"z 	c #EBEBEB",
"{ 	c #EDECED",
"| 	c #E7E6E7",
"} 	c #E8E7E8",
"~ 	c #EAEBEB",
" !	c #ECECEB",
"!!	c #ECECED",
"#!	c #EDEDED",
"$!	c #E8E8E7",
"%!	c #E9E9E8",
"&!	c #ECEDED",
"'!	c #EDEEEE",
"(!	c #EFEEEE",
")!	c #E9E8E8",
"*!	c #E9E8E9",
"+!	c #EAE9EA",
",!	c #EBEAEA",
"-!	c #EDEDEE",
".!	c #EEEEEE",
"0!	c #F0F0EF",
"1!	c #AEAFAD",
"2!	c #EBEAEB",
"3!	c #EBECEB",
"4!	c #EEEEED",
"5!	c #EFEFEF",
"6!	c #F0F0F0",
"7!	c #F0F1F0",
"8!	c #EDEEED",
"9!	c #EFEEEF",
":!	c #F1F1F1",
";!	c #F1F1F2",
"<!	c #ECEBEB",
"=!	c #EEEEEF",
">!	c #F2F2F2",
"?!	c #F2F3F3",
"@!	c #EFF0F0",
"A!	c #F0F1F1",
"B!	c #F2F2F1",
"C!	c #F3F2F3",
"D!	c #F3F4F4",
"E!	c #F2F1F2",
"F!	c #F2F3F2",
"G!	c #F3F4F3",
"H!	c #F4F3F4",
"I!	c #F5F4F5",
"J!	c #EEEFEE",
"K!	c #F1F0F1",
"L!	c #F3F3F2",
"M!	c #F4F4F3",
"N!	c #F4F4F4",
"O!	c #F5F5F4",
"P!	c #F5F6F6",
"Q!	c #868883",
"R!	c #6D6E6B",
"                                            ",
"    # # # # # # # # # # # # # $ % & ' (     ",
"    # ) ) ) ) ) ) ) ) ) ) ) * + , - . 0 1   ",
"    # ) 2 3 4 3 5 5 6 7 7 8 9 : ; < = > ?   ",
"    # ) @ 5 3 3 3 A 5 B C D E F G H I J K   ",
"    # ) 4 6 5 3 L 5 6 7 M N O P Q R S T U   ",
"    # ) 3 7 7 5 V C 7 W X Y Z [ ] ^ _ `     ",
"    # ) 5 a W 6 b 7 W a c d e f g h i j     ",
"    # ) k a a 7 l a a m n o p q r s ) t     ",
"    # ) 7 ) m u v w n e x y q z s { ) #     ",
"    # ) W m e | m } x y q ~ z  !!!#!) #     ",
"    # ) a e y m $!%!y q z z s &!'!(!) #     ",
"    # ) a y y )!*!+!,! !s #!-!.!(!0!) #     ",
"    # ) 1!y q y +!2!3!s #!4!.!5!6!7!) #     ",
"    # ) m ) z ,!z s { 8!.!9!0!6!:!;!) #     ",
"    # ) e q z <!s &!.!.!=!6!:!:!>!?!) #     ",
"    # ) e q z !!#!4!=!@!6!A!B!>!C!D!) #     ",
"    # ) e z z '!=!5!5!7!:!E!F!G!H!I!) #     ",
"    # ) e z z J!5!6!K!;!>!L!M!N!O!P!) #     ",
"    # ) ) ) ) ) ) ) ) ) ) ) ) ) ) ) ) #     ",
"    Q!# # # # # # # # # # # # # # # # R!    ",
"                                            "};