/* XPM */
static char * open_xpm[] = {
"16 16 6 1",
" 	c None",
".	c #000000",
"+	c #FFFF00",
"@	c #FFFFFF",
"#	c #808080",
"$	c #808000",
"                ",
"                ",
"          ...   ",
"         .   . .",
"   ...        ..",
"  .+@+...... ...",
"  .@+@+@+@+.    ",
" #.+@+@+@+@.    ",
" #.@+@+.........",
" #.+@+.$$$$$$$$.",
" #.@+.$$$$$$$$. ",
" #.+.$$..$$$$.  ",
" #..$$$$$$$$.   ",
" #..........    ",
" #########      ",
"                "};
