/* XPM */ 
static char * open_xpm[] = {
"22 22 186 2",
"  	c None",
"! 	c black",
"# 	c #A2A59F",
"$ 	c #9FA19C",
"% 	c #9EA19B",
"& 	c #9DA09B",
"' 	c #ABAEA7",
"( 	c white",
") 	c #F2F2F2",
"* 	c #5B5D5A",
"+ 	c #5C5E5C",
", 	c #5C5E5D",
"- 	c #666866",
". 	c #A7A9A4",
"0 	c #FCFCFB",
"1 	c #FCFCFC",
"2 	c #FAFAFA",
"3 	c #EEEEED",
"4 	c #A8ABA5",
"5 	c #4F4F4D",
"6 	c #BEBFBE",
"7 	c #A7A9A5",
"8 	c #C1C3C0",
"9 	c #CBCBCA",
": 	c #B1B2B1",
"; 	c #B3B3B2",
"< 	c #B3B4B2",
"= 	c #B3B3B3",
"> 	c #C2C3C1",
"? 	c #A6A9A3",
"@ 	c #4D4F4C",
"A 	c #B2B3B2",
"B 	c #80807F",
"C 	c #8A8B89",
"D 	c #FBFBFB",
"E 	c #EFEFED",
"F 	c #EFEFEE",
"G 	c #F3F3F1",
"H 	c #F5F5F4",
"I 	c #F5F5F3",
"J 	c #F3F3F2",
"K 	c #F2F2F1",
"L 	c #F2F2F0",
"M 	c #F0F0EF",
"N 	c #F0F0EE",
"O 	c #F4F4F2",
"P 	c #DADBDA",
"Q 	c #4B4C4A",
"R 	c #B9BBC1",
"S 	c #939393",
"T 	c #E0E0DF",
"U 	c #F0F0F0",
"V 	c #D0D0CE",
"W 	c #9C9D9B",
"X 	c #A4A6A4",
"Y 	c #A5A6A4",
"Z 	c #A0A2A0",
"[ 	c #A7A8A6",
"] 	c #C6C6C4",
"^ 	c #F1F1F0",
"_ 	c #C4C6C2",
"` 	c #AEB1AB",
"a 	c #4D4F4B",
"b 	c #9B9B9B",
"c 	c #858683",
"d 	c #A1A49E",
"e 	c #E9E9E8",
"f 	c #CFCFCC",
"g 	c #CACBC8",
"h 	c #C9CBC7",
"i 	c #CACAC8",
"j 	c #CBCCC9",
"k 	c #CBCCC8",
"l 	c #CCCDC9",
"m 	c #E0E1E0",
"n 	c #C9CAC9",
"o 	c #9C9F9A",
"p 	c #AFB2AC",
"q 	c #555753",
"r 	c #9A9B99",
"s 	c #A4A4A4",
"t 	c #90928F",
"u 	c #E3E3E3",
"v 	c #D5D5D3",
"w 	c #ADAEAC",
"x 	c #A0A29F",
"y 	c #A0A19F",
"z 	c #9FA19E",
"{ 	c #9F9F9C",
"| 	c #9E9F9C",
"} 	c #9FA19D",
"~ 	c #A3A5A0",
" !	c #ACADA9",
"!!	c #E0E0DE",
"#!	c #848582",
"$!	c #A8ABA4",
"%!	c #B8BCBD",
"&!	c #5E758F",
"'!	c #3465A4",
"(!	c #3C68A1",
")!	c #5A718D",
"*!	c #727371",
"+!	c #A5A8A2",
",!	c #D9D9D8",
"-!	c #868A8D",
".!	c #BBCEE3",
"0!	c #BCCFE4",
"1!	c #BCD0E5",
"2!	c #BCD0E6",
"3!	c #BDD1E7",
"4!	c #BED2E8",
"5!	c #4D6D94",
"6!	c #6B6C6B",
"7!	c #E6E6E5",
"8!	c #4E6D95",
"9!	c #B3C8E1",
":!	c #89AED6",
";!	c #A3BFDE",
"<!	c #416693",
"=!	c #575855",
">!	c #9FA19B",
"?!	c #CCCECB",
"@!	c #547093",
"A!	c #B2C8E0",
"B!	c #95ADCB",
"C!	c #396296",
"D!	c #5F605E",
"E!	c #ACAEAA",
"F!	c #C0C1BD",
"G!	c #879AAE",
"H!	c #B1C7E0",
"I!	c #98B8DB",
"J!	c #8AA4C4",
"K!	c #6C8AAF",
"L!	c #51514F",
"M!	c #AAADA6",
"N!	c #687582",
"O!	c #A0B0C1",
"P!	c #A1BEDD",
"Q!	c #88ADD6",
"R!	c #87ADD5",
"S!	c #87ACD6",
"T!	c #87ACD5",
"U!	c #A2BFDE",
"V!	c #6D8BB0",
"W!	c #5C5D5A",
"X!	c #878885",
"Y!	c #8191A5",
"Z!	c #ACC5DF",
"[!	c #92B5D9",
"]!	c #80A9D4",
"^!	c #80A8D4",
"_!	c #80A8D3",
"`!	c #7FA8D4",
"a!	c #81A8D4",
"b!	c #92B4D9",
"c!	c #9EBCDD",
"d!	c #3F618C",
"e!	c #5C5C5A",
"f!	c #7B7C79",
"g!	c #93AAC2",
"h!	c #9AB9DB",
"i!	c #79A3D2",
"j!	c #79A4D1",
"k!	c #78A3D2",
"l!	c #79A4D2",
"m!	c #8CB1D8",
"n!	c #696A67",
"o!	c #B2C4D8",
"p!	c #87AED7",
"q!	c #719FD0",
"r!	c #719FCF",
"s!	c #709FCF",
"t!	c #729FD0",
"u!	c #87AED6",
"v!	c #446081",
"w!	c #585958",
"x!	c #6B9BCE",
"y!	c #6B9ACD",
"z!	c #6A9ACE",
"{!	c #6A9ACD",
"|!	c #83AAD5",
"}!	c #839DBD",
"~!	c #44566A",
" #	c #292928",
"!#	c #30527E",
"              # $ % % % % % % % % $ % &     ",
"            ' ( ( ( ( ( ( ( ( ( ( ( ) #     ",
"  * + + , - . ( 0 1 1 1 1 1 1 1 2 2 3 4     ",
"5 6 6 6 6 7 8 ( 9 : ; < ; ; = ; : > 3 ?     ",
"@ A B B C ? D E F G H I J K L M N O P #     ",
"Q R S S ? T U V W X X Y X Z Z [ ] ^ _ `     ",
"a = b c d e f g h i i j i k l i m n o p     ",
"q r s t u v w x y z { | { } ~  !!!o `       ",
"q #!y $!%!&!'!'!'!'!'!'!'!'!(!(!'!'!'!'!'!)!",
"  *!+!,!-!.!0!0!1!2!3!4!3!3!4!4!4!4!4!4!4!5!",
"  6!# 7!8!9!:!:!:!:!:!:!:!:!:!:!:!:!:!:!;!<!",
"  =!>!?!@!A!:!:!:!:!:!:!:!:!:!:!:!:!:!:!B!C!",
"  D!E!F!G!H!:!:!:!:!:!:!:!:!:!:!:!:!:!I!J!K!",
"  L!M!N!O!P!Q!R!S!T!T!S!T!Q!R!S!S!S!T!U!V!K!",
"  W!X!Y!Z![!]!]!^!_!`!^!_!a!]!^!^!^!b!c!d!  ",
"  e!f!g!h!i!i!i!j!i!k!j!i!l!i!j!j!i!m!K!K!  ",
"    n!o!p!q!q!q!r!r!s!r!r!t!q!r!r!u!u!v!    ",
"    w!x!x!x!x!x!y!z!{!y!z!x!x!y!z!|!}!~!    ",
"     #'!'!'!'!'!'!'!'!'!'!'!'!'!'!'!!#      ",
"                                            ",
"                                            ",
"                                            "};