/* XPM */
static char * ot_form_xpm[] = {
"16 16 7 1",
" 	c None",
".	c #000000",
"+	c #0000A2",
"@	c #00007B",
"#	c #FFFFFF",
"$	c #D9D9D9",
"%	c #9D9D9D",
"                ",
" .............. ",
" .++++++++++++. ",
" .@@@@@@@@@@@@. ",
" .############. ",
" .#$$$$$$$$$$%. ",
" .#$$$$$$$$$$%. ",
" .#$$$$$$$$$$%. ",
" .#$$$$$$$$$$%. ",
" .#$$$$$$$$$$%. ",
" .#$$$$$$$$$$%. ",
" .#$$$$$$$$$$%. ",
" .#$$$$$$$$$$%. ",
" .%%%%%%%%%%%%. ",
" .............. ",
"                "};
