/* XPM */
static char *ot_menu_xpm[] = {
/* columns rows colors chars-per-pixel */
"16 16 6 1",
"  c black",
". c #0066CC",
"X c magenta",
"o c #808080",
"O c gray100",
"+ c None",
/* pixels */
"++oooooooooo++++",
"++oOOOOOOOOo +++",
"++oO......Oo +++",
"++oOOOOOOOOo +++",
"++oO....OOOo +++",
"++oOOOOOOOOo +++",
"++oO......Oo +++",
"++oOOOOOOOOo +++",
"++oooooooooo +++",
"++oOOOOOOOOo +++",
"++oO....OOOo +++",
"++oOOOOOOOOo +++",
"++oO......Oo +++",
"++oOOOOOOOOo +++",
"++oooooooooo +++",
"+++          +++"
};
