/* XPM */
static char * ot_notebook_xpm[] = {
"16 16 18 1",
" 	c None",
".	c #FFFFFF",
"+	c #6C6C6C",
"@	c #D9D9D9",
"#	c #989898",
"$	c #020202",
"%	c #D8D8D8",
"&	c #7C7C7C",
"*	c #000000",
"=	c #050505",
"-	c #101010",
";	c #060606",
">	c #7E7E7E",
",	c #0F0F0F",
"'	c #0C0C0C",
")	c #0B0B0B",
"!	c #010101",
"~	c #030303",
"                ",
" ....+...+...+  ",
" .@@@+###+###+  ",
" .@@@+###+###+  ",
" .@@@+###+###+  ",
" .@@@+.........$",
" .%@@@@@@@@@@@&*",
" .@@@@@@@@@@@@&=",
" .@@@@@@@@@@@@&-",
" .@@@@@@@@@@@@&;",
" .@@@@@@@@@@@@&*",
" .@@@@@@@@@@@@&*",
" .&&&&&&&&&&>&&,",
" *')*******=!*)~",
"                ",
"                "};
