/* XPM */
static char * ot_project_xpm[] = {
"16 16 15 1",
" 	c None",
".	c #000000",
"+	c #D5D5D5",
"@	c #ADADAD",
"#	c #FFFFFF",
"$	c #D2D2D2",
"%	c #0083FF",
"&	c #006ACD",
"*	c #0056A6",
"=	c #F5FF5A",
"-	c #FF0000",
";	c #D0D84C",
">	c #ABB23F",
",	c #D60000",
"'	c #A50000",
"                ",
".........       ",
".+++++++@.      ",
".+######@@.     ",
".+#$$$$#@@@.    ",
".+########+.    ",
".+#$$.......    ",
".+###.%%%%%.    ",
".+#$$.%&&&*.....",
".+....%&&&=====.",
".+.---%&&&=;;;>.",
".+.-,,****=;;;>.",
".+.-,,,'..=;;;>.",
".+.-,,,'..>>>>>.",
"...'''''........",
"  .......       "};
