/* XPM */ 
static char * paste_xpm[] = {
"22 22 115 2",
"  	c None",
"! 	c black",
"# 	c #5C5C5C",
"$ 	c #5E5E5D",
"% 	c #8F8F83",
"& 	c #909084",
"' 	c #6E4503",
"( 	c #6D4501",
") 	c #6B4301",
"* 	c #63543A",
"+ 	c #7A7A73",
", 	c #97978A",
"- 	c #7B7B75",
". 	c #63553B",
"0 	c #6A4301",
"1 	c #6C4401",
"2 	c #6B4203",
"3 	c #6F4501",
"4 	c #C08324",
"5 	c #A97E3A",
"6 	c #747064",
"7 	c #626261",
"8 	c #8D8D88",
"9 	c #BABAB0",
": 	c #BABAB1",
"; 	c #BBBBB1",
"< 	c #BBBBB2",
"= 	c #BCBCB2",
"> 	c #90908A",
"? 	c #636362",
"@ 	c #B87E23",
"A 	c #6E4400",
"B 	c #6D4401",
"C 	c #C58826",
"D 	c #757164",
"E 	c #ECEDEC",
"F 	c #DDDDDD",
"G 	c #6B6B6A",
"H 	c #5E5E5E",
"I 	c #DBDBDB",
"J 	c #726F63",
"K 	c #C48726",
"L 	c #6C4301",
"M 	c #C68727",
"N 	c #696A64",
"O 	c white",
"P 	c #F0F0EF",
"Q 	c #EFEFEE",
"R 	c #EBEBEA",
"S 	c #686964",
"T 	c #C58726",
"U 	c #C58626",
"V 	c #686A64",
"W 	c #A7A7A6",
"X 	c #A6A6A6",
"Y 	c #EDEDEC",
"Z 	c #EEEEED",
"[ 	c #EDEDEB",
"] 	c #A6A6A5",
"^ 	c #A5A5A4",
"_ 	c #A4A4A3",
"` 	c #A4A4A2",
"a 	c #E9E9E7",
"b 	c #EEEEEC",
"c 	c #ECECEB",
"d 	c #EBEBE9",
"e 	c #EAEAE8",
"f 	c #DBDBD8",
"g 	c #C58727",
"h 	c #A3A3A1",
"i 	c #E8E8E6",
"j 	c #E7E7E4",
"k 	c #CDCECA",
"l 	c #C48626",
"m 	c #ECECEA",
"n 	c #E7E7E5",
"o 	c #E6E6E3",
"p 	c #E5E5E2",
"q 	c #B8B8B5",
"r 	c #E8E8E5",
"s 	c #E6E6E4",
"t 	c #CDCDC9",
"u 	c #C1C1BE",
"v 	c #B7B7B4",
"w 	c #B6B6B2",
"x 	c #EAEAE9",
"y 	c #E4E4E2",
"z 	c #AFAFAC",
"{ 	c #E4E4E1",
"| 	c #E2E2DF",
"} 	c #ADAEAA",
"~ 	c #E2E2E1",
" !	c #D6D6D4",
"!!	c #E5E5E3",
"#!	c #D6D7D3",
"$!	c #CBCBC7",
"%!	c #B5B5B1",
"&!	c #ACACA8",
"'!	c #CBCBC9",
"(!	c #666864",
")!	c #B18031",
"*!	c #736F62",
"+!	c #EAEBEA",
",!	c #906D35",
"-!	c #706E62",
".!	c #BA832C",
"0!	c #6E4401",
"1!	c #B97E22",
"2!	c #B47B22",
"3!	c #6C4300",
"4!	c #6B4200",
"5!	c #6C4402",
"6!	c #6B4302",
"7!	c #694C19",
"8!	c #646459",
"                # # # # # #                 ",
"              $ # % & & % # $               ",
"    ' ( ) ) * + , , , , , , - . ) 0 1 2     ",
"    3 4 5 6 7 8 9 9 : ; < = > ? 6 5 @ A     ",
"    B C D E F G H H H H H H G I E J K L     ",
"    B M N O P Q R R R R R R Q P O S T L     ",
"    B M N O P P P P P P P P P Q O S U L     ",
"    B M V O P W W W W W W W X Y O S U L     ",
"    B M V O P P P P P P Q Z [ R O S U L     ",
"    B M S O P W W W W ] ^ _ ` a O S U L     ",
"    B M S O P P P Q b c d e a f O S U L     ",
"    B g S O P X ] ^ _ h a i j k O S l L     ",
"    B T S O Z Y m d e i n o p q O S l L     ",
"    B T S O c d e a r s t u v w O S l L     ",
"    B T S O x a i j o y z O O O P S l L     ",
"    B T S O i n o p { | } O P ~  !S l L     ",
"    B T S O s !!{ #!$!%!&!O ~ '!(!)!l L     ",
"    1 T *!+!O O O O O O O P '!(!)!l l L     ",
"    1 T ,!-!(!(!(!(!(!(!(!(!(!.!l l l L     ",
"    0!1!K U U U U l l l l l l l l K 2!3!    ",
"    4!5!L L L L L L L L L L L L L L 6!7!    ",
"                8!8!8!8!8!8!8!              "};