/* XPM */
static char * play_xpm[] = {
"16 16 6 1",
" 	c None",
".	c #000000",
"+	c #609B60",
"@	c #81D181",
"#	c #4F804F",
"$	c #314F31",
"                ",
"    ..          ",
"    .+.         ",
"    .+@.        ",
"    .++@.       ",
"    .+##@.      ",
"    .+###@.     ",
"    .+####$.    ",
"    .+###$$.    ",
"    .+##$$.     ",
"    .+#$$.      ",
"    .+$$.       ",
"    .$$.        ",
"    .$.         ",
"    ..          ",
"                "};
