/* XPM */
static char * save_as_xpm[] = {
"16 16 6 1",
" 	c None",
".	c #000000",
"+	c #808000",
"@	c #C0C0C0",
"#	c #FFFFFF",
"$	c #808080",
"                ",
"                ",
"...........     ",
".+.@#@#@.@.     ",
".+.#@...........",
".+.@#.+.@#@#@.@.",
".+.#$.+.#@#@#...",
".+....+.@#@#@.+.",
".+++$.+.#@#@#.+.",
".+....+.......+.",
".+.$$.+++++++++.",
".+.$$.+.......+.",
" .....+.$$$.@.+.",
"    $.+.$$$.@.+.",
"    $$..........",
"                "};
