/* XPM */ 
static char * tijeras_xpm[] = {
"22 22 121 2",
"  	c None",
"! 	c black",
"# 	c #9B9D99",
"$ 	c #898B86",
"% 	c #969894",
"& 	c #CCCDCB",
"' 	c #9FA19D",
"( 	c #D7D7D6",
") 	c #939591",
"* 	c #9A9B98",
"+ 	c #EBEBEB",
", 	c #CFCFCD",
"- 	c #B1B1AF",
". 	c #F3F3F3",
"0 	c #D0D0CF",
"1 	c #888A85",
"2 	c #A0A19D",
"3 	c #E9E9E9",
"4 	c #EDEDED",
"5 	c #A4A6A2",
"6 	c #8E908B",
"7 	c #E7E8E7",
"8 	c #E7E7E7",
"9 	c #EAEAE9",
": 	c #989A95",
"; 	c #D5D7D4",
"< 	c #E2E2E2",
"= 	c #DFDFDE",
"> 	c #9C9E9A",
"? 	c #B4B5B2",
"@ 	c #EAEAEA",
"A 	c #E8E8E8",
"B 	c #AFB1AE",
"C 	c #AFB1AD",
"D 	c #E5E5E5",
"E 	c #AEAFAC",
"F 	c #DEDEDE",
"G 	c #EEEEEE",
"H 	c #8D8F8A",
"I 	c #B0B1AE",
"J 	c #CDCECB",
"K 	c #DFDFDF",
"L 	c #BCBDBA",
"M 	c #ABACA9",
"N 	c #AFB0AD",
"O 	c #ABADA9",
"P 	c #E2E2E1",
"Q 	c #DCDCDC",
"R 	c #E3E4E3",
"S 	c #8A8C87",
"T 	c #969893",
"U 	c #BFBFBC",
"V 	c #A3A4A0",
"W 	c #CFD0CE",
"X 	c #CBCBCA",
"Y 	c #A8AAA6",
"Z 	c #AFAFAD",
"[ 	c #E8E8E7",
"] 	c #DBDBDB",
"^ 	c #B8BAB7",
"_ 	c #CCCCCB",
"` 	c #C3C5C2",
"a 	c #979994",
"b 	c #B2B3B0",
"c 	c #E0E0E0",
"d 	c #E7E7E6",
"e 	c #DDDEDC",
"f 	c #A8A9A6",
"g 	c #9B928E",
"h 	c #E0DEDD",
"i 	c #D1D2D0",
"j 	c #ECEDEC",
"k 	c #A5A6A3",
"l 	c #CC0000",
"m 	c #D10A09",
"n 	c #CC7270",
"o 	c #E15554",
"p 	c #E18988",
"q 	c #DD4746",
"r 	c #EB7675",
"s 	c #EB5A59",
"t 	c #EA5B5A",
"u 	c #D85251",
"v 	c #BF9694",
"w 	c #EF7B7A",
"x 	c #E36B6B",
"y 	c #EB7877",
"z 	c #E66D6D",
"{ 	c #D93939",
"| 	c #D00808",
"} 	c #E97373",
"~ 	c #E56E6D",
" !	c #EB7B78",
"!!	c #CA0000",
"#!	c #EB7979",
"$!	c #DE5B5B",
"%!	c #EC7B7B",
"&!	c #C90000",
"'!	c #C90101",
"(!	c #E77A7A",
")!	c #D63333",
"*!	c #E34747",
"+!	c #BC0000",
",!	c #E46161",
"-!	c #C50000",
".!	c #C80000",
"0!	c #D73C3C",
"1!	c #EF7C7C",
"2!	c #E55555",
"3!	c #CA0101",
"4!	c #940000",
"5!	c #990000",
"6!	c #CE0C0C",
"7!	c #B40000",
"8!	c #B00000",
"9!	c #B60000",
":!	c #C70000",
";!	c #9A0000",
"<!	c #9E0000",
"=!	c #B80000",
">!	c #AC0000",
"          #                   $             ",
"        % & '               $ ( )           ",
"        * + ,               - . 0 1         ",
"        2 3 4 5           6 7 8 9 1         ",
"        : ; < = >         ? @ A B           ",
"          C D + E       C @ F G H           ",
"          I J K 4 2     L D 3 M             ",
"            N D F J H O P Q R S             ",
"            T U K + V W X + Y               ",
"              Z [ ] 7 ^ _ ` 1               ",
"              a b c d b e f                 ",
"                g h i j k 1                 ",
"          l l m n o p o n m l l             ",
"        l q r s t u v u t w r x l           ",
"      l y z { l w l   l w l | z y l         ",
"    l } ~ l   l  !l   l  !l   l ~ } !!      ",
"    l #!l     $!%!&!  '!%!l     l #!l       ",
"    l (!)!l l %!*!+!  +!,!%!)!l $!(!-!      ",
"    .!0!1!%!%!2!3!4!  5!3!2!%!%!1!6!7!      ",
"      8!9!:!l 7!;!      <!:!l l =!>!        ",
"                                            ",
"                                            "};