/* XPM */ 
static const unsigned char * choicebook_xpm[] = {
"21 21 8 1",
" 	c None",
"!	c #848284",
"#	c black",
"$	c white",
"%	c #C6C3C6",
"&	c #787878",
"'	c #D2D2D2",
"(	c #EBEBEB",
"!!!!!!!!!!!!!!!!!!!!!",
"!###################!",
"!#$$$$$$%%%%%%%%%%!#!",
"!#$$$$$$%%######!%!#!",
"!#$$$$$$%%%####!%%!#!",
"!#$$$$$$%%%%##!%%%!#!",
"!#$$$$$$%%%%%!%%%%!#!",
"!#$$$$$$!!!!!!!!!!!#!",
"!#$$$$$$############!",
"!%%%%%%%%%%%%%%%%%%%!",
"&'''''''''''''''''''&",
"&'!!!!!!!!!!!!!!!!!'&",
"&'!$$$$$$$$$$$$$$$!'&",
"&'!$$$$$$$$$$$$$$$!'&",
"&'!!!!!!!!!!!!!!!!!'&",
"&'''''''''((((((((!'&",
"&'''''''''('#''#'#!'&",
"&'''''''''(#'#'##'!'&",
"&'''''''''('#''#'#!'&",
"&'''''''''!!!!!!!!!'&",
"&&&&&&&&&&&&&&&&&&&&&"};