/* XPM */ 
static const unsigned char * listbook_xpm[] = {
"21 21 14 1",
" 	c None",
"!	c black",
"#	c #333366",
"$	c white",
"%	c #DDE2EC",
"&	c #808080",
"'	c #0066CC",
"(	c #F9FFFF",
")	c #F5FFFF",
"*	c #EBEBEB",
"+	c #ECFFFF",
",	c #EDFFFF",
"-	c #E3FFFF",
".	c #848284",
"                     ",
" ####################",
" #$$$$$$$#%%%%%%%%%%#",
" #$$$$$$$#%&&&&&&&&&#",
" #$$$$$$$#%&$$$$$$$$#",
" #$#####$#%&$$$$$$$$#",
" #$$$$$$$#%&&&&&&&&&#",
" #$$$$$$$#%%%%%%%%%%#",
" #$$$$$$$#%&&&&&&&&&#",
" #'''''''#%&$$$$$$$$#",
" #'$$$$$'#%&$$$$$$$$#",
" #'''''''#%&&&&&&&&&#",
" #(((((((#%%%%%%%%%%#",
" #(((((((#%%%%%%%%%%#",
" #)))))))#%%*******%#",
" #)#####)#%*+!++!+!*#",
" #+++++,,#%*!+!+!!+*#",
" #+++++,,#%*+!++!+!*#",
" #++++-++#%*********#",
" #-------#%%.......%#",
" ####################"};