/* XPM */
static char * custom_xpm[] = {
"21 21 15 1",
" 	c None",
".	c #7B7B7B",
"+	c #000000",
"@	c #FFFFFF",
"#	c #DEDEDE",
"$	c #D6D6D6",
"%	c #E38E8E",
"&	c #DFA7A7",
"*	c #FF0000",
"=	c #F52F2F",
"-	c #DABEBE",
";	c #F14747",
">	c #FA1818",
",	c #EC5F5F",
"'	c #E87777",
"                     ",
" ................... ",
" .++++++++++++++++@# ",
" .+$$$$$$$$$$$$$$$@# ",
" .+$$$$$$$$$$$$$$$@# ",
" .+$$$$$$%%&$$$$$$@# ",
" .+$$$$%****=-$$$$@# ",
" .+$$$-**&$%*=$$$$@# ",
" .+$$$-%&$$$**$$$$@# ",
" .+$$$$$$$$;*=$$$$@# ",
" .+$$$$$$$;*>-$$$$@# ",
" .+$$$$$$,*=$$$$$$@# ",
" .+$$$$$$;*%$$$$$$@# ",
" .+$$$$$$&%-$$$$$$@# ",
" .+$$$$$$;*%$$$$$$@# ",
" .+$$$$$$';&$$$$$$@# ",
" .+$$$$$$$$$$$$$$$@# ",
" .+$$$$$$$$$$$$$$$@# ",
" .@@@@@@@@@@@@@@@@@# ",
" .################## ",
"                     "};
