/* XPM */
static char *icon16[] = {
/* columns rows colors chars-per-pixel */
"16 16 80 1",
"  c #0FA60FA65779",
". c #000000007D41",
"X c #29D529D569D5",
"o c #0FA645720000",
"O c #00005D210000",
"+ c #00006D620000",
"@ c #13F6696413F6",
"# c #1BE37CC30000",
"$ c #1B267D901C18",
"% c #29D559C51BE3",
"& c #509B00000000",
"* c #57790FA60FA6",
"= c #7D4100000000",
"- c #7D427D420000",
"; c #80007DF20000",
": c #47D347D35779",
"> c #47D3538C47D3",
", c #577947D347D3",
"< c #5779577947D3",
"1 c #509B509B509B",
"2 c #5EED50FC50FC",
"3 c #5BE35BE369D5",
"4 c #7D4280008000",
"5 c #800080007D41",
"6 c #000000008FA6",
"7 c #1BE31BE38B7F",
"8 c #1BE31BE39BE3",
"9 c #1B461B469F30",
"0 c #00000000E42C",
"q c blue",
"w c #0000A78C0000",
"e c #0000A7F50000",
"r c #0000C4C10000",
"t c #0000C5390000",
"y c #8000951B8000",
"u c #8FA600000000",
"i c #87ED18511851",
"p c #915400000000",
"a c #9BE31BE31BE3",
"s c #E1D400000000",
"d c red",
"f c #8FA68FA60000",
"g c #8604860413F6",
"h c #8DF18C1D1BE3",
"j c #90B590B50000",
"k c #9BE39BE31BE3",
"l c #9CEF9CEF1BFE",
"z c #9BE39BE38000",
"x c #DF38DF380000",
"c c #E41CE0680000",
"v c yellow",
"b c #87ED88768876",
"n c #83098D7B8309",
"m c #8DF18DF18B7F",
"M c #8FA68FA68FA6",
"N c #820A820A9EC8",
"B c #9DB581648164",
"V c #90FB90FB8309",
"C c #911E911E911E",
"Z c #915591559264",
"A c #940B9341940B",
"S c #9851985198D9",
"D c #98D9987398D9",
"F c #9BE39BE39BE3",
"G c #9CEF9CEF9CEF",
"H c #C203C203C65F",
"J c #C2A3C6E7C6E7",
"K c #C65FC31BC65F",
"L c #DF40DF40DF41",
"P c #E0DEE0DEE0DE",
"I c #DF58DF5CE41C",
"U c #E0DEE0DEE5CB",
"Y c #DF38E41CE41C",
"T c #E41CE41CDF88",
"R c #E1AAE1AAE121",
"E c #E394E1BFE41C",
"W c #E394E394E122",
"Q c #E5D4E211E5CB",
"! c #E6CCE6CCE1C2",
"~ c gray100",
/* pixels */
"&pp*4CMMMMMMMMC1",
"uddaY~~~~~~~~~~M",
"uddaY~~~~~~~~~~M",
"=ssiJPLLLLLLLTT4",
",BB2bGFFFFFGmX9 ",
"M~~FL~~~~~~~T8q6",
"M~~FL~~~~~~~T70.",
"M~~FL~~~~~~~P3N:",
"M~~GL~~~~~~~LF~M",
"M~~DL~~~~~~~LF~M",
"M~~DL~~~~~~~LF~M",
"M~~SHIIIIIEQKF~M",
"M~~Vgkkklh%w@n~M",
"M~~zxvvvvc#twy~M",
"M~~zcvvvvc#een~M",
"1ZZ<-ffjg;o++>C1"
};
