/* XPM */ 
static const unsigned char * project_xpm[] = {
"22 22 171 2",
"  	c None",
"! 	c #878985",
"# 	c #888A85",
"$ 	c #878983",
"% 	c black",
"& 	c white",
"' 	c #C5C5C4",
"( 	c #DFDFDF",
") 	c #E0E0E0",
"* 	c #E1E1E1",
"+ 	c #E2E2E2",
", 	c #E3E3E3",
"- 	c #E4E4E4",
". 	c #C6C7C5",
"0 	c #F5F5F5",
"1 	c #F7F7F7",
"2 	c #F9F9F9",
"3 	c #FBFBFB",
"4 	c #E5E5E5",
"5 	c #E6E6E6",
"6 	c #F3F3F3",
"7 	c #C7C8C6",
"8 	c #3489D9",
"9 	c #65AAE7",
": 	c #60A7E5",
"; 	c #5CA4E4",
"< 	c #57A1E3",
"= 	c #529FE2",
"> 	c #4798DE",
"? 	c #E7E7E7",
"@ 	c #E9E9E9",
"A 	c #66A9E5",
"B 	c #C8E7FC",
"C 	c #B4DDF9",
"D 	c #AAD8F7",
"E 	c #A3D3F5",
"F 	c #9CCFF3",
"G 	c #93C9F0",
"H 	c #1C7AD2",
"I 	c #C9CAC9",
"J 	c #6AABE6",
"K 	c #D7EDFB",
"L 	c #BEE1F8",
"M 	c #B6DCF7",
"N 	c #B0D9F5",
"O 	c #ABD2E9",
"P 	c #A5CCDF",
"Q 	c #377EB6",
"R 	c #E8E8E8",
"S 	c #EAEAEA",
"T 	c #54A0E2",
"U 	c #BBDFF8",
"V 	c #96CDF3",
"W 	c #A1D1F4",
"X 	c #B9CFCA",
"Y 	c #E6D01F",
"Z 	c #EED918",
"[ 	c #EED718",
"] 	c #EED418",
"^ 	c #EED218",
"_ 	c #EED018",
"` 	c #E0B80F",
"a 	c #B5251A",
"b 	c #CF452F",
"c 	c #CE412B",
"d 	c #CE3F29",
"e 	c #5A92CE",
"f 	c #B4DBF7",
"g 	c #83C3F0",
"h 	c #74BBED",
"i 	c #8BAD9E",
"j 	c #FBF44E",
"k 	c #FFF868",
"l 	c #FFF445",
"m 	c #FFF145",
"n 	c #FFEE45",
"o 	c #FFEB45",
"p 	c #EDCC2A",
"q 	c #D4563F",
"r 	c #FFA385",
"s 	c #FF8B67",
"t 	c #FF8661",
"u 	c #5D96D1",
"v 	c #A9D6F4",
"w 	c #79BDED",
"x 	c #6BB5EA",
"y 	c #85A99C",
"z 	c #FBF26B",
"{ 	c #FFF781",
"| 	c #FFF46A",
"} 	c #FFF26D",
"~ 	c #FFEF6D",
" !	c #FFED6D",
"!!	c #EDCD3E",
"#!	c #EBEBEB",
"$!	c #D55F4D",
"%!	c #FFC6B4",
"&!	c #FFA082",
"'!	c #FF9B7D",
"(!	c #5A92CD",
")!	c #73BAEC",
"*!	c #68B4E9",
"+!	c #5FAEE7",
",!	c #7DA39A",
"-!	c #FBEC27",
".!	c #FFF143",
"0!	c #FFEA10",
"1!	c #FFEB44",
"2!	c #FFEC68",
"3!	c #FFE64B",
"4!	c #EDC307",
"5!	c #D4432B",
"6!	c #FFA589",
"7!	c #FF764D",
"8!	c #FF9273",
"9!	c #D0A0A0",
":!	c #9587A2",
";!	c #92596A",
"<!	c #3C4A8B",
"=!	c #708563",
">!	c #FBE926",
"?!	c #FFEE43",
"@!	c #FFE500",
"A!	c #FFE100",
"B!	c #FFDC00",
"C!	c #FFD800",
"D!	c #EDC000",
"E!	c #CDCECC",
"F!	c #EFEFEF",
"G!	c #D43A1E",
"H!	c #FF9E82",
"I!	c #FF5A2A",
"J!	c #FF5222",
"K!	c #FF4E1D",
"L!	c #FF4715",
"M!	c #FB3E0E",
"N!	c #9E0200",
"O!	c #CA9900",
"P!	c #FBE51B",
"Q!	c #FFEA3C",
"R!	c #FFD400",
"S!	c #EDBD00",
"T!	c #D4371B",
"U!	c #FF987B",
"V!	c #FF5424",
"W!	c #FF4C1B",
"X!	c #FF400E",
"Y!	c #FB3808",
"Z!	c #FCFCFC",
"[!	c #F0CF00",
"]!	c #FADA01",
"^!	c #FAD600",
"_!	c #FAD200",
"`!	c #FACE00",
"a!	c #FACB00",
"b!	c #E5B400",
"c!	c #EDEDED",
"d!	c #D12F14",
"e!	c #FE592B",
"f!	c #FF4615",
"g!	c #FF3A08",
"h!	c #F63002",
"i!	c #9B0000",
"j!	c #868882",
"k!	c #AF1105",
"l!	c #AF0F05",
"m!	c #AF0F03",
"n!	c #AF0D01",
"o!	c #AF0B01",
"p!	c #A70600",
"q!	c #90B5FF",
"! # # # # # # # # # # # # # # # # $         ",
"# & & & & & & & & & & & & & & & & #         ",
"# & ' ' ' ' ' ' ' ' ' ' ' ' ' & & #         ",
"# & ( ) * + , - - ) ) ) ) ) ) ) & #         ",
"# & ' ' ' ' ' ' . ' ' ' 0 1 2 3 & #         ",
"# & * + - 4 5 ) ) ) ) 6 0 1 2 3 & #         ",
"# & ' ' ' ' ' ' 7 ' 8 9 : ; < = > #         ",
"# & , 4 5 ? ? @ @ ) A B C D E F G H         ",
"# & ' ' ' ' ' ' I ' J K L M N O P Q         ",
"# & 4 5 R @ S ) ) ) T U V W X Y Z [ ] ^ _ ` ",
"# & 5 ? @ ? a b c d e f g h i j k l m n o p ",
"# & ' ' ' ' q r s t u v w x y z { | } ~  !!!",
"# & ? R S #!$!%!&!'!(!)!*!+!,!-!.!0!1!2!3!4!",
"# & ? @ @ #!5!6!7!8!9!:!;!<!=!>!?!@!A!B!C!D!",
"# & ' ' E!F!G!H!I!J!K!L!M!N!O!P!Q!A!B!C!R!S!",
"# & R @ #!& T!U!V!W!L!X!Y!N!Z![!]!^!_!`!a!b!",
"# & R @ S c!d!e!W!f!X!g!h!i!3 Z!& #         ",
"j!# # # # # # k!l!m!n!o!p!# # # # j!        ",
"                                            ",
"            % q!    % q!% q!% q!% % q!% % q!",
"            % q!% q!% q!  % q!  % q!  % q!% ",
"              % q!% q!  % q!% q!% q!  % % q!"};