/* XPM */ 
static char * system_xpm[] = {
"22 22 252 2",
"  	c None",
"! 	c black",
"# 	c #3A5A8A",
"$ 	c #3465A4",
"% 	c #8A9BBA",
"& 	c #7F92B2",
"' 	c #7988AC",
"( 	c #3464A3",
") 	c #345F99",
"* 	c #537BAE",
"+ 	c #8A9BB8",
", 	c #5E769E",
"- 	c #7484A6",
". 	c #35609A",
"0 	c #5F76A2",
"1 	c #466594",
"2 	c #BBC3D3",
"3 	c #9DA7BC",
"4 	c #7796C1",
"5 	c #9DA9C4",
"6 	c #5B729D",
"7 	c #8794B1",
"8 	c #7786A5",
"9 	c #969BB8",
": 	c #7A89AF",
"; 	c #34619E",
"< 	c #899DBB",
"= 	c #ABB7CC",
"> 	c #BEC7D8",
"? 	c #BFC6D6",
"@ 	c #C3C8D5",
"A 	c #A3AFC7",
"B 	c #919FBC",
"C 	c #5D739D",
"D 	c #5E749E",
"E 	c #6378A1",
"F 	c #798AAE",
"G 	c #6D7C9C",
"H 	c #7E8FB0",
"I 	c #687BA3",
"J 	c #8A94B5",
"K 	c #A1A1BC",
"L 	c #466FA8",
"M 	c #3D5E92",
"N 	c #BFC7D5",
"O 	c #BEC7D7",
"P 	c #AFB9CF",
"Q 	c #ADB7CD",
"R 	c #7183AA",
"S 	c #6377A1",
"T 	c #6578A2",
"U 	c #6679A3",
"V 	c #687AA4",
"W 	c #6A7BA5",
"X 	c #6C7DA6",
"Y 	c #6D7EA7",
"Z 	c #808CB1",
"[ 	c #8490B4",
"] 	c #3E68A4",
"^ 	c #476CA0",
"_ 	c #C6CDDC",
"` 	c #B2BCD1",
"a 	c #9FABC5",
"b 	c #7283AA",
"c 	c #909DBB",
"d 	c #B2BBD0",
"e 	c #AAB4CB",
"f 	c #94A0BE",
"g 	c #7383AA",
"h 	c #7584AB",
"i 	c #969EBE",
"j 	c #496BA0",
"k 	c #6683AC",
"l 	c #C5CBDB",
"m 	c #B6BFD3",
"n 	c #ACB6CD",
"o 	c #B0B8CF",
"p 	c #A0A7BD",
"q 	c #6F7F9E",
"r 	c #7A87A4",
"s 	c #99A2BB",
"t 	c #9CA6C3",
"u 	c #AAB2CB",
"v 	c #7D89B0",
"w 	c #848FB4",
"x 	c #888EAB",
"y 	c #3462A0",
"z 	c #5C83B6",
"{ 	c #B6C2D7",
"| 	c #B9C1D5",
"} 	c #ACB5CD",
"~ 	c #A5AEC9",
" !	c #969FB5",
"!!	c #376099",
"#!	c #424E6F",
"$!	c #929BB3",
"%!	c #9FA7C4",
"&!	c #A2AAC6",
"'!	c #98A0C0",
"(!	c #B1B6CD",
")!	c #A2ABBF",
"*!	c #B0B7C8",
"+!	c #C7CBD9",
",!	c #BFC6D8",
"-!	c #A3ACC7",
".!	c #9DA6C3",
"0!	c #405E8D",
"1!	c #4D5575",
"2!	c #ACB1CA",
"3!	c #D1D4E3",
"4!	c #BFC3D8",
"5!	c #BFC1D7",
"6!	c #A7AAC7",
"7!	c #9EA1BE",
"8!	c #9A9DB7",
"9!	c #C0C5D9",
":!	c #ABB2CC",
";!	c #B0B7CF",
"<!	c #9BA3C2",
"=!	c #8E97BA",
">!	c #858EB5",
"?!	c #C6C9D7",
"@!	c #35619C",
"A!	c #A2A7BE",
"B!	c #E0E2EC",
"C!	c #B7B9D3",
"D!	c #989BC0",
"E!	c #999CC1",
"F!	c #9B9DC2",
"G!	c #AAACCA",
"H!	c #8E95B1",
"I!	c #9299B7",
"J!	c #9DA5C4",
"K!	c #8992B7",
"L!	c #8B93B8",
"M!	c #8C94B9",
"N!	c #C7CBD8",
"O!	c #3B5F94",
"P!	c #4A5373",
"Q!	c #CCCEDE",
"R!	c #DADBE8",
"S!	c #9EA0C3",
"T!	c #A4A6C7",
"U!	c #A7A8C3",
"V!	c #9A9BB7",
"W!	c #9395B0",
"X!	c #9EA3C4",
"Y!	c #9398BD",
"Z!	c #9499BE",
"[!	c #BDC0D7",
"]!	c #858FA9",
"^!	c #3464A2",
"_!	c #7F86A0",
"`!	c #DCDDEA",
"a!	c #C0C0D8",
"b!	c #A6A5C8",
"c!	c #B2B1CF",
"d!	c #4A5D84",
"e!	c #5274A8",
"f!	c #9A9EC1",
"g!	c #9C9FC2",
"h!	c #CECFE0",
"i!	c #939DB4",
"j!	c #4D638C",
"k!	c #5A6D93",
"l!	c #8C92AD",
"m!	c #DEDEEA",
"n!	c #E0E0EB",
"o!	c #ABAACB",
"p!	c #ADABCC",
"q!	c #9698B4",
"r!	c #375F98",
"s!	c #657EAC",
"t!	c #AEB0CD",
"u!	c #A4A4C7",
"v!	c #A7A6C9",
"w!	c #C3C3DA",
"x!	c #DBDAE9",
"y!	c #DDDCEA",
"z!	c #D2D0E3",
"{!	c #CFCCE1",
"|!	c #B3AFD0",
"}!	c #B8B4D3",
"~!	c #8389A7",
" #	c #3364A3",
"!#	c #436EA7",
"##	c #ACB0C7",
"$#	c #ADABCD",
"%#	c #ACA9CC",
"&#	c #AEAACD",
"'#	c #AFABCE",
"(#	c #B1ADCF",
")#	c #B3AED0",
"*#	c #B4AFD0",
"+#	c #B8B2D2",
",#	c #D7D3E5",
"-#	c #D7D3E6",
".#	c #BBB4D4",
"0#	c #BDB5D5",
"1#	c #BAB5CF",
"2#	c #8C93B3",
"3#	c #3463A1",
"4#	c #A2A9C5",
"5#	c #B7B5D3",
"6#	c #B2AECF",
"7#	c #BEBBD6",
"8#	c #C0BCD8",
"9#	c #B8B2D3",
":#	c #BAB4D4",
";#	c #BCB5D5",
"<#	c #BEB6D6",
"=#	c #C6C0DC",
">#	c #DED9EA",
"?#	c #B9B3CD",
"@#	c #C8BEDC",
"A#	c #C7BDDC",
"B#	c #A2A1BB",
"C#	c #36629D",
"D#	c #33609B",
"E#	c #476DA4",
"F#	c #BFBAD8",
"G#	c #ADACC6",
"H#	c #456290",
"I#	c #697CA5",
"J#	c #C2BCD6",
"K#	c #C4BBD9",
"L#	c #C4BAD9",
"M#	c #C7BED9",
"N#	c #949CBE",
"O#	c #385F9A",
"P#	c #335E97",
"Q#	c #8793B9",
"R#	c #ADB1D2",
"S#	c #747B9A",
"T#	c #305A92",
"U#	c #325C93",
"V#	c #446DA8",
"W#	c #5175AD",
"X#	c #2F5C96",
"Y#	c #284D7E",
"Z#	c #CFC5E0",
"[#	c #C9BEDD",
"]#	c #5D7DB2",
"^#	c #22426C",
"_#	c #2C568B",
"`#	c #3F6599",
"a#	c #2C5285",
"b#	c #284E7F",
"c#	c #305E98",
"d#	c #CCC1DE",
"e#	c #2D578F",
"f#	c #2F5B95",
"                  # $ $ $ $                 ",
"                  $ % & ' $       $         ",
"      ( ) * $     $ + , - $     . 0 $       ",
"      1 2 3 $ $ $ 4 5 6 7 $ $ $ 8 9 : $     ",
"    ; < = > ? @ A B C D E F G H I J K L     ",
"    $ M N O P Q R S T U V W X Y Z [ ]       ",
"        ^ _ ` a b c d d e f g h i j $       ",
"        k l m n o p q r s t u v w x y       ",
"$ $ $ z { | } ~  !!!    #!$!%!&!'!(!$ $ $ $ ",
"$ )!*!+!,!-!.!+!0!        1!2!3!4!5!6!7!8!$ ",
"$ 9!:!;!<!=!>!?!@!          A!B!C!D!E!F!G!$ ",
"$ H!I!J!K!L!M!N!O!        P!Q!R!S!T!U!V!W!$ ",
"( $ $ $ X!Y!Z![!]!^!      _!`!a!b!c!d!$ $ $ ",
"        e!f!g!S!h!i!j!k!l!m!n!o!p!q!r!      ",
"      ( s!t!u!b!v!w!x!y!z!{!{!|!}!~!(       ",
"     #!###$#%#&#'#(#)#*#+#,#-#.#0#1#2#$     ",
"    3#4#5#6#7#8#9#9#:#;#<#=#>#?#@#A#B#C#    ",
"    D#E#F#G#$ H#I#J#K#L#M#N#O#P#Q#R#S#T#    ",
"      U#V#W#X#  Y#$ Z#[#[#]#^#  _#`#a#      ",
"        b#c#      $ y!d#y!$                 ",
"                  $ y!y!y!$                 ",
"                  e#$ $ $ f#                "};