/* XPM */ 
static const unsigned char * choicebook_xpm[] = {
"21 21 32 1",
" 	c None",
"!	c black",
"#	c #333366",
"$	c white",
"%	c #F8FFFF",
"&	c #F1FFFF",
"'	c #EEFFFF",
"(	c #9ECFFF",
")	c #9ED0FF",
"*	c #A5D5FF",
"+	c #A7D7FF",
",	c #ACDAFF",
"-	c #B0DDFF",
".	c #F3FFFF",
"0	c #EBFFFF",
"1	c #AAD9FF",
"2	c #B4E0FF",
"3	c #808080",
"4	c #BAE4FF",
"5	c #E5FFFF",
"6	c #AEDCFF",
"7	c #BDE7FF",
"8	c #E2FFFF",
"9	c #C3ECFF",
":	c #B8E3FF",
";	c #C2EAFF",
"<	c #C6EDFF",
"=	c #C9EFFF",
">	c #DDE2EC",
"?	c #848284",
"@	c #EBEBEB",
"A	c #D2D2D2",
"                     ",
" ####################",
" #$$$%$%%&&&'#()*+,-#",
" #$$!!$.&&''0#)*1,-2#",
" #$$$%!.&'000#*33334#",
" #%%!!!&'0055#163347#",
" #.!..!''0588#622779#",
" #%%!!!055888#2:7;<=#",
" ####################",
" #>>>>>>>>>>>>>>>>>>#",
" #>????????????????>#",
" #>?$$$$$$$$$$$$$$?>#",
" #>?$$$$$$$$$$$$$$?>#",
" #>????????????????>#",
" #>>>>>>>>@@@@@@@@?>#",
" #>>>>>>>>@A!AA!A!?>#",
" #>>>>>>>>@!A!A!!A?>#",
" #>>>>>>>>@A!AA!A!?>#",
" #>>>>>>>>?????????>#",
" #>>>>>>>>>>>>>>>>>>#",
" ####################"};