/* XPM */
static char * collpane_xpm[] = {
"22 22 33 1",
" 	c None",
".	c #FBFBFB",
"+	c #FFFFFF",
"@	c #F8F8F8",
"#	c #F5F5F5",
"$	c #DDE2EC",
"%	c #708CBD",
"&	c #FDFDFD",
"*	c #545454",
"=	c #9DA1A8",
"-	c #3E4043",
";	c #696C71",
">	c #D4D9E2",
",	c #DBE0EA",
"'	c #777A7F",
")	c #000000",
"!	c #54565A",
"~	c #D0D5DE",
"{	c #FCFCFC",
"]	c #D5DAE4",
"^	c #797C81",
"/	c #D1D6DF",
"(	c #D5DAE3",
"_	c #CED2DB",
":	c #D6DAE4",
"<	c #DADFE9",
"[	c #D7DCE5",
"}	c #F1F1F1",
"|	c #CACED7",
"1	c #C6CAD2",
"2	c #C3C7CF",
"3	c #D1D5DF",
"4	c #F3F3F3",
"..++++++++@+++++++++  ",
"#$$$$$$$$$$$$$$$$$$$% ",
"&$$$$$$$***$$$$$$*$$% ",
"+$=---;>$*$*****$**$% ",
"+$,')!~$$*$**$*$$*$$% ",
"{$$]^/$$$*$*****$**$% ",
"+$$$$$$$$$$$$$$$$$$$% ",
"&$$$$$$$$$$$$$$$$$$$% ",
".$$$$$$$$$$$$$$$$$$$% ",
"+$$$$((___________$$% ",
"+$$$$$$$$$$$$$$$$$$$% ",
".$$$$((((((((((((($$% ",
"+$$$$((((((((((((($$% ",
"@$$$$$$$$$$$$$$$$$$$% ",
"+$$$$::::<<<[[[[[<<$% ",
"}$$$$||||1|211111|3$% ",
"+$$$$<<<<<($$$$$$($$% ",
"+$$$$$$$$$$$$$$$$$$$% ",
"4$$$$$$$$$$$$$$$$$$$% ",
"+$$$$$$$$$$$$$$$$$$$% ",
" %%%%%%%%%%%%%%%%%%%% ",
"                      "};
