/* XPM */ 
static const unsigned char * notebook_xpm[] = {
"21 21 7 1",
" 	c None",
"!	c black",
"#	c white",
"$	c #708CBD",
"%	c #D8D8D8",
"&	c #989898",
"'	c #DDE2EC",
"                     ",
"                     ",
"                     ",
" ######$####$####$   ",
" #%%%%%$&&&&$&&&&$   ",
" #%%%%%$&&&&$&&&&$   ",
" #%%%%%$&&&&$&&&&$   ",
" #'''''############$ ",
" #'''''''''''''''''$ ",
" #'''''''''''''''''$ ",
" #'''''''''''''''''$ ",
" #'''''''''''''''''$ ",
" #'''''''''''''''''$ ",
" #'''''''''''''''''$ ",
" #'''''''''''''''''$ ",
" #'''''''''''''''''$ ",
" #'''''''''''''''''$ ",
" #$$$$$$$$$$$$$$$$$$ ",
"                     ",
"                     ",
"                     "};