/* XPM */ 
static const unsigned char * scrollwin_xpm[] = {
"21 21 42 1",
" 	c None",
"!	c black",
"#	c #FBFBFB",
"$	c #DDE2EC",
"%	c #708CBD",
"&	c #DEFFFF",
"'	c #D4F8FC",
"(	c #D2F7FD",
")	c #CBF1FB",
"*	c #BDE8F8",
"+	c #B3E1F5",
",	c #D9FCFE",
"-	c #808080",
".	c #B5E3F6",
"0	c #AADBF3",
"1	c #A3D7F1",
"2	c #CDF4FB",
"3	c #C3ECF9",
"4	c #BAE6F7",
"5	c #AEDEF4",
"6	c #97CFEF",
"7	c #C7EFF9",
"8	c #A5D8F2",
"9	c #9AD0EF",
":	c #8DC7EC",
";	c #CCCBCC",
"<	c #D0D0D0",
"=	c #D7D7D6",
">	c #DCDCDD",
"?	c #E3E4E3",
"@	c #EBEAEB",
"A	c #CCCBCB",
"B	c #D3F7FD",
"C	c #B8E5F6",
"D	c #CCF3FB",
"E	c #AFDFF5",
"F	c #8FC8ED",
"G	c #BDE9F7",
"H	c #93CBEE",
"I	c #86C3EB",
"J	c #9FD3F0",
"K	c #7ABAE9",
"                     ",
" ####################",
" #$$$$$$$$$$$%%%%%%%%",
" #$$$$$$$$$$$%&'()*+%",
" #$$$$$$$$$$$%,(--.0%",
" #$$$$$$$$$$$%'----1%",
" #$$$$$$$$$$$%234516%",
" #$$$$$$$$$$$%7*+89:%",
" #$$$$$$$$$$$%%%%%%%%",
" #$$$$$$$$$$$%;<=>?@%",
" #$$$$$$$$$$$%A<=>?@%",
" #$$$$$$$$$$$%;<=>?@%",
" #$$$$$$$$$$$%;<=>?@%",
" #$$$$$$$$$$$%A<=>?@%",
" #$$$$$$$$$$$%%%%%%%%",
" #$$$$$$$$$$$%B)3C51%",
" #$$$$$$$$$$$%D34E86%",
" #$$$$$$$$$$$%7----F%",
" #$$$$$$$$$$$%G+--HI%",
" #$$$$$$$$$$$%.0JHIK%",
" %%%%%%%%%%%%%%%%%%%%"};