/* XPM */ 
static const unsigned char * splitter_window_xpm[] = {
"21 21 14 1",
" 	c None",
"!	c black",
"#	c white",
"$	c #708CBD",
"%	c #FEFEFE",
"&	c #FBFBFB",
"'	c #FCFCFC",
"(	c #DDE2EC",
")	c #DADADA",
"*	c #F2F2F2",
"+	c #333366",
",	c #D9D9D9",
"-	c #D8D8D8",
".	c #F8F8F8",
"                     ",
" ##########$######%&'",
" '((((((((($#((((((($",
" %((((((((($%((((((($",
" %((((((((($%((((((($",
" %((((((((($%((((((($",
" %((((((((($%((((((($",
" %((((((((($%((((((($",
" %((((((((($%((((((($",
" %((((((((($%((((((($",
" %((((((((($%((((((($",
" %((((((((($#(((()(($",
" %((((((((($*((((((($",
" %(((((($$$$$((((((($",
" %(((((($###$((((((($",
" %(((((($'+#$(()(((($",
" %(((((($###$((((((($",
" %(((((($$$$$((((((($",
" %,((((((((((((((((($",
" #((((((((($#((((((-$",
" #$$$$$$$$$$.$$$$$$$$"};