/* XPM */ 
static char * copy_xpm[] = {
"22 22 79 1",
" 	c None",
"!	c #8D908B",
"#	c #8C8E89",
"$	c black",
"%	c #888A85",
"&	c white",
"'	c #90918D",
"(	c #8A8C86",
")	c #F0F0EF",
"*	c #FEFEFE",
"+	c #91928E",
",	c #EFEFEE",
"-	c #E9E9E8",
".	c #E8E8E7",
"0	c #F6F6F6",
"1	c #CACACA",
"2	c #C9C9C9",
"3	c #979995",
"4	c #8C8E8A",
"5	c #8D8F8A",
"6	c #898B86",
"7	c #C5C6C5",
"8	c #8A8C87",
"9	c #CACAC9",
":	c #C5C5C3",
";	c #C7C7C6",
"<	c #C6C6C5",
"=	c #EEEEEE",
">	c #EEEEED",
"?	c #E6E6E5",
"@	c #EDEDEC",
"A	c #EDEDED",
"B	c #C9C9C8",
"C	c #C8C8C8",
"D	c #C8C8C7",
"E	c #C3C3C2",
"F	c #C5C5C5",
"G	c #C5C5C4",
"H	c #ECECEC",
"I	c #ECECEB",
"J	c #E4E5E4",
"K	c #C7C7C7",
"L	c #C1C1C1",
"M	c #F4F4F4",
"N	c #FDFDFD",
"O	c #EBEBEB",
"P	c #EBEBEA",
"Q	c #EAEAEA",
"R	c #E3E3E2",
"S	c #EFEFEF",
"T	c #F2F2F2",
"U	c #FCFCFC",
"V	c #FAFAFA",
"W	c #EAEAE9",
"X	c #E9E9E9",
"Y	c #E2E2E1",
"Z	c #C4C4C4",
"[	c #C4C4C3",
"]	c #C3C3C3",
"^	c #CDCDCD",
"_	c #DCDCDC",
"`	c #F9F9F9",
"a	c #8B8D88",
"b	c #F7F7F7",
"c	c #E8E8E8",
"d	c #F3F3F3",
"e	c #F1F1F1",
"f	c #F0F0F0",
"g	c #BDBEBB",
"h	c #868A84",
"i	c #CFCFCF",
"j	c #BABBB9",
"k	c #878B85",
"l	c #898D87",
"m	c #B4B5B4",
"n	c #90948F",
"o	c #868A85",
"p	c #888C86",
"q	c #878A84",
"!#############!       ",
"%&&&&&&&&&&&&&'       ",
"(&)))))))))))*+       ",
"(&))))),----.0'       ",
"(&)11123####45#######5",
"(&))))-6&***********&#",
"(&)11176&)))))))))))*#",
"(&)))).8&)))))))))),*#",
"(&)199:6&);;;;;;;;<=*#",
"(&),=>?8&),,,,,,>>@A*#",
"(&,BCDE6&);;;;;<FFG=*#",
"6&>@HIJ8&)))),,>A@>A*#",
"6&@K;<L6&)D;;<<FF>AM*#",
"6NIOPQR8&),=>@@IOSTSU#",
"6VPQWXY8&,FFGZ[]^__T`a",
"6bQX-cR8&>IOPQWHSASTba",
"%TdefeA8&@HIPQ,fSeTeg6",
"!%%%%%%6NIOPQHf=%%%%%%",
"       6VPQWHSSehiij%k",
"       6bQX>eedMlim%n ",
"       6TTefeMb0oj%p  ",
"       566%%%%%qh%    "};