/* XPM */ 
static char * cruz_xpm[] = {
"22 22 186 2",
"  	c None",
"! 	c black",
"# 	c #E3ABAB",
"$ 	c #E67F7F",
"% 	c #CB5D5D",
"& 	c #BE4444",
"' 	c #BD4040",
"( 	c #C76666",
") 	c #C75F5F",
"* 	c #BE4242",
"+ 	c #CB5B5B",
", 	c #DC7070",
"- 	c #EF9090",
". 	c #E67D7D",
"0 	c #DB6D6D",
"1 	c #CA5A5A",
"2 	c #BB3C3C",
"3 	c #C14C4C",
"4 	c #E27878",
"5 	c #F38E8E",
"6 	c #F07474",
"7 	c #EE6262",
"8 	c #EC5050",
"9 	c #EE6060",
": 	c #EF7070",
"; 	c #F28787",
"< 	c #E17272",
"= 	c #BE4646",
"> 	c #CC5A5A",
"? 	c #EF8E8E",
"@ 	c #F07575",
"A 	c #EB4949",
"B 	c #DA4646",
"C 	c #CA4848",
"D 	c #C24848",
"E 	c #C34848",
"F 	c #CD4848",
"G 	c #D94646",
"H 	c #EB4848",
"I 	c #EF6E6E",
"J 	c #ED8181",
"K 	c #C95555",
"L 	c #EF8F8F",
"M 	c #EE5E5E",
"N 	c #E94646",
"O 	c #C44747",
"P 	c #BC3A3A",
"Q 	c #E17575",
"R 	c #BC3E3E",
"S 	c #C54848",
"T 	c #E44646",
"U 	c #ED5959",
"V 	c #EC7E7E",
"W 	c #C14B4B",
"X 	c #E37A7A",
"Y 	c #EC4646",
"Z 	c #DD4646",
"[ 	c #BE4545",
"] 	c #E34646",
"^ 	c #EF6868",
"_ 	c #DF6B6B",
"` 	c #BA3838",
"a 	c #F38D8D",
"b 	c #CD4646",
"c 	c #E94848",
"d 	c #EE7676",
"e 	c #C75656",
"f 	c #DB6F6F",
"g 	c #BC4646",
"h 	c #C84848",
"i 	c #BD3F3F",
"j 	c #D84646",
"k 	c #E96161",
"l 	c #D56060",
"m 	c #E78080",
"n 	c #C84949",
"o 	c #FF8080",
"p 	c #CC4848",
"q 	c #E55656",
"r 	c #DC6B6B",
"s 	c #A50202",
"t 	c #EA6C6C",
"u 	c #E92C2C",
"v 	c #BA3333",
"w 	c #C33838",
"x 	c #E73333",
"y 	c #EA3737",
"z 	c #DB3939",
"{ 	c #B62929",
"| 	c #E14C4C",
"} 	c #E27575",
"~ 	c #BB3D3D",
" !	c #A50000",
"!!	c #E95F5F",
"#!	c #E60E0E",
"$!	c #A90000",
"%!	c #B30000",
"&!	c #E20000",
"'!	c #E50000",
"(!	c #D10000",
")!	c #A80000",
"*!	c #DF4D4D",
"+!	c #B83737",
",!	c #DC4747",
"-!	c #E82121",
".!	c #B60000",
"0!	c #E10000",
"1!	c #CC0000",
"2!	c #C74848",
"3!	c #DE5656",
"4!	c #D86A6A",
"5!	c #CC3030",
"6!	c #EA3434",
"7!	c #C80000",
"8!	c #B20000",
"9!	c #DA0000",
":!	c #A60000",
";!	c #A60101",
"<!	c #C51010",
"=!	c #D53737",
">!	c #C53B3B",
"?!	c #B41515",
"@!	c #ED5353",
"A!	c #E20505",
"B!	c #AA0000",
"C!	c #B10000",
"D!	c #D50000",
"E!	c #D40000",
"F!	c #C30000",
"G!	c #AB0000",
"H!	c #CA0404",
"I!	c #D54040",
"J!	c #AD1010",
"K!	c #D63535",
"L!	c #EA3636",
"M!	c #AF0000",
"N!	c #CE0000",
"O!	c #CD0000",
"P!	c #D02C2C",
"Q!	c #C22A2A",
"R!	c #A80303",
"S!	c #E74949",
"T!	c #E71D1D",
"U!	c #A40000",
"V!	c #C90000",
"W!	c #CB1919",
"X!	c #CE3D3D",
"Y!	c #A40202",
"Z!	c #B50F0F",
"[!	c #E64242",
"]!	c #E73030",
"^!	c #DD0505",
"_!	c #AD0000",
"`!	c #BD0000",
"a!	c #C90505",
"b!	c #D02E2E",
"c!	c #AD0D0D",
"d!	c #A70202",
"e!	c #D02828",
"f!	c #E44141",
"g!	c #DE2C2C",
"h!	c #D91D1D",
"i!	c #D40E0E",
"j!	c #D10E0E",
"k!	c #D11D1D",
"l!	c #D12C2C",
"m!	c #D34141",
"n!	c #C12828",
"o!	c #A30000",
"p!	c #AE0C0C",
"q!	c #C11F1F",
"r!	c #CC2D2D",
"s!	c #D53C3C",
"t!	c #D33C3C",
"u!	c #C72D2D",
"v!	c #BB1F1F",
"w!	c #AB0C0C",
"x!	c #A10000",
"y!	c #EBEBEB",
"z!	c #DEDEDE",
"{!	c #D2D2D2",
"|!	c #C5C5C5",
"}!	c #ABABAB",
"~!	c #930000",
" #	c #920000",
"!#	c #B8B8B8",
"                                            ",
"              # $ % & ' ( ) #               ",
"          # * + , $ - - . 0 1 2 #           ",
"        $ 3 4 5 6 7 8 8 9 : ; < = )         ",
"      $ > ? @ A B C D E F G H I J K )       ",
"    # 3 L M N O P Q # # Q R S T U V = #     ",
"    W X @ Y Y Z ' #         Q [ ] ^ _ `     ",
"  5 % a A b N Y Z ' #         Q S c d e #   ",
"  @ f : B g h N Y Z ' #         i j k l Q   ",
"  I m 9 n - g h N Y Z ' #       o p q r %   ",
"  s t u v #   g w x y z { #     # E | } ~   ",
"   !!!#!$!#     g %!&!'!(!)!#   # D *!Q +!  ",
"  A ,!-!.!m       g %!0!0!1!)!# o 2!3!4!%   ",
"  n 5!6!7!]         g 8!9!9!7!:!;!<!=!>!Q   ",
"  # ?!@!A!B!-         g C!D!E!F!G!H!I!J!#   ",
"    :!K!L!D!:!-         g M!N!O!7!P!Q!:!    ",
"    # R!S!T!D!B!A m # # m U!8!V!W!X!Y!#     ",
"      ( Z![!]!^!F!%!)!)!_!`!a!b!X!c!,       ",
"        ( d!e!f!g!h!i!j!k!l!m!n!s ,         ",
"          # o!p!q!r!s!t!u!v!w!x!-           ",
"  y!y!z!{!|!}!( ~ ~!x!x! #~ ( !#|!|!{!z!y!  ",
"              |!|!!#!#!#|!|!|!              "};