/* XPM */
static char * expand_xpm[] = {
"22 22 6 1",
" 	c None",
".	c #1F2576",
"+	c #0012FF",
"@	c #F36666",
"#	c #A91919",
"$	c #6F0000",
"                      ",
"  ..................  ",
" .++++++++++++++++++. ",
" .+................+. ",
" .+.              .+. ",
" .+.              .+. ",
" .+.              .+. ",
" .+.   @      @   .+. ",
" .+.  @#      #@  .+. ",
" .+. @##@@  @@##@ .+. ",
" .+.$#####  #####$.+. ",
" .+. $##$$  $$##$ .+. ",
" .+.  $#      #$  .+. ",
" .+.   $      $   .+. ",
" .+.              .+. ",
" .+.              .+. ",
" .+.              .+. ",
" .+.              .+. ",
" .+................+. ",
" .++++++++++++++++++. ",
"  ..................  ",
"                      "};
