/* XPM */
static char * new_xpm[] = {
"16 16 5 1",
" 	c None",
".	c #000000",
"+	c #FFFFFF",
"@	c #808080",
"#	c #C0C0C0",
"                ",
"                ",
"   .......      ",
"   .+++++..     ",
"  @.+++++.+.    ",
"  @.+++++....   ",
"  @.++++++##.   ",
"  @.++++++++.   ",
"  @.++++++++.   ",
"  @.++++++++.   ",
"  @.++++++++.   ",
"  @.++++++++.   ",
"  @.++++++++.   ",
"  @..........   ",
"  @@@@@@@@@     ",
"                "};
