/* XPM */
static char *ot_menubar_xpm[] = {
/* columns rows colors chars-per-pixel */
"16 16 7 1",
"  c black",
". c #0066CC",
"X c magenta",
"o c #808080",
"O c gray95",
"+ c gray100",
"@ c None",
/* pixels */
"oooooooooooooooo",
"o.......OOOOOOOO",
"o.+++++.O....OO.",
"o.......OOOOOOOO",
"oooooooooooooooo",
"@o++++++++o@@@@@",
"@o+......+o @@@@",
"@o++++++++o @@@@",
"@o+....+++o @@@@",
"@o++++++++o @@@@",
"@oooooooooo @@@@",
"@o++++++++o @@@@",
"@o+....+++o @@@@",
"@o++++++++o @@@@",
"@oooooooooo @@@@",
"@@          @@@@"
};
