/* XPM */
static char * ot_sizer_xpm[] = {
"16 16 2 1",
" 	c #FFFFFF",
".	c #0C2C97",
"                ",
" . . . . . . .  ",
"  . . . . . . . ",
" .           .  ",
"  .           . ",
" .           .  ",
"  .           . ",
" .           .  ",
"  .           . ",
" .           .  ",
"  .           . ",
" .           .  ",
"  .           . ",
" . . . . . . .  ",
"  . . . . . . . ",
"                "};
