/* XPM */
static char * ot_widget_xpm[] = {
"16 16 7 1",
" 	c None",
".	c #000000",
"+	c #FFFFFF",
"@	c #D9D9D9",
"#	c #646464",
"$	c #B7B7B7",
"%	c #8B8B8B",
"                ",
" .............. ",
" .++++++++++++. ",
" .+@@@@@@@@@@#. ",
" .+@$$$$$$$$%#. ",
" .+@$$$$$$$$%#. ",
" .+@$$$$$$$$%#. ",
" .+@$$$$$$$$%#. ",
" .+@$$$$$$$$%#. ",
" .+@$$$$$$$$%#. ",
" .+@$$$$$$$$%#. ",
" .+@$$$$$$$$%#. ",
" .+%%%%%%%%%%#. ",
" .############. ",
" .............. ",
"                "};
