/* XPM */ 
static char * save_xpm[] = {
"22 22 131 2",
"  	c None",
"! 	c black",
"# 	c #6C8577",
"$ 	c #4D7991",
"% 	c #38678B",
"& 	c #416C8A",
"' 	c #57787D",
"( 	c #427092",
") 	c #6296BB",
"* 	c #81ADD1",
"+ 	c #74A8D3",
", 	c #8FB6DB",
"- 	c #75A9D5",
". 	c #63A0CE",
"0 	c #53798A",
"1 	c #496E82",
"2 	c #6A7F5A",
"3 	c #51798A",
"4 	c #67A2CE",
"5 	c #44789C",
"6 	c #3F7296",
"7 	c #3B6C91",
"8 	c #477DA3",
"9 	c #74A8D4",
": 	c #6BA5D3",
"; 	c #4A80A8",
"< 	c #3F6A89",
"= 	c #5E7C79",
"> 	c #6D8D8E",
"? 	c #5B7E88",
"@ 	c #7A8D64",
"A 	c #426E88",
"B 	c #477DA2",
"C 	c #5E9AC7",
"D 	c #5B96C1",
"E 	c #4A80A6",
"F 	c #3F6C86",
"G 	c #4D7282",
"H 	c #708A82",
"I 	c #778B6C",
"J 	c #538CB5",
"K 	c #5892BD",
"L 	c #609DCB",
"M 	c #547780",
"N 	c #607D6E",
"O 	c #5B7A72",
"P 	c #7C816D",
"Q 	c #6E706B",
"R 	c #75796C",
"S 	c #688993",
"T 	c #54727B",
"U 	c #788865",
"V 	c #72756B",
"W 	c #F6F6F6",
"X 	c #609CCA",
"Y 	c #838580",
"Z 	c #ECECEC",
"[ 	c #EBEBEB",
"] 	c #5089B2",
"^ 	c #63A1D0",
"_ 	c #D8DAD8",
"` 	c #9B9D99",
"a 	c #EAEBEA",
"b 	c #629FCE",
"c 	c #3C6D91",
"d 	c #E1E2E1",
"e 	c #949691",
"f 	c #CCCCCB",
"g 	c #E3E3E3",
"h 	c #67A3D2",
"i 	c #518BB5",
"j 	c #5C97C3",
"k 	c #5E99C6",
"l 	c #CFCFCD",
"m 	c #E6E6E6",
"n 	c #D2D6CC",
"o 	c #4E87B0",
"p 	c #5088B1",
"q 	c #CCD1C5",
"r 	c #777975",
"s 	c #CAD0C4",
"t 	c #7F817E",
"u 	c #8E8F8D",
"v 	c #E5E5E5",
"w 	c #EDEDED",
"x 	c #B8B8B8",
"y 	c #E7E7E7",
"z 	c #E9E9E8",
"{ 	c #D3D8CC",
"| 	c #E2E2E1",
"} 	c #E0E0E0",
"~ 	c #B1B1B0",
" !	c #676964",
"!!	c #D0D0D0",
"#!	c #F3F3F3",
"$!	c #C6CCC0",
"%!	c #C9CEC3",
"&!	c #E2E3E1",
"'!	c #F1F1F1",
"(!	c #CECECE",
")!	c #666864",
"*!	c #E1E1E1",
"+!	c #CDCDCD",
",!	c #CCCCCC",
"-!	c #C8C8C8",
".!	c #DBDBDB",
"0!	c #919191",
"1!	c #989898",
"2!	c #A3A4A2",
"3!	c #B0B0B0",
"4!	c #B2B2B2",
"5!	c #BBBBBB",
"6!	c #BCBCBC",
"7!	c #C5C5C5",
"8!	c #D1D1D1",
"9!	c #C0C0C0",
":!	c #D6D6D6",
";!	c #D7D7D7",
"<!	c #949494",
"=!	c #979797",
">!	c #A5A5A5",
"?!	c #A9A9A9",
"@!	c #ACACAC",
"A!	c #BABABA",
"B!	c #C1C1C1",
"C!	c #C4C4C4",
"D!	c #C9C9C9",
"E!	c #C5C5C4",
"F!	c #C7C7C7",
"G!	c #CBCBCB",
"H!	c #555753",
"      # $ % % % % & '                       ",
"      ( ) * + , - . 0 1 2                   ",
"    3 4 5 6 7 8 . 9 : ; <                   ",
"  = > ? @     A B C C D E F                 ",
"  G H         I 7 J K D L M N               ",
"  O P Q Q Q Q R % K K K K S T Q Q Q Q Q     ",
"  U V W W W W W % K K K K X % W W W W Q     ",
"    Y Z W [ [ [ % K ] K K ^ % [ [ _ [ Y     ",
"  Q ` Z a W % % % K ] K K b % c % d [ e Q   ",
"  Q f g [ [ % X X h ] i K D j k % [ [ l Q   ",
"  Q m g [ [ n c X o p o ] o j c q [ [ Z Q   ",
"  r Z W [ [ [ s % X o o p j % s [ [ W Z t   ",
"Q u Z v W W w [ s % X p j % s [ W W v Z u Q ",
"Q x y z y v W W W { % X c { W W v v | } ~ Q ",
" !!!#!v v v v v v v $!% %!v v v v | &!'!(!)!",
"Q W W W W W W W W W W W W W W W W W W W W Q ",
"Q *!(!(!(!(!(!(!(!+!+!+!+!+!+!+!,!,!,!,!*!Q ",
"Q *!-!.!0!1!2!3!4!5!6!7!8!9!:!9!:!9!:!9!*!Q ",
"Q *!-!;!<!=!>!?!@!A!B!C!8!9!:!9!:!9!:!9!*!Q ",
"Q *!D!(!E!B!C!9!9!9!F!F!8!9!:!9!:!9!:!9!*!Q ",
"Q G!*!*!*!*!*!*!*!*!*!*!*!*!*!*!*!*!*!*!-!Q ",
"H!Q Q Q Q Q Q Q Q Q Q Q Q Q Q Q Q Q Q Q Q   "};