/* XPM */
static char * stretch_xpm[] = {
"22 22 4 1",
" 	c None",
".	c #1F2576",
"+	c #5D8EFF",
"@	c #0012FF",
"                      ",
"       .              ",
"      +@.             ",
"     +@@@.            ",
"    +@@@@@.           ",
"      +@.             ",
"      +@.             ",
"                      ",
"  ...........         ",
" .@@@@@@@@@@@.        ",
" .@.........@.        ",
" .@.       .@.   +    ",
" .@.       .@.   @+   ",
" .@.       .@. ++@@+  ",
" .@.       .@. @@@@@. ",
" .@.       .@. ..@@.  ",
" .@.       .@.   @.   ",
" .@.       .@.   .    ",
" .@.........@.        ",
" .@@@@@@@@@@@.        ",
"  ...........         ",
"                      "};
