/* XPM */
static char *menubar_xpm[] = {
/* columns rows colors chars-per-pixel */
"22 22 52 1",
"  c #333366",
". c #0066CC",
"X c #6984C9",
"o c #778ACD",
"O c magenta",
"+ c #8995D4",
"@ c #9494CD",
"# c #9695D0",
"$ c #9797D5",
"% c #939EDD",
"& c #9D9FD5",
"* c #9998DA",
"= c #9B9AE0",
"- c #9D9DE6",
"; c #9E9FEC",
": c #9EA9E6",
"> c #A2A9DF",
", c #A0A1F2",
"< c #A2A2F7",
"1 c #A3A3FC",
"2 c #A5A5FF",
"3 c #B3B5E5",
"4 c #B4B5FA",
"5 c #B6B8F0",
"6 c #C0C0C0",
"7 c #C4C4F3",
"8 c #C8C8F7",
"9 c #CBCBF8",
"0 c #D4C7FC",
"q c #D1D1F7",
"w c #D8D8FF",
"e c #DFDFFE",
"r c #E2E2FE",
"t c #E3E3FF",
"y c #E4E4FF",
"u c #E5E5FF",
"i c #E6E6FF",
"p c #E7E7FF",
"a c #E9E9FE",
"s c #E9E9FF",
"d c #EAEAFF",
"f c #EBEBFF",
"g c #EDEDFF",
"h c #EFEFFF",
"j c #F0F0FF",
"k c #F1F1FF",
"l c #F3F3FF",
"z c #F6F6FF",
"x c #F7F7FF",
"c c #FCFCFF",
"v c gray100",
"b c None",
/* pixels */
"bbbbbbbbbbbbbbbbbbbbbb",
"                     b",
" .......vvvvvvvvvvvvvb",
" .vvvvv.v....vv.....vb",
" .......vvvvvvvvvvvvvb",
"                     b",
"b vvvvvvvv bbbbbbbbbbb",
"b v......v 6bbbbbbbbbb",
"b vvvvvvvv 6b22bbbbbbb",
"b v....vvv 6b204bbbbbb",
"b vvvvvvvv 6b2v8bbbbbb",
"b v......v 6b<ll5bbbbb",
"b vvvvvvvv 6b,kjj:bbbb",
"b          6b:jggp%bbb",
"b vvvvvvvv 6b-sspir+bb",
"b v....vvv 6b=syr>oXbb",
"b vvvvvvvv 6b*e@q3bbbb",
"b v......v 6b$@b&w&bbb",
"b vvvvvvvv 6b#bb&97&bb",
"b          6bbbbb&&&bb",
"bb6666666666bbbbbbbbbb",
"bbbbbbbbbbbbbbbbbbbbbb"
};
