/* XPM */ 
static const unsigned char * panel_xpm[] = {
"22 22 12 1",
" 	c None",
"!	c #FBFBFB",
"#	c white",
"$	c #F8F8F8",
"%	c black",
"&	c #F5F5F5",
"'	c #DDE2EC",
"(	c #708CBD",
")	c #FDFDFD",
"*	c #FCFCFC",
"+	c #F1F1F1",
",	c #F3F3F3",
"!!########$#########  ",
"&'''''''''''''''''''( ",
")'''''''''''''''''''( ",
"#'''''''''''''''''''( ",
"#'''''''''''''''''''( ",
"*'''''''''''''''''''( ",
"#'''''''''''''''''''( ",
")'''''''''''''''''''( ",
"!'''''''''''''''''''( ",
"#'''''''''''''''''''( ",
"#'''''''''''''''''''( ",
"!'''''''''''''''''''( ",
"#'''''''''''''''''''( ",
"$'''''''''''''''''''( ",
"#'''''''''''''''''''( ",
"+'''''''''''''''''''( ",
"#'''''''''''''''''''( ",
"#'''''''''''''''''''( ",
",'''''''''''''''''''( ",
"#'''''''''''''''''''( ",
" (((((((((((((((((((( ",
"                      "};