/* XPM */ 
static const unsigned char * radio_button_xpm[] = {
"22 22 63 1",
" 	c None",
"!	c black",
"#	c #696989",
"$	c #472E75",
"%	c #343466",
"&	c #9797A8",
"'	c #BABAC0",
"(	c #BDBDC2",
")	c #9C9CAC",
"*	c #6C6D8D",
"+	c #7E7E97",
",	c #C8C8C8",
"-	c #CCCDCD",
".	c #CFCFD0",
"0	c #D3D3D3",
"1	c #D7D7D7",
"2	c #8787A1",
"3	c #89BF87",
"4	c #57B751",
"5	c #66C25B",
"6	c #A5D39B",
"7	c #DBDBDA",
"8	c #DFDFDF",
"9	c #727393",
":	c #9898A8",
";	c #009900",
"<	c #11A40B",
"=	c #2AB51C",
">	c #47C82F",
"?	c #B3DFA7",
"@	c #E4E4E4",
"A	c #ADADBE",
"B	c #1AAB12",
"C	c #30B921",
"D	c #4BCB32",
"E	c #91E07A",
"F	c #E9E9E9",
"G	c #DCDCE0",
"H	c #BFBFC5",
"I	c #66C25C",
"J	c #41C52B",
"K	c #59D43B",
"L	c #99E680",
"M	c #EEEEEE",
"N	c #DFDFE4",
"O	c #A6D59D",
"P	c #6BE047",
"Q	c #C7EFB7",
"R	c #F2F2F3",
"S	c #B6B7C7",
"T	c #DEDEDD",
"U	c #B5E0A9",
"V	c #F3F3F2",
"W	c #F7F7F6",
"X	c #7A7A9B",
"Y	c #8989A3",
"Z	c #ECEBEC",
"[	c #F3F4F3",
"]	c #F7F7F7",
"^	c #9797B0",
"_	c #747495",
"`	c #AFAFC0",
"a	c #7B7B9C",
"                      ",
"                      ",
"                      ",
"                      ",
"                      ",
"        #$$#          ",
"      %#&'()*%        ",
"     %+,,-.012%       ",
"     #,,3456789       ",
"    #:-3;<=>?@A#      ",
"    $(-4<BCDEFG$      ",
"    $H0I=CJKLMN$      ",
"    #)1O>DKPQRS#      ",
"     *7TUELQVWX       ",
"     %Y@FZR[]^%       ",
"      %_`GNSa%        ",
"        #$$#          ",
"                      ",
"                      ",
"                      ",
"                      ",
"                      "};