/* XPM */
static char *static_text_xpm[] = {
/* columns rows colors chars-per-pixel */
"22 22 3 1",
"  c black",
". c magenta",
"X c None",
/* pixels */
"XXXXXXXXXXXXXXXXXXXXXX",
"XXXXXXXXXXXXXXXXXXXXXX",
"XXXXXXXXXXXXXXXXXXXXXX",
"XXXXXXXXXXXXXXXXXXXXXX",
"XXXXXXXXXXXXXXXXXXXXXX",
"XXXXXXXXXXXXXXXXXXXXXX",
"XXXXXXXXX XXXXXXXXXXXX",
"XXXXXXXXX XXXXXXXXXXXX",
"XXXXXXXXX XXXXXXXXXXXX",
"XXXXX  XX   XXX  XXXXX",
"XXXXXXX X XX X XXXXXXX",
"XXXXX   X XX X XXXXXXX",
"XXXX XX X XX X XXXXXXX",
"XXXXX   X   XXX  XXXXX",
"XXXXXXXXXXXXXXXXXXXXXX",
"XXXXXXXXXXXXXXXXXXXXXX",
"XXXXXXXXXXXXXXXXXXXXXX",
"XXXXXXXXXXXXXXXXXXXXXX",
"XXXXXXXXXXXXXXXXXXXXXX",
"XXXXXXXXXXXXXXXXXXXXXX",
"XXXXXXXXXXXXXXXXXXXXXX",
"XXXXXXXXXXXXXXXXXXXXXX"
};
