/* XPM */
static char * logo_xpm[] = {
"32 32 514 2",
"  	c None",
". 	c #0B6DCF",
"+ 	c #529DE2",
"@ 	c #60A8E6",
"# 	c #5EA6E5",
"$ 	c #5BA5E5",
"% 	c #59A3E4",
"& 	c #56A2E3",
"* 	c #53A0E2",
"= 	c #519EE2",
"- 	c #4E9CE1",
"; 	c #4C9BE0",
"> 	c #4596DE",
", 	c #1474D1",
"' 	c #4091DD",
") 	c #BAE3FD",
"! 	c #B7E1FB",
"~ 	c #B2DEFA",
"{ 	c #ADDBF9",
"] 	c #A8D8F8",
"^ 	c #A4D5F7",
"/ 	c #A0D2F5",
"( 	c #9BD0F4",
"_ 	c #97CDF3",
": 	c #93CAF2",
"< 	c #8EC8F0",
"[ 	c #58A3E3",
"} 	c #4B98DF",
"| 	c #BEE4FC",
"1 	c #D5EDFC",
"2 	c #C0E3FA",
"3 	c #B1DCF9",
"4 	c #ADD9F7",
"5 	c #A9D7F6",
"6 	c #A5D4F5",
"7 	c #A1D2F4",
"8 	c #9ED0F3",
"9 	c #9ACDF2",
"0 	c #96CBF1",
"a 	c #64AAE5",
"b 	c #4D98DF",
"c 	c #C4E5FB",
"d 	c #E0F1FC",
"e 	c #C5E5FA",
"f 	c #B7DDF8",
"g 	c #B3DBF7",
"h 	c #B0D9F6",
"i 	c #ACD7F5",
"j 	c #A8D5F4",
"k 	c #A5D3F3",
"l 	c #A2D1F2",
"m 	c #9ECFF1",
"n 	c #69ADE5",
"o 	c #4F99DF",
"p 	c #C8E7FB",
"q 	c #E2F2FC",
"r 	c #CAE6FA",
"s 	c #BDE0F8",
"t 	c #BADEF7",
"u 	c #B7DCF7",
"v 	c #B4DAF6",
"w 	c #B0D8F5",
"x 	c #ADD6F3",
"y 	c #ACD2E7",
"z 	c #A9D0E5",
"A 	c #74AEDA",
"B 	c #4594DE",
"C 	c #A6D7F8",
"D 	c #CDE8FA",
"E 	c #AAD7F6",
"F 	c #A6D5F5",
"G 	c #B9DDF7",
"H 	c #BEE0F7",
"I 	c #BCDEF6",
"J 	c #BCD0C8",
"K 	c #CDAC2A",
"L 	c #D9B610",
"M 	c #D9B510",
"N 	c #D7B410",
"O 	c #D7B20B",
"P 	c #DAB309",
"Q 	c #DAB209",
"R 	c #DAB109",
"S 	c #DAB009",
"T 	c #DAB008",
"U 	c #D2A304",
"V 	c #3B8FDD",
"W 	c #98D0F6",
"X 	c #CAE6F9",
"Y 	c #9DD0F4",
"Z 	c #84C4F1",
"` 	c #7FC1F0",
" .	c #A8D4F3",
"..	c #C7B250",
"+.	c #F7EE23",
"@.	c #FFFB26",
"#.	c #FFF926",
"$.	c #FFF726",
"%.	c #FFF526",
"&.	c #FFF326",
"*.	c #FFF126",
"=.	c #FFEF26",
"-.	c #FFED26",
";.	c #FFEB26",
">.	c #FFE926",
",.	c #F9DF23",
"'.	c #CF9E03",
").	c #9C0403",
"!.	c #A20B07",
"~.	c #A20A06",
"{.	c #861A28",
"].	c #398EDC",
"^.	c #94CDF4",
"/.	c #C8E5F9",
"(.	c #99CEF3",
"_.	c #79BEEE",
":.	c #74BBED",
"<.	c #6FB8EA",
"[.	c #B8A63D",
"}.	c #FDF739",
"|.	c #FFFB5D",
"1.	c #FFF95D",
"2.	c #FFF63C",
"3.	c #FFF43C",
"4.	c #FFF33C",
"5.	c #FFF13C",
"6.	c #FFEF3C",
"7.	c #FFED3C",
"8.	c #FFEC3C",
"9.	c #FFEA3C",
"0.	c #FFE739",
"a.	c #D1A005",
"b.	c #9B0302",
"c.	c #DB573D",
"d.	c #FB8059",
"e.	c #FC7E56",
"f.	c #FC7B53",
"g.	c #FC7950",
"h.	c #FC764E",
"i.	c #D9725C",
"j.	c #378DDB",
"k.	c #8FCAF3",
"l.	c #C5E3F8",
"m.	c #94CCF2",
"n.	c #6FB8EB",
"o.	c #6AB4E9",
"p.	c #B6A63E",
"q.	c #FDF64E",
"r.	c #FFFBA0",
"s.	c #FFF983",
"t.	c #FFF654",
"u.	c #FFF452",
"v.	c #FFF352",
"w.	c #FFF152",
"x.	c #FFEF52",
"y.	c #FFEE52",
"z.	c #FFEC52",
"A.	c #FFEB52",
"B.	c #FFE84E",
"C.	c #D1A006",
"D.	c #A00A07",
"E.	c #F58260",
"F.	c #FF9673",
"G.	c #FF9878",
"H.	c #FF8A64",
"I.	c #FF8762",
"J.	c #FF855F",
"K.	c #DB7E6C",
"L.	c #358CDB",
"M.	c #89C7F2",
"N.	c #C2E2F7",
"O.	c #90C9F1",
"P.	c #6AB5EA",
"Q.	c #65B1E7",
"R.	c #B5A53F",
"S.	c #FDF663",
"T.	c #FFFBAE",
"U.	c #FFF893",
"V.	c #FFF569",
"W.	c #FFF468",
"X.	c #FFF368",
"Y.	c #FFF168",
"Z.	c #FFF068",
"`.	c #FFEF68",
" +	c #FFED68",
".+	c #FFEC68",
"++	c #FFE963",
"@+	c #D1A108",
"#+	c #F68B6C",
"$+	c #FFBFAA",
"%+	c #FFB8A1",
"&+	c #FF9574",
"*+	c #FF9270",
"=+	c #FF8F6D",
"-+	c #DB8779",
";+	c #338ADA",
">+	c #A0D1F3",
",+	c #83C2EE",
"'+	c #64B2E9",
")+	c #60AEE6",
"!+	c #B4A43D",
"~+	c #FDF22F",
"{+	c #FFF882",
"]+	c #FFF45B",
"^+	c #FFF13D",
"/+	c #FFF365",
"(+	c #FFF37D",
"_+	c #FFF27E",
":+	c #FFF17E",
"<+	c #FFF07E",
"[+	c #FFEF7E",
"}+	c #FFED7D",
"|+	c #FFE44A",
"1+	c #D1A003",
"2+	c #A10B08",
"3+	c #F69478",
"4+	c #FFC9B8",
"5+	c #FFBFAB",
"6+	c #FFA083",
"7+	c #FF9D7F",
"8+	c #FF9B7D",
"9+	c #E39383",
"0+	c #2A84D8",
"a+	c #69B5EA",
"b+	c #64B2E8",
"c+	c #5FAEE7",
"d+	c #5AABE4",
"e+	c #B2A238",
"f+	c #FCED00",
"g+	c #FFF777",
"h+	c #FFF249",
"i+	c #FFEB02",
"j+	c #FFE904",
"k+	c #FFE921",
"l+	c #FFED5A",
"m+	c #FFF080",
"n+	c #FFF08A",
"o+	c #FFED77",
"p+	c #FFE234",
"q+	c #FFD902",
"r+	c #D19F00",
"s+	c #F79073",
"t+	c #FFBDA8",
"u+	c #FFB19A",
"v+	c #FFA98F",
"w+	c #FFA78D",
"x+	c #FCA48C",
"y+	c #537DB9",
"z+	c #348CDB",
"A+	c #3C92DD",
"B+	c #3991DC",
"C+	c #378FDC",
"D+	c #348DDB",
"E+	c #318CDA",
"F+	c #2F8AD8",
"G+	c #A89A35",
"H+	c #FCEB00",
"I+	c #FFF577",
"J+	c #FFF049",
"K+	c #FFE902",
"L+	c #FFE700",
"M+	c #FFE400",
"N+	c #FFE200",
"O+	c #FFE006",
"P+	c #FFDE09",
"Q+	c #FFDC04",
"R+	c #FFD900",
"S+	c #FFD600",
"T+	c #A00704",
"U+	c #F55F35",
"V+	c #FFA58A",
"W+	c #FF9575",
"X+	c #FF6334",
"Y+	c #FF7146",
"Z+	c #FF9172",
"`+	c #FFAF99",
" @	c #F9AE9B",
".@	c #C59FA5",
"+@	c #B597A4",
"@@	c #B56869",
"#@	c #B54F49",
"$@	c #722843",
"%@	c #BE9B12",
"&@	c #FCE900",
"*@	c #FFF477",
"=@	c #FFEF49",
"-@	c #FFE702",
";@	c #FFE000",
">@	c #FFDE00",
",@	c #FFDB00",
"'@	c #FFD700",
")@	c #FFD400",
"!@	c #F55B31",
"~@	c #FFA387",
"{@	c #FF9373",
"]@	c #FF5E2F",
"^@	c #FF5828",
"/@	c #FF5525",
"(@	c #FF5A2C",
"_@	c #FF7048",
":@	c #FF724B",
"<@	c #FF5628",
"[@	c #FF4513",
"}@	c #FF4210",
"|@	c #A80902",
"1@	c #D0A000",
"2@	c #FCE700",
"3@	c #FFF377",
"4@	c #FFED49",
"5@	c #FFE502",
"6@	c #FFD200",
"7@	c #D19E00",
"8@	c #A00703",
"9@	c #F5592D",
"0@	c #FFA185",
"a@	c #FF9170",
"b@	c #FF5B2B",
"c@	c #FF5221",
"d@	c #FF4F1E",
"e@	c #FF4C1B",
"f@	c #FF4817",
"g@	c #FF3E0C",
"h@	c #A80901",
"i@	c #FCE500",
"j@	c #FFEF59",
"k@	c #FFEB44",
"l@	c #FFE201",
"m@	c #FFCF00",
"n@	c #A00603",
"o@	c #F5562B",
"p@	c #FFA084",
"q@	c #FF8F6E",
"r@	c #FF5728",
"s@	c #FF3B09",
"t@	c #A80801",
"u@	c #D09F00",
"v@	c #FBE200",
"w@	c #FFE503",
"x@	c #FFE307",
"y@	c #FFD500",
"z@	c #FFD000",
"A@	c #FECD00",
"B@	c #F55328",
"C@	c #FF9677",
"D@	c #FF8C6B",
"E@	c #FF5424",
"F@	c #FF3F0C",
"G@	c #FF3806",
"H@	c #A80800",
"I@	c #CD9A00",
"J@	c #E6BF00",
"K@	c #F5D500",
"L@	c #F6D300",
"M@	c #F6D100",
"N@	c #F6CF00",
"O@	c #F6CE00",
"P@	c #F6CC00",
"Q@	c #F6CA00",
"R@	c #F6C800",
"S@	c #F6C600",
"T@	c #F5C400",
"U@	c #E8B500",
"V@	c #F55024",
"W@	c #FF5E30",
"X@	c #FF6237",
"Y@	c #FF4917",
"Z@	c #FF3F0D",
"`@	c #FF3502",
" #	c #A80700",
".#	c #CC9900",
"+#	c #9B0201",
"@#	c #DA3717",
"##	c #FB4F20",
"$#	c #FC4C1D",
"%#	c #FC491A",
"&#	c #FC4617",
"*#	c #FC4313",
"=#	c #FC4010",
"-#	c #FC3D0C",
";#	c #FC3909",
">#	c #FC3606",
",#	c #FC3302",
"'#	c #E92800",
")#	c #9F0300",
"!#	c #9C0301",
"~#	c #A20703",
"{#	c #A20702",
"]#	c #A20602",
"^#	c #A20601",
"/#	c #A20501",
"(#	c #A20500",
"_#	c #9E0200",
":#	c #2C63B6",
"<#	c #619DD9",
"[#	c #649FDA",
"}#	c #67A1DB",
"|#	c #538ACD",
"1#	c #01359A",
"2#	c #487DC5",
"3#	c #73A8DE",
"4#	c #75A9DE",
"5#	c #70A3DA",
"6#	c #3C6EBC",
"7#	c #03379C",
"8#	c #02369B",
"9#	c #04389C",
"0#	c #003399",
"a#	c #3C75C1",
"b#	c #6AA7DF",
"c#	c #093D9F",
"d#	c #083C9E",
"e#	c #073A9D",
"f#	c #6499D6",
"g#	c #6196D4",
"h#	c #02359A",
"i#	c #487BC3",
"j#	c #A1D1F6",
"k#	c #1547A5",
"l#	c #3181CD",
"m#	c #1351AD",
"n#	c #2E75C4",
"o#	c #3279C6",
"p#	c #1B56AF",
"q#	c #4389D0",
"r#	c #01349A",
"s#	c #3978C4",
"t#	c #3A79C5",
"u#	c #4684CB",
"v#	c #3671BF",
"w#	c #68A5DE",
"x#	c #0A3EA0",
"y#	c #0C40A1",
"z#	c #5E93D2",
"A#	c #3D70BD",
"B#	c #78AADE",
"C#	c #2670C1",
"D#	c #2267BC",
"E#	c #03379B",
"F#	c #357FCB",
"G#	c #3F8AD1",
"H#	c #2E6FC0",
"I#	c #3172C1",
"J#	c #0C42A2",
"K#	c #599EDB",
"L#	c #4281C9",
"M#	c #589AD8",
"N#	c #05399D",
"O#	c #82C1EF",
"P#	c #659FDA",
"Q#	c #669FDA",
"R#	c #386EBC",
"S#	c #8FC5EF",
"T#	c #6598D5",
"U#	c #8DC0EB",
"V#	c #4C7EC5",
"W#	c #0A3D9F",
"X#	c #1555B0",
"Y#	c #317FCB",
"Z#	c #104BA8",
"`#	c #1F60B7",
" $	c #2A6CBE",
".$	c #114BA8",
"+$	c #4188CF",
"@$	c #1953AE",
"#$	c #2F6BBC",
"$$	c #71B9EC",
"%$	c #265FB4",
"&$	c #65A2DC",
"*$	c #013499",
"=$	c #5D91D1",
"-$	c #0C3FA0",
";$	c #90C0EC",
">$	c #4C7DC4",
",$	c #0840A1",
"'$	c #3A8CD4",
")$	c #307AC7",
"!$	c #0F49A7",
"~$	c #1550AC",
"{$	c #377FCA",
"]$	c #4B96D8",
"^$	c #0D43A3",
"/$	c #579CDA",
"($	c #3F7DC7",
"_$	c #5DA0DC",
":$	c #083C9F",
"<$	c #63A0DB",
"[$	c #1043A2",
"}$	c #92C2ED",
"|$	c #5283C7",
"1$	c #2D78C7",
"2$	c #3887D0",
"3$	c #04399D",
"4$	c #4996D9",
"5$	c #3478C5",
"6$	c #3979C4",
"7$	c #3573C1",
"8$	c #3974C1",
"9$	c #366EBD",
"0$	c #5894D3",
"a$	c #598ECF",
"b$	c #84BAE8",
"c$	c #6FA2DB",
"d$	c #80B2E3",
"e$	c #6698D4",
"f$	c #1143A3",
"g$	c #03389C",
"h$	c #043A9D",
"i$	c #063B9E",
"j$	c #073C9E",
"k$	c #05389C",
"l$	c #083B9E",
"m$	c #0C40A0",
"n$	c #0D40A0",
"o$	c #0B3E9F",
"                                                                ",
"                                                                ",
"                  . + @ # $ % & * = - ; > ,                     ",
"                  ' ) ! ~ { ] ^ / ( _ : < [                     ",
"                  } | 1 2 3 4 5 6 7 8 9 0 a                     ",
"                  b c d e f g h i j k l m n                     ",
"                  o p q r s t u v w x y z A                     ",
"                  B C D E F G H I J K L M N O P Q R R S T U     ",
"                  V W X Y Z ` <  ...+.@.#.$.%.&.*.=.-.;.>.,.'.  ",
"    ).!.!.!.!.~.{.].^./.(.` _.:.<.[.}.|.1.2.3.4.5.6.7.8.9.0.a.  ",
"  b.c.d.e.f.g.h.i.j.k.l.m._.:.n.o.p.q.r.s.t.u.v.w.x.y.z.A.B.C.  ",
"  D.E.F.G.H.I.J.K.L.M.N.O.:.n.P.Q.R.S.T.U.V.W.X.Y.Z.`. +.+++@+  ",
"  D.#+$+%+&+*+=+-+;+` >+,+n.P.'+)+!+~+{+]+^+/+(+_+:+<+[+}+|+1+  ",
"  2+3+4+5+6+7+8+9+0+_.:.n.a+b+c+d+e+f+g+h+i+j+k+l+m+n+o+p+q+r+  ",
"  2+s+t+u+6+v+w+x+y+z+A+B+C+D+E+F+G+H+I+J+K+L+M+N+O+P+Q+R+S+r+  ",
"  T+U+V+W+X+Y+Z+`+ @.@+@@@#@$@    %@&@*@=@-@M+N+;@>@,@R+'@)@r+  ",
"  T+!@~@{@]@^@/@(@_@:@<@[@}@|@    1@2@3@4@5@N+;@>@,@R+'@)@6@7@  ",
"  8@9@0@a@b@/@c@d@e@f@[@}@g@h@    1@i@j@k@l@;@>@,@R+'@)@6@m@7@  ",
"  n@o@p@q@r@c@d@e@f@[@}@g@s@t@    u@v@w@x@;@>@,@R+'@y@6@z@A@7@  ",
"  n@B@C@D@E@d@e@f@[@}@F@s@G@H@    I@J@K@L@M@N@O@P@Q@R@S@T@U@I@  ",
"  n@V@W@X@d@e@Y@[@}@Z@s@G@`@ #        .#.#.#.#.#.#.#.#.#.#      ",
"  +#@###$#%#&#*#=#-#;#>#,#'#)#                                  ",
"    !#~#~#{#]#]#^#^#/#(#(#_#                                    ",
"                                    :#<#[#}#|#1#2#3#4#5#6#      ",
"      7#    8#8#    9#0#9#      9#  a#b#c#d#e#  f#g#h#i#j#k#    ",
"    7#l#m#  n#o#  p#q#r#s#t#h#u#v#  a#w#x#y#e#  f#z#e#A#B#      ",
"      C#D#E#F#G#1#H#I#  J#K#L#M#N#  a#O#P#Q#R#  f#S#T#U#V#W#    ",
"      X#Y#Z#`# $.$+$@$    #$$$%$    a#&$*$      f#=$0#-$;$>$    ",
"      ,$'$)$!$~${$]$N#  ^$/$($_$:$  a#<$        f#=$0#[$}$|$    ",
"        1$2$3$8#4$5$    6$7$1#u#8$  9$0$        a$b$c$d$e$f$    ",
"        g$h$    i$9#    j$      d#  k$l$        l$m$n$o$        ",
"                                                                "};
