/* XPM */
static char * talign_xpm[] = {
"22 22 6 1",
" 	c None",
".	c #1F2576",
"+	c #0012FF",
"@	c #6F0000",
"#	c #F36666",
"$	c #A91919",
"                      ",
"  ..................  ",
" .++++++++++++++++++. ",
" .+................+. ",
" .+.      @       .+. ",
" .+.     #$@      .+. ",
" .+.    #$$$@     .+. ",
" .+.   #$$$$$@    .+. ",
" .+.     #$@      .+. ",
" .+.     #$@      .+. ",
" .+.     #$@      .+. ",
" .+.     #$@      .+. ",
" .+.     #$@      .+. ",
" .+.              .+. ",
" .+.              .+. ",
" .+.              .+. ",
" .+.              .+. ",
" .+.              .+. ",
" .+................+. ",
" .++++++++++++++++++. ",
"  ..................  ",
"                      "};
