/* XPM */ 
static const unsigned char * grid_bag_sizer_xpm[] = {
"21 21 5 1",
" 	c None",
"!	c black",
"#	c #0000FF",
"$	c #4949FF",
"%	c #9B9BFF",
"                     ",
"  #################  ",
" #$%%%%%%$#$%%%%%%$# ",
" #%      %#%      %# ",
" #%      %#%      %# ",
" #%      %#$%%%%%%$# ",
" #%      %########## ",
" #%      %#$%%%%%%$# ",
" #%      %#%      %# ",
" #$%%%%%%$#%      %# ",
" ##########%      %# ",
" #$%%%%%%$#%      %# ",
" #%      %#%      %# ",
" #%      %#$%%%%%%$# ",
" #%      %########## ",
" #%      %#$%%%%%%$# ",
" #%      %#%      %# ",
" #%      %#%      %# ",
" #$%%%%%%$#$%%%%%%$# ",
"  #################  ",
"                     "};