/* XPM */
static char * sizer_2_xpm[] = {
"21 21 4 1",
" 	c None",
".	c #0000FF",
"+	c #4949FF",
"@	c #9B9BFF",
"                     ",
"  .................  ",
" .+@@@@@@@@@@@@@@@+. ",
" .@               @. ",
" .@               @. ",
" .@               @. ",
" .+@@@@@@@@@@@@@@@+. ",
" ................... ",
" .+@@@@@@@@@@@@@@@+. ",
" .@               @. ",
" .@               @. ",
" .@               @. ",
" .+@@@@@@@@@@@@@@@+. ",
" ................... ",
" .+@@@@@@@@@@@@@@@+. ",
" .@               @. ",
" .@               @. ",
" .@               @. ",
" .+@@@@@@@@@@@@@@@+. ",
"  .................  ",
"                     "};
