/* XPM */ 
static const unsigned char * staticbox_sizer_xpm[] = {
"21 21 7 1",
" 	c None",
"!	c black",
"#	c #003399",
"$	c #B7B79B",
"%	c #0000FF",
"&	c #4949FF",
"'	c #9B9BFF",
"                     ",
"      #####          ",
"   $$ ##### $$$$$$$  ",
"  $                $ ",
" $  %%%%%%%%%%%%%%  $",
" $ %&''''''''''''&% $",
" $ %'            '% $",
" $ %'            '% $",
" $ %'            '% $",
" $ %&''''''''''''&% $",
" $ %%%%%%%%%%%%%%%% $",
" $ %&''''''''''''&% $",
" $ %'            '% $",
" $ %'            '% $",
" $ %'            '% $",
" $ %&''''''''''''&% $",
" $  %%%%%%%%%%%%%%  $",
"  $                $ ",
"   $$$$$$$$$$$$$$$$  ",
"                     ",
"                     "};