/* XPM */ 
static const unsigned char * stddialogbuttonsizer_xpm[] = {
"21 21 24 1",
" 	c None",
"!	c black",
"#	c #0000FF",
"$	c #4949FF",
"%	c #9B9BFF",
"&	c #002692",
"'	c #E2F2FE",
"(	c #FEFFFF",
")	c #FCFFFF",
"*	c white",
"+	c #5D5E5A",
",	c #DCECF7",
"-	c #FAFDFE",
".	c #EDFFFE",
"0	c #D3F2FF",
"1	c #E9F8FD",
"2	c #E1F1FC",
"3	c #DFF0FD",
"4	c #F2FDFE",
"5	c #D5EEFE",
"6	c #CFE7F7",
"7	c #D5F5FF",
"8	c #DCFBFF",
"9	c #D6EFFA",
"                     ",
"                     ",
" ################### ",
"#$%%%%%%%%%%%%%%%%%$#",
"#                  %#",
"#                  %#",
"#  &&&&&&&&&&&&&&  %#",
"# &''''''''''''''& %#",
"# &()**++*+*+(()*& %#",
"# &',-+..++0+1234& %#",
"# &56.+..+++33333& %#",
"# &7089++9+9+9999& %#",
"# &66666666666666& %#",
"#  &&&&&&&&&&&&&&  %#",
"#                  %#",
"#                  %#",
"#$%%%%%%%%%%%%%%%%%$#",
" ################### ",
"                     ",
"                     ",
"                     "};