/* XPM */ 
static const unsigned char * wxwin16x16_xpm[] = {
"16 16 140 2",
"  	c None",
"! 	c black",
"# 	c #3489D9",
"$ 	c #65AAE7",
"% 	c #60A7E5",
"& 	c #5CA4E4",
"' 	c #57A1E3",
"( 	c #529FE2",
") 	c #4798DE",
"* 	c #66A9E5",
"+ 	c #C8E7FC",
", 	c #B4DDF9",
"- 	c #AAD8F7",
". 	c #A3D3F5",
"0 	c #9CCFF3",
"1 	c #93C9F0",
"2 	c #1C7AD2",
"3 	c #6AABE6",
"4 	c #D7EDFB",
"5 	c #BEE1F8",
"6 	c #B6DCF7",
"7 	c #B0D9F5",
"8 	c #ABD2E9",
"9 	c #A5CCDF",
": 	c #377EB6",
"; 	c #54A0E2",
"< 	c #BBDFF8",
"= 	c #96CDF3",
"> 	c #A1D1F4",
"? 	c #B9CFCA",
"@ 	c #E6D01F",
"A 	c #EED918",
"B 	c #EED718",
"C 	c #EED418",
"D 	c #EED218",
"E 	c #EED018",
"F 	c #E0B80F",
"G 	c #B5251A",
"H 	c #CF452F",
"I 	c #CE412B",
"J 	c #CE3F29",
"K 	c #5A92CE",
"L 	c #B4DBF7",
"M 	c #83C3F0",
"N 	c #74BBED",
"O 	c #8BAD9E",
"P 	c #FBF44E",
"Q 	c #FFF868",
"R 	c #FFF445",
"S 	c #FFF145",
"T 	c #FFEE45",
"U 	c #FFEB45",
"V 	c #EDCC2A",
"W 	c #D4563F",
"X 	c #FFA385",
"Y 	c #FF8B67",
"Z 	c #FF8661",
"[ 	c #5D96D1",
"] 	c #A9D6F4",
"^ 	c #79BDED",
"_ 	c #6BB5EA",
"` 	c #85A99C",
"a 	c #FBF26B",
"b 	c #FFF781",
"c 	c #FFF46A",
"d 	c #FFF26D",
"e 	c #FFEF6D",
"f 	c #FFED6D",
"g 	c #EDCD3E",
"h 	c #D55F4D",
"i 	c #FFC6B4",
"j 	c #FFA082",
"k 	c #FF9B7D",
"l 	c #5A92CD",
"m 	c #73BAEC",
"n 	c #68B4E9",
"o 	c #5FAEE7",
"p 	c #7DA39A",
"q 	c #FBEC27",
"r 	c #FFF143",
"s 	c #FFEA10",
"t 	c #FFEB44",
"u 	c #FFEC68",
"v 	c #FFE64B",
"w 	c #EDC307",
"x 	c #D4432B",
"y 	c #FFA589",
"z 	c #FF764D",
"{ 	c #FF9273",
"| 	c #D0A0A0",
"} 	c #9587A2",
"~ 	c #92596A",
" !	c #3C4A8B",
"!!	c #708563",
"#!	c #FBE926",
"$!	c #FFEE43",
"%!	c #FFE500",
"&!	c #FFE100",
"'!	c #FFDC00",
"(!	c #FFD800",
")!	c #EDC000",
"*!	c #D43A1E",
"+!	c #FF9E82",
",!	c #FF5A2A",
"-!	c #FF5222",
".!	c #FF4E1D",
"0!	c #FF4715",
"1!	c #FB3E0E",
"2!	c #9E0200",
"3!	c #CA9900",
"4!	c #FBE51B",
"5!	c #FFEA3C",
"6!	c #FFD400",
"7!	c #EDBD00",
"8!	c #D4371B",
"9!	c #FF987B",
":!	c #FF5424",
";!	c #FF4C1B",
"<!	c #FF400E",
"=!	c #FB3808",
">!	c #F0CF00",
"?!	c #FADA01",
"@!	c #FAD600",
"A!	c #FAD200",
"B!	c #FACE00",
"C!	c #FACB00",
"D!	c #E5B400",
"E!	c #D12F14",
"F!	c #FE592B",
"G!	c #FF4615",
"H!	c #FF3A08",
"I!	c #F63002",
"J!	c #9B0000",
"K!	c #AF1105",
"L!	c #AF0F05",
"M!	c #AF0F03",
"N!	c #AF0D01",
"O!	c #AF0B01",
"P!	c #A70600",
"Q!	c #90B5FF",
"        # $ % & ' ( )           ",
"        * + , - . 0 1 2         ",
"        3 4 5 6 7 8 9 :         ",
"        ; < = > ? @ A B C D E F ",
"G H I J K L M N O P Q R S T U V ",
"W X Y Z [ ] ^ _ ` a b c d e f g ",
"h i j k l m n o p q r s t u v w ",
"x y z { | } ~  !!!#!$!%!&!'!(!)!",
"*!+!,!-!.!0!1!2!3!4!5!&!'!(!6!7!",
"8!9!:!;!0!<!=!2!  >!?!@!A!B!C!D!",
"E!F!;!G!<!H!I!J!                ",
"  K!L!M!N!O!P!      ! ! ! ! !   ",
"                    ! Q!  ! Q!! ",
"! Q!    ! Q!! Q!! Q!! ! Q!! ! Q!",
"! Q!! Q!! Q!  ! Q!  ! Q!  ! Q!! ",
"  ! Q!! Q!  ! Q!! Q!! Q!  ! ! Q!"};