/* XPM */
static char * generate_xpm[] = {
"16 16 6 1",
" 	c None",
".	c #000080",
"+	c #FFFFFF",
"@	c #000000",
"#	c #C0C0C0",
"$	c #0000FF",
"                ",
"                ",
"              . ",
"             .+ ",
"            .+. ",
"           .+.. ",
"          .+... ",
" @@@@@@@ .+...  ",
" @+++++#.+...   ",
" @++++#.+...    ",
" @+++#.+...     ",
" @+++#....      ",
" @++#.+..       ",
" @++#$$         ",
" @@#$           ",
"                "};
