/* XPM */ 
static char * redo_xpm[] = {
"22 22 78 1",
" 	c None",
"!	c black",
"#	c #788600",
"$	c #859119",
"%	c #D7E385",
"&	c #D1DF6C",
"'	c #C8DA50",
"(	c #8B9203",
")	c #D1DF69",
"*	c #BCD120",
"+	c #C7D948",
",	c #97A020",
"-	c #AFB952",
".	c #C8D371",
"0	c #D5E084",
"1	c #D5E277",
"2	c #D3E271",
"3	c #BAD119",
"4	c #AAC108",
"5	c #C0CE5A",
"6	c #CADA61",
"7	c #B2C910",
"8	c #B9D112",
"9	c #A2B709",
":	c #A4BA09",
";	c #CEDD6B",
"<	c #C7D94A",
"=	c #BCD124",
">	c #B3C916",
"?	c #8F9803",
"@	c #949F1E",
"A	c #BBD11D",
"B	c #A2B708",
"C	c #B8C559",
"D	c #BED22C",
"E	c #C0D52F",
"F	c #C7DA4A",
"G	c #CEDD68",
"H	c #CEDD66",
"I	c #CCDC5D",
"J	c #A8BE08",
"K	c #A6BA1D",
"L	c #C7D36E",
"M	c #BFD336",
"N	c #C0D148",
"O	c #A2B316",
"P	c #CCDC59",
"Q	c #CCD971",
"R	c #C1D341",
"S	c #A6B437",
"T	c #808D00",
"U	c #D1DD77",
"V	c #CCD86C",
"W	c #8F9F10",
"X	c #CADA5A",
"Y	c #C1CF52",
"Z	c #C8D65C",
"[	c #8C9904",
"]	c #A7B432",
"^	c #C0CF42",
"_	c #8A9301",
"`	c #94A303",
"a	c #BFCD46",
"b	c #BACA29",
"c	c #8C9D02",
"d	c #898E01",
"e	c #878C03",
"f	c #B4C708",
"g	c #8D9B02",
"h	c #8D8F02",
"i	c #A4B407",
"j	c #96A405",
"k	c #828804",
"l	c #818B02",
"m	c #868D04",
"n	c #7B8400",
"o	c #879002",
"p	c #7D8600",
"            #         ",
"            $#        ",
"            #%#       ",
"            #&'#      ",
"        (####)*+#     ",
"       #,-.01234+#    ",
"      #56783*339:+#   ",
"     $;<83*33=>9::)#  ",
"    ?@&A33333*4B:+$   ",
"    $CDEF'GHHIJK+$    ",
"    $LMNO####PK+#     ",
"    #QRST   #)+#      ",
"    #UVW    #X#       ",
"    #YZ#    ##        ",
"    []^#    #         ",
"    _`a#              ",
"     #bcd             ",
"     e#fg             ",
"      h#ij            ",
"        klm           ",
"          nop         ",
"                      "};