/* XPM */
static char * right_xpm[] = {
"22 22 3 1",
" 	c None",
".	c #0066cc",
"X	c #ff3500",
"                      ",
" .. .. .. .. .. .. XX ",
" .. .. .. .. .. .. XX ",
"                   XX ",
" ..                XX ",
" ..                XX ",
"                   XX ",
" ..                XX ",
" ..                XX ",
"                   XX ",
" ..                XX ",
" ..                XX ",
"                   XX ",
" ..                XX ",
" ..                XX ",
"                   XX ",
" ..                XX ",
" ..                XX ",
"                   XX ",
" .. .. .. .. .. .. XX ",
" .. .. .. .. .. .. XX ",
"                      "};
