/* XPM */
static char * tutorial_xpm[] = {
"16 16 7 1",
" 	c None",
".	c #000000",
"+	c #FFFFFF",
"@	c #FFFF00",
"#	c #000080",
"$	c #C0C0C0",
"%	c #808080",
"                ",
"     ......     ",
"   ..++@+@+..   ",
"  .@+@####+@+.  ",
"  .++##@$##++.  ",
" .+@+#%++##@++. ",
" .+++@+@%#%++@. ",
" .+@+++%#++@++. ",
" .+++@+#%@+++@. ",
"  .@+++@+++@+.  ",
"  .++@+##@+++.  ",
"   .+++@+++..   ",
"   .+@.....     ",
"   .+.          ",
"   ..           ",
"   .            "};
