/* XPM */ 
static char * undo_xpm[] = {
"22 22 94 2",
"  	c None",
"! 	c black",
"# 	c #BDA822",
"$ 	c #C4A000",
"% 	c #FBE847",
"& 	c #FBE425",
"' 	c #FBE52B",
"( 	c #F6E344",
") 	c #FBE84E",
"* 	c #BD9B00",
"+ 	c #B59600",
", 	c #FAE006",
"- 	c #F8E757",
". 	c #FBE846",
"0 	c #FAE31C",
"1 	c #FBE31F",
"2 	c #F0D61D",
"3 	c #DFC10A",
"4 	c #B89A00",
"5 	c #F2DF47",
"6 	c #F9DF05",
"7 	c #FAE216",
"8 	c #DFC203",
"9 	c #BDA723",
": 	c #F1DF44",
"; 	c #F3E049",
"< 	c #F3E14C",
"= 	c #EEDB3F",
"> 	c #D6C004",
"? 	c #E1CC1F",
"@ 	c #EBD304",
"A 	c #DAC003",
"B 	c #BA9A00",
"C 	c #F3E044",
"D 	c #E9D532",
"E 	c #DAC404",
"F 	c #EFD91F",
"G 	c #B89B00",
"H 	c #B69800",
"I 	c #E4CE1F",
"J 	c #FBE73D",
"K 	c #F3DF34",
"L 	c #E8D31C",
"M 	c #E0C70A",
"N 	c #E1CB0B",
"O 	c #E1CC14",
"P 	c #C6B029",
"Q 	c #BD9C00",
"R 	c #C2A20C",
"S 	c #DAC304",
"T 	c #B69F0C",
"U 	c #CEB828",
"V 	c #DDC80D",
"W 	c #E1CD1A",
"X 	c #D2BD1D",
"Y 	c #BB9C07",
"Z 	c #A49214",
"[ 	c #BEA514",
"] 	c #D4BD24",
"^ 	c #DEC917",
"_ 	c #D5C015",
"` 	c #B69A0B",
"a 	c #B9A214",
"b 	c #E5D226",
"c 	c #DAC612",
"d 	c #BC9D06",
"e 	c #BBA011",
"f 	c #EDD92C",
"g 	c #988917",
"h 	c #BEA110",
"i 	c #EFDB31",
"j 	c #CEBC22",
"k 	c #B39706",
"l 	c #B59F17",
"m 	c #F0DF3C",
"n 	c #C1A909",
"o 	c #AE9307",
"p 	c #9B840F",
"q 	c #C2AC18",
"r 	c #EADB41",
"s 	c #A59007",
"t 	c #9A8000",
"u 	c #BFAA1A",
"v 	c #E3D010",
"w 	c #978602",
"x 	c #816F01",
"y 	c #BAA712",
"z 	c #CDB80E",
"{ 	c #968503",
"| 	c #7C6600",
"} 	c #8D7C08",
"~ 	c #958305",
" !	c #8A7901",
"!!	c #A88F05",
"              # $                           ",
"              $ $                           ",
"            $ % $                           ",
"          $ & ' $                           ",
"        $ & ( ) $ $ * +                     ",
"      $ & , - . 0 1 2 3 4 $                 ",
"    $ & 5 - - - - - - 6 7 8 $               ",
"9 $ & : ; - - - - < = > ? @ A B             ",
"    $ & ; C < D > > > > > E F G H           ",
"      $ & I > & J J K L M N O P Q           ",
"        R & S & $ $ $ T U V W X Y           ",
"          $ & & $     Z [ ] ^ _ `           ",
"            $ % $         a b c d           ",
"              $ $         e f c `           ",
"              g $         h i j k           ",
"                          l m n o           ",
"                        p q r s t           ",
"                        u v w x             ",
"                      y z { |               ",
"                    } ~  !                  ",
"                  !!                        ",
"                                            "};