/* XPM */ 
static const unsigned char * doc_parent_frame_xpm[] = {
"22 22 43 1",
" 	c None",
"!	c black",
"#	c #A7C4E8",
"$	c #5E81B7",
"%	c #92B9E8",
"&	c #CEDCF1",
"'	c #A0C1EA",
"(	c #C5C8CD",
")	c #FF6444",
"*	c #6E90C0",
"+	c #668BC0",
",	c #7BA7DC",
"-	c #7AA4DB",
".	c #79A3DA",
"0	c #79A2D8",
"1	c #78A1D7",
"2	c #769FD5",
"3	c #749ED3",
"4	c #739CD1",
"5	c #729ACF",
"6	c #7097CD",
"7	c #6E95CB",
"8	c #6C94C9",
"9	c #6B91C7",
":	c #698FC4",
";	c #678DC3",
"<	c #787878",
"=	c #6387BD",
">	c #6085BA",
"?	c #5C7EB5",
"@	c #5A7CB2",
"A	c #587AB0",
"B	c #5678AD",
"C	c #5475AC",
"D	c #5373AA",
"E	c #5172A9",
"F	c #5C7EB4",
"G	c #587BB1",
"H	c #5779AE",
"I	c #5676AD",
"J	c #5475AB",
"K	c #5373A9",
"L	c #5171A9",
"                      ",
"                      ",
"#$$$$$$$$$$$$$$$$$$$$#",
"$%&&'%%%%%%%%((%(%%)#*",
"$%&&%%%%%%%%%((%(%%)%+",
"$,,-.00123345667899:;+",
"$<<<<<<<<<<<<<<<<<<<<=",
"$<<<<<<<<<<<<<<<<<<<<>",
"$<<<<<<<<<<<<<<<<<<<<$",
"$<<<<<<<<<<<<<<<<<<<<$",
"$<<<<<<<<<<<<<<<<<<<<?",
"$<<<<<<<<<<<<<<<<<<<<@",
"$<<<<<<<<<<<<<<<<<<<<A",
"$<<<<<<<<<<<<<<<<<<<<A",
"$<<<<<<<<<<<<<<<<<<<<B",
"$<<<<<<<<<<<<<<<<<<<<C",
"$<<<<<<<<<<<<<<<<<<<<D",
"$<<<<<<<<<<<<<<<<<<<<D",
"$<<<<<<<<<<<<<<<<<<<<E",
"#$$$$$$$$$$F@GGHIJJKL#",
"                      ",
"                      "};