/* XPM */ 
static const unsigned char * auinotebook_xpm[] = {
"21 21 12 1",
" 	c None",
"!	c black",
"#	c #708CBD",
"$	c #9F9F9F",
"%	c #B8B8B8",
"&	c #525252",
"'	c #C5C5C5",
"(	c #FFFBF0",
")	c #393939",
"*	c #D2D2D2",
"+	c #EBEBEB",
",	c #DDE2EC",
"                     ",
" ####################",
" #$$$$$$$$$$$$$$$$$$#",
" #%%&&&&&&&&%%%%%%%%#",
" #'&(((()()(&'''''''#",
" #*&+++++)++&*******#",
" #&&++++)+)+&&&&&&&&#",
" #$$$$$$$$$$$$$$$$$$#",
" #&&&&&&&&&&&&&&&&&&#",
" #,,,,,,,,,,,,,,,,,,#",
" #,,,,,,,,,,,,,,,,,,#",
" #,,,,,,,,,,,,,,,,,,#",
" #,,,,,,,,,,,,,,,,,,#",
" #,,,,,,,,,,,,,,,,,,#",
" #,,,,,,,,,,,,,,,,,,#",
" #,,,,,,,,,,,,,,,,,,#",
" #,,,,,,,,,,,,,,,,,,#",
" #,,,,,,,,,,,,,,,,,,#",
" #,,,,,,,,,,,,,,,,,,#",
" #,,,,,,,,,,,,,,,,,,#",
" ####################"};