/* XPM */ 
static const unsigned char * notebook_xpm[] = {
"21 21 9 1",
" 	c None",
"!	c black",
"#	c white",
"$	c #6C6C6C",
"%	c #D8D8D8",
"&	c #989898",
"'	c #DDE2EC",
"(	c #7C7C7C",
")	c #7E7E7E",
"                     ",
"                     ",
"                     ",
" ######$####$####$   ",
" #%%%%%$&&&&$&&&&$   ",
" #%%%%%$&&&&$&&&&$   ",
" #%%%%%$&&&&$&&&&$   ",
" #'''''############( ",
" #'''''''''''''''''( ",
" #'''''''''''''''''( ",
" #'''''''''''''''''( ",
" #'''''''''''''''''( ",
" #'''''''''''''''''( ",
" #'''''''''''''''''( ",
" #'''''''''''''''''( ",
" #'''''''''''''''''( ",
" #'''''''''''''''''( ",
" #(((((((((((((()((( ",
"                     ",
"                     ",
"                     "};