/* XPM */ 
static const unsigned char * splitter_window_xpm[] = {
"21 21 16 1",
" 	c None",
"!	c black",
"#	c white",
"$	c #FEFEFE",
"%	c #FBFBFB",
"&	c #FCFCFC",
"'	c #DDE2EC",
"(	c #7A7A7A",
")	c #DADADA",
"*	c #161616",
"+	c #F2F2F2",
",	c #7C7C7C",
"-	c #D9D9D9",
".	c #020202",
"0	c #D8D8D8",
"1	c #F8F8F8",
"                     ",
" ##########!######$%&",
" &'''''''''!#'''''''(",
" $'''''''''!$'''''''(",
" $'''''''''!$'''''''(",
" $'''''''''!$'''''''(",
" $'''''''''!$'''''''(",
" $'''''''''!$'''''''(",
" $'''''''''!$'''''''(",
" $'''''''''!$'''''''(",
" $'''''''''!$'''''''(",
" $'''''''''!#'''')''(",
" $'''''''''*+'''''''(",
" $'''''',,,,,'''''''(",
" $'''''',###,'''''''(",
" $'''''',&##,'')''''(",
" $'''''',###,'''''''(",
" $'''''',,,,,'''''''(",
" $-'''''''''''''''''(",
" #'''''''''.#''''''0(",
" #,,,,,,,,,!1,,,,,,,,"};