/* XPM */ 
static const unsigned char * calendar16x16_xpm[] = {
"16 16 7 1",
" 	c None",
"!	c black",
"#	c #808080",
"$	c #003CBA",
"%	c #C0C0C0",
"&	c white",
"'	c #000080",
"                ",
"                ",
"  ###########!  ",
"  $$$$$$#####!  ",
"  $$$$$$#####!  ",
"  %&%&%&%&%&%!  ",
"  %%%%%%'''%%!  ",
"  %&%&%&'&'&%!  ",
"  %%%%%%'''%%!  ",
"  %&%&%&%&%&%!  ",
"  %%%%%%%%%%%!  ",
"  %&%&%&%&%&%!  ",
"  %%%%%%%%%%%!  ",
"  !!!!!!!!!!!!  ",
"                ",
"                "};