/* XPM */ 
static const unsigned char * datepicker_xpm[] = {
"21 21 40 1",
" 	c None",
"!	c black",
"#	c #080606",
"$	c #020000",
"%	c #020202",
"&	c #010101",
"'	c #080808",
"(	c #131313",
")	c white",
"*	c #F7F7F7",
"+	c #FDFDFD",
",	c #EBEBEB",
"-	c #FCFCFC",
".	c #D4D4D4",
"0	c #070707",
"1	c #CFCFCF",
"2	c #8F8F8F",
"3	c #FBFBFB",
"4	c #040404",
"5	c #050505",
"6	c #7C7C7C",
"7	c #0C0C0C",
"8	c #090909",
"9	c #111111",
":	c #6B6B6B",
";	c #0B0B0B",
"<	c #0A0A0A",
"=	c #F6F6F6",
">	c #FEFEFE",
"?	c #030303",
"@	c #CDCDCD",
"A	c #BFBFBF",
"B	c #737373",
"C	c #787878",
"D	c #838383",
"E	c #797979",
"F	c #828282",
"G	c #888888",
"H	c #A00000",
"I	c #00006D",
" !#!$!$!$!$!%&!%'!!! ",
" ())))))))))*!+),-)% ",
" !))++++++++)%-.012! ",
" !))))))))))3!)!456& ",
" &))))))))))+7))*))! ",
" '))+++++++++!)!89:; ",
" <=>)))))))))?)@!AB< ",
" !)>)))))))))!CDEFG! ",
" 4;!&&&&&&&&&&&&&&&& ",
" FFFFFFFFFFFFFFFFFFF!",
" FHHHHHHHFFFFFFFFFFF!",
" FHHHHHHHFFFFFFFFFFF!",
" F))A))A))A))A))A))A!",
" F))A))A))A))A))A))A!",
" FAAAAAAAAIIIIAAAAAA!",
" F))A))A))I))I))A))A!",
" F))A))A))I))I))A))A!",
" FAAAAAAAAIIIIAAAAAA!",
" F))A))A))A))A))A))A!",
" F))A))A))A))A))A))A!",
" !!!!!!!!!!!!!!!!!!!!"};