/* XPM */
static char * ribbon_page_xpm[] = {
"22 22 4 1",
" 	c None",
".	c #333366",
"+	c #0066CC",
"@	c #FFFFFF",
"                      ",
"                      ",
"                      ",
"......................",
".++++++++++++++@@@@@@@",
".++++++++++++++@@@@@@@",
".++@@@@@@@@@@++@@@@@@@",
".++@@@@@@@@@@++@@@@@@@",
".++@@@@@@@@@@++@@@@@@@",
".++++++++++++++@@@@@@@",
".++++++++++++++@@@@@@@",
"......................",
".@@@@@@@@@@@@@@@@@@@@@",
".@@@@@@@@@@@@@@@@@@@@@",
".@@@@@@@@@@@@@@@@@@@@@",
".@@@@@@@@@@@@@@@@@@@@@",
"                      ",
"                      ",
"                      ",
"                      ",
"                      ",
"                      "};
