/* XPM */ 
static const unsigned char * richtextctrl_xpm[] = {
"22 22 107 2",
"  	c None",
"! 	c black",
"# 	c #3E9ADE",
"$ 	c #FCFCFC",
"% 	c #E6E6E6",
"& 	c #E4E4E4",
"' 	c #E9E9E9",
"( 	c #E3E3E3",
") 	c #E7E7E7",
"* 	c #EBEBEB",
"+ 	c #F0F0F0",
", 	c #EFEFEF",
"- 	c #DBDBDB",
". 	c #DADADA",
"0 	c #F8F8F8",
"1 	c #FDFDFD",
"2 	c #DFC269",
"3 	c #CC9900",
"4 	c #F6F6F6",
"5 	c #CECECE",
"6 	c #CACACA",
"7 	c #D0D0D0",
"8 	c #C2C2C2",
"9 	c #BBBBBB",
": 	c #F4F4F4",
"; 	c #FAFAFA",
"< 	c #FFCC00",
"= 	c #FFD00B",
"> 	c #FFD317",
"? 	c #FFDB2D",
"@ 	c #FFE03B",
"A 	c #F5F5F5",
"B 	c #CFCFCF",
"C 	c #C9C9C9",
"D 	c #C4C4C4",
"E 	c #F7F7F7",
"F 	c #FFD824",
"G 	c #FFDE38",
"H 	c #FFE54B",
"I 	c #D5D5D5",
"J 	c #DCDCDC",
"K 	c #FBFBFB",
"L 	c #FFCF08",
"M 	c #FFD314",
"N 	c #FFDE35",
"O 	c #FCE85A",
"P 	c #768300",
"Q 	c #FEFEFE",
"R 	c #FFD212",
"S 	c #FFD721",
"T 	c #FFDD32",
"U 	c #FFE345",
"V 	c #FFE854",
"W 	c #6FA22E",
"X 	c #2B9116",
"Y 	c #DEDEDE",
"Z 	c #D2D2D2",
"[ 	c #CCCCCC",
"] 	c #FFD61E",
"^ 	c #FFE241",
"_ 	c #A5BE43",
"` 	c #0E7407",
"a 	c #5BC62E",
"b 	c #C6C6C6",
"c 	c #B7B7B7",
"d 	c #B1B1B1",
"e 	c #B5B5B5",
"f 	c #BCBCBC",
"g 	c #F3F3F3",
"h 	c #FFE13E",
"i 	c #FFE851",
"j 	c #FFED64",
"k 	c #3C871C",
"l 	c #49B225",
"m 	c #54C32B",
"n 	c #BDBDBD",
"o 	c #B3B3B3",
"p 	c #C0C0C0",
"q 	c #B8B8B8",
"r 	c #D18A1A",
"s 	c #788400",
"t 	c #4ABE25",
"u 	c #E8E8E8",
"v 	c #F1F1F1",
"w 	c #ECECEC",
"x 	c #BEBEBE",
"y 	c #CBCBCB",
"z 	c #C5C5C5",
"{ 	c #D3D3D3",
"| 	c #E2E2E2",
"} 	c #A7A7A7",
"~ 	c #AFAFAF",
" !	c #ABABAB",
"!!	c #A8A8A8",
"#!	c #A4A4A4",
"$!	c #A0A0A0",
"%!	c #ACACAC",
"&!	c #A3A3A3",
"'!	c #A9A9A9",
"(!	c #AEAEAE",
")!	c #A2A2A2",
"*!	c #B9B9B9",
"+!	c #B6B6B6",
",!	c #E1E1E1",
"-!	c #DFDFDF",
".!	c #E0E0E0",
"0!	c #EEEEEE",
"    # # # # # # # # # # # # # # # # # #     ",
"    # $ % & ' ( & % ) * + , ) ( - . 0 #     ",
"    # 1 2 3 3 3 3 3 3 2 4 5 6 7 8 9 : #     ",
"    # ; 3 < < = > ? @ 3 A B 7 5 C D E #     ",
"    # 0 3 < = > F G H 3 A I J ( - I E #     ",
"    # K 3 L M F N H O P ; $ $ $ $ 0 Q #     ",
"    # K 3 R S T U V W X 0 J Y Z [ [ ; #     ",
"    # 0 3 ] T ^ V _ ` a 4 b c d e f g #     ",
"    # E 3 ? h i j k l m : n o p f q 4 #     ",
"    # E r 3 3 3 s X m t 0 , ' ' u u Q #     ",
"    # 1 ) ' ' % u + + + v w ' * * % Q #     ",
"    # 0 q n p [ 8 f 9 5 x y z 8 { | Q #     ",
"    # 4 } ~  !!!d #!$!~ %!&!'!(!D | Q #     ",
"    # 4 )! !d %!%!f ~ *!c %!o +![ ,!1 #     ",
"    # 4 -!( ( .!| g 0!, , 0!) ) * w Q #     ",
"    # 1 $ $ $ $ $ $ $ K K K K K K K ; #     ",
"    # 0 q n p [ 8 f 9 5 x y z 8 { | Q #     ",
"    # 4 } ~  !!!d #!$!~ %!&!'!(!D | Q #     ",
"    # 4 )! !d %!%!f ~ *!c %!o +![ ,!1 #     ",
"    # 4 -!( ( .!| g 0!, , 0!) ) * w Q #     ",
"    # 1 $ $ $ $ $ $ $ K K K K K K K ; #     ",
"    # # # # # # # # # # # # # # # # # #     "};