/* XPM */ 
static const unsigned char * colourpickericon_xpm[] = {
"22 22 21 1",
" 	c None",
"!	c black",
"#	c #CFD9EC",
"$	c #003399",
"%	c #FAFDFF",
"&	c #C5C5C5",
"'	c #9B0032",
"(	c #668EB0",
")	c #9CB7CF",
"*	c #EBF2F9",
"+	c #CBEBFF",
",	c #C3D9EE",
"-	c #AECCE8",
".	c #DCE9F5",
"0	c #96BCE1",
"1	c #71A5D6",
"2	c #96B3CD",
"3	c #B7B6AC",
"4	c #BA945C",
"5	c #D6BD9A",
"6	c #F9E9D0",
"                      ",
"#$$$$$$$$$$$$$$$$$$$$#",
"$%%%%%%%%%%%%%%%%%%%%$",
"$&''''''''''''''''''&$",
"$&'!'!!'!'''!'!''!''&$",
"$&!''!'!'!'!!''!'!!'&$",
"$&'!'!!'!!''!'!''!''&$",
"$&!''!'''!'((((!'!''&$",
"$&''''''''()**)(''''&$",
"$++++++++()*,,*)(++++$",
"#$$$$$$$()*,--,*)($$$#",
"        (*,----,*(    ",
"        (.011110.(    ",
"        (2.0110.2(    ",
"        3(2.00.2(43   ",
"         3(2..2(4543  ",
"          3((((456543 ",
"           33333456543",
"                345654",
"                 34543",
"                  343 ",
"                   3  "};