/* XPM */ 
static const unsigned char * custom_control_xpm[] = {
"22 22 180 2",
"  	c None",
"! 	c black",
"# 	c #626262",
"$ 	c #656565",
"% 	c #666666",
"& 	c #EDEDED",
"' 	c #ECECEC",
"( 	c #EBEBEB",
") 	c #E9E9E9",
"* 	c #E7E7E7",
"+ 	c #E5E5E5",
", 	c #E2E2E2",
"- 	c #DFDFDF",
". 	c #DDDDDD",
"0 	c #DBDBDB",
"1 	c #D9D9D9",
"2 	c #D7D7D7",
"3 	c #D8D8D8",
"4 	c #D6D6D6",
"5 	c #D3D3D3",
"6 	c #D1D1D1",
"7 	c #CDCDCD",
"8 	c #CBCBCB",
"9 	c #C6C6C6",
": 	c #C4C4C4",
"; 	c #BFBFBF",
"< 	c #BBBBBB",
"= 	c #B7B7B7",
"> 	c #B2B2B2",
"? 	c #AFAFAF",
"@ 	c #ABABAB",
"A 	c #D4D4D4",
"B 	c #CFCFCF",
"C 	c #CCCCCC",
"D 	c #C9C9C9",
"E 	c #C5C5C5",
"F 	c #C1C1C1",
"G 	c #BDBDBD",
"H 	c #B9B9B9",
"I 	c #B4B4B4",
"J 	c #B1B1B1",
"K 	c #AEAEAE",
"L 	c #A7A7A7",
"M 	c #CCCDCF",
"N 	c #9EB1D9",
"O 	c #7497DF",
"P 	c #698FDE",
"Q 	c #6A8FDC",
"R 	c #668DDC",
"S 	c #6B8ED6",
"T 	c #889DC6",
"U 	c #AEAFB2",
"V 	c #CDCED1",
"W 	c #94ACDE",
"X 	c #6E94E1",
"Y 	c #9FBAF1",
"Z 	c #C2D3F6",
"[ 	c #CFDCF7",
"] 	c #D2DFF8",
"^ 	c #ABC1ED",
"_ 	c #7392D3",
"` 	c #7793CA",
"a 	c #AAACAF",
"b 	c #9EB2DB",
"c 	c #618DE6",
"d 	c #AAC4FA",
"e 	c #D1DEF9",
"f 	c #EEF3FC",
"g 	c #EEF3FE",
"h 	c #F6F9FE",
"i 	c #EDF2FD",
"j 	c #BBCFF9",
"k 	c #658AD6",
"l 	c #7E94C0",
"m 	c #A8A8A8",
"n 	c #A4A4A4",
"o 	c #E8E8E8",
"p 	c #D0D0D0",
"q 	c #6993E7",
"r 	c #7CA2F0",
"s 	c #A8C4FC",
"t 	c #E2EAFA",
"u 	c #DAE6FE",
"v 	c #A6C3FE",
"w 	c #C1D3F9",
"x 	c #FBFCFD",
"y 	c #B1CAFD",
"z 	c #749AE8",
"{ 	c #4A79DA",
"| 	c #A5A5A5",
"} 	c #A2A2A2",
"~ 	c #E6E6E6",
" !	c #CACACA",
"!!	c #447DF1",
"#!	c #75A0F9",
"$!	c #81AAFD",
"%!	c #A7C3FD",
"&!	c #90B4FE",
"'!	c #84A9F6",
"(!	c #CBD9F5",
")!	c #E1EAFD",
"*!	c #6F9CF7",
"+!	c #4681FA",
",!	c #1C64F6",
"-!	c #A0A0A0",
".!	c #3273F8",
"0!	c #5D91FB",
"1!	c #5E93FE",
"2!	c #6898FA",
"3!	c #C4D4F6",
"4!	c #E4ECFC",
"5!	c #87ACF7",
"6!	c #4782FB",
"7!	c #3F7EFF",
"8!	c #105EFE",
"9!	c #9E9E9E",
":!	c #3374FA",
";!	c #4884FE",
"<!	c #4E88FE",
"=!	c #4D87FD",
">!	c #6F9BF3",
"?!	c #EDF2FB",
"@!	c #8FB3FB",
"A!	c #4A85FC",
"B!	c #4582FF",
"C!	c #1861F8",
"D!	c #5A8AEC",
"E!	c #3F7DFD",
"F!	c #4F88FD",
"G!	c #6092F8",
"H!	c #ADC5F7",
"I!	c #6093FC",
"J!	c #3577FD",
"K!	c #3E73DE",
"L!	c #7997D3",
"M!	c #3E7AF2",
"N!	c #5A8FFA",
"O!	c #5A90FE",
"P!	c #7EA5F4",
"Q!	c #DAE4F8",
"R!	c #85ACFD",
"S!	c #588FFE",
"T!	c #5A8EF8",
"U!	c #2B6CEE",
"V!	c #798EB9",
"W!	c #688ACF",
"X!	c #477CE9",
"Y!	c #628FEA",
"Z!	c #7CA5F8",
"[!	c #B1C9FB",
"]!	c #7EA6F8",
"^!	c #608DE8",
"_!	c #3C73E5",
"`!	c #7089BB",
"a!	c #9FA1A4",
"b!	c #718EC9",
"c!	c #5582DD",
"d!	c #3C74E6",
"e!	c #3B73E5",
"f!	c #366FE6",
"g!	c #4C79D7",
"h!	c #7D91BA",
"i!	c #A4A5A8",
"j!	c #A3A3A3",
"k!	c #E3E3E3",
"l!	c #BEBEBE",
"m!	c #B8B8B8",
"n!	c #ADADAD",
"o!	c #AAAAAA",
"p!	c #9C9C9C",
"q!	c #E1E1E1",
"r!	c #C3C3C3",
"s!	c #C0C0C0",
"t!	c #BABABA",
"u!	c #A1A1A1",
"v!	c #9F9F9F",
"w!	c #BCBCBC",
"x!	c #B6B6B6",
"y!	c #B3B3B3",
"z!	c #9D9D9D",
"                                            ",
"      # $ $ % % $ $ $ % $ $ $ % % % #       ",
"    # % & & ' ( ) * + , , - . 0 1 2 $ #     ",
"    $ & & 3 4 5 6 7 8 9 : ; < = > ? @ $     ",
"    $ ( 4 A 6 B C D E F G H I J K @ L %     ",
"    $ ( 4 A 6 M N O P Q R S T U K @ L %     ",
"    $ ( 4 A V W X Y Z [ ] ^ _ ` a @ L %     ",
"    $ ) 5 6 b c d e f g h i j k l m n %     ",
"    $ o p B q r s t u v w x y z { | } $     ",
"    $ ~ 7  !!!#!$!%!&!'!(!)!*!+!,!} -!%     ",
"    % + D 9 .!0!1!1!2!3!4!5!6!7!8!-!9!$     ",
"    $ ) 5 6 :!;!<!=!>!?!@!A!B!7!C!m n %     ",
"    $ o p B D!E!<!F!G!H!I!F!F!J!K!| } $     ",
"    $ ~ 7  !L!M!N!O!P!Q!R!S!T!U!V!} -!%     ",
"    % + D 9 : W!X!Y!Z![!]!^!_!`!a!-!9!$     ",
"    % + D 9 E F b!c!d!e!f!g!h!i!j!-!9!$     ",
"    % k!9 : F l!< m!I J n!o!L n -!9!p!$     ",
"    % q!r!s!G t!= I J K o!L n u!v!p!p!%     ",
"    # $ ; w!H x!y!J n!o!L n u!v!z!p!% #     ",
"      # $ % $ % $ % $ $ % $ % $ $ % #       ",
"                                            ",
"                                            "};