/* XPM */
static char * dataview_ctrl_xpm[] = {
"21 21 8 1",
" 	c None",
".	c #3E9ADE",
"+	c #FFFFFF",
"@	c #555753",
"#	c #FF3300",
"$	c #386093",
"%	c #FFCC00",
"&	c #1871CE",
".....................",
".++++++++++++++++++++",
".++@+++++++++++++++++",
".+@#@+$$$$$$+++++++++",
".++@+++++++++++++++++",
".++@+++++++++++++++++",
".++@+++@+++++++++++++",
".++@@@@%@+$$$$$$+++++",
".++@+++@+++++++++++++",
".++@+++@+++++++++++++",
".++@+++@+++@+++++++++",
".++@+++@@@@&@+$$$$$$+",
".++@+++@+++@+++++++++",
".++@+++@+++++++++++++",
".++@+++@+++@+++++++++",
".++@++++@@@&@+$$$$$$+",
".++@+++++++@+++++++++",
".++@+++@+++++++++++++",
".+++@@@%@+$$$$$$+++++",
".++++++@+++++++++++++",
".++++++++++++++++++++"};
