/* XPM */ 
static const unsigned char * dirpicker_xpm[] = {
"22 22 77 1",
" 	c None",
"!	c #70716F",
"#	c #6D6F6B",
"$	c #676965",
"%	c #656663",
"&	c black",
"'	c #D0D0D0",
"(	c #A6A6A5",
")	c #8E8E8D",
"*	c #5D5F5B",
"+	c #585A56",
",	c #575955",
"-	c #565854",
".	c #555753",
"0	c #686967",
"1	c #A8A8A8",
"2	c #AAAAAA",
"3	c #ADADAD",
"4	c #6480A4",
"5	c #3465A4",
"6	c #396091",
"7	c #D2D2D2",
"8	c #AFC7E3",
"9	c #A7C2E0",
":	c #9EBCDD",
";	c #89AED6",
"<	c #5F615D",
"=	c #668EB0",
">	c #9CB7CF",
"?	c #EBF2F9",
"@	c #C3D9EE",
"A	c #95B3D4",
"B	c #AECCE8",
"C	c #86A4C5",
"D	c #366196",
"E	c #88AED6",
"F	c #88ADD5",
"G	c #7C9CBE",
"H	c #386093",
"I	c #A3BFDE",
"J	c #82AAD4",
"K	c #82A9D4",
"L	c #81A9D4",
"M	c #80A8D4",
"N	c #DCE9F5",
"O	c #96BCE1",
"P	c #71A5D6",
"Q	c #6F8BAD",
"R	c #3A5D89",
"S	c #677E9C",
"T	c #A5C2E0",
"U	c #7BA5D2",
"V	c #7AA4D2",
"W	c #7AA5D2",
"X	c #96B3CD",
"Y	c #58779F",
"Z	c #3C5574",
"[	c #A5A8AA",
"]	c #758EB2",
"^	c #8DB2D9",
"_	c #73A1D0",
"`	c #73A0D0",
"a	c #72A0D0",
"b	c #B7B6AC",
"c	c #BA945C",
"d	c #436792",
"e	c #40423F",
"f	c #ADC1D4",
"g	c #94B5D7",
"h	c #6C9CCE",
"i	c #6D9CCE",
"j	c #6B9CCE",
"k	c #6B9BCE",
"l	c #D6BD9A",
"m	c #191A19",
"n	c #272926",
"o	c #F9E9D0",
"!#####$$%             ",
"#'''''''$             ",
"#()))))))*+,-..0      ",
"#'1111111111123.      ",
"$(455555555555555556  ",
"$7589999999999999995  ",
"$(5:;;;;;;;;;;;;;;95  ",
"<75:;;;;;;;====;;;:5  ",
"<(5:;;;;;;=>??>=;;:5  ",
".75:;;;;;=>?@@?>=;A5  ",
".(5:;;;;=>?@BB@?>=CD  ",
".759;;EF=?@BBBB@?=GH  ",
".(5IJKLM=NOPPPPON=QR  ",
".7STUVWV=XNOPPONX=YZ  ",
".[]^_``ab=XNOONX=cde  ",
".fghijjkkb=XNNX=clcm  ",
"n555555555b====clolc  ",
"           bbbbbclolc ",
"                bclolc",
"                 bclcb",
"                  bcb ",
"                   b  "};