/* XPM */ 
static const unsigned char * genericdir_ctrl_xpm[] = {
"21 21 7 1",
" 	c None",
"!	c black",
"#	c #3E9ADE",
"$	c #386093",
"%	c white",
"&	c #C5C5C5",
"'	c #555753",
"                     ",
" ####################",
" #$$$%!!%%!%%%%%%%%%#",
" #$&$%!%%%%%%%%%%%%%#",
" #$$$%!!%%!%%%%%%%%%#",
" #%'%%%%%%%%%%%%%%%%#",
" #%'%%%$$%%%!%%%!%!%#",
" #%'%%%$$$%!!%!%!!%%#",
" #%'%%%$$$%!%%!%!%!!#",
" #%'%%%'%%%%%%%%%%%%#",
" #%'%%%$$%%%!%%%%%!%#",
" #%'%%%$$$%!%%!%!!%%#",
" #%'%%%$$$%!%%!%!%!!#",
" #%'%%%'%%%%%%%%%%%%#",
" #%'%%%$$%%%%%%!%%%%#",
" #%'%%%$$$%!!%!!%!!!#",
" #%'%%%$$$%!%!%!%!!%#",
" #$$$%!!%%!%%%%%%%%%#",
" #$&$%!%!%%%%%%%%%%%#",
" #$$$%!!%%!%%%%%%%%%#",
" ####################"};