/* XPM */ 
static const unsigned char * htmlwin_xpm[] = {
"22 22 258 2",
"  	c None",
"! 	c black",
"# 	c #B7B7B7",
"$ 	c #BABABA",
"% 	c #B3B3B3",
"& 	c #3B3B3B",
"' 	c #313131",
"( 	c white",
") 	c #FEFEFE",
"* 	c #FCFCFC",
"+ 	c #F5F5F5",
", 	c #DDDDDD",
"- 	c #393939",
". 	c #323232",
"0 	c #FDFDFD",
"1 	c #F8F8F8",
"2 	c #B6B6B6",
"3 	c #F2F2F2",
"4 	c #D9D9D9",
"5 	c #363636",
"6 	c #2F2F2F",
"7 	c #F0F0F0",
"8 	c #D1D1D1",
"9 	c #333333",
": 	c #FFFEFD",
"; 	c #FCFCFB",
"< 	c #B2B2B2",
"= 	c #E0E0E0",
"> 	c #F6F6F6",
"? 	c #CACACA",
"@ 	c #FEFEFD",
"A 	c #EAECF4",
"B 	c #D0D5E9",
"C 	c #C3CAE3",
"D 	c #CED4E8",
"E 	c #E8EBF3",
"F 	c #AEADAC",
"G 	c #A7A7A7",
"H 	c #ABABAB",
"I 	c #979797",
"J 	c #FFFFFE",
"K 	c #EBEDF5",
"L 	c #B3BCDC",
"M 	c #B5BEDE",
"N 	c #CAD0E8",
"O 	c #CCD2E8",
"P 	c #C6CDE6",
"Q 	c #BEC5E0",
"R 	c #DFE1EA",
"S 	c #F1F0ED",
"T 	c #E4E4E4",
"U 	c #E3E3E3",
"V 	c #E6E6E6",
"W 	c #434343",
"X 	c #E2E5F0",
"Y 	c #99A4D2",
"Z 	c #D4D8EE",
"[ 	c #F2F2FB",
"] 	c #E2E5F4",
"^ 	c #D6DCEF",
"_ 	c #D3D9EE",
"` 	c #E2E6F4",
"a 	c #B6BEDF",
"b 	c #D1D6E4",
"c 	c #F7F6F3",
"d 	c #EFEFEF",
"e 	c #EBEBEB",
"f 	c #FBFBFB",
"g 	c #FAFBFA",
"h 	c #7987C3",
"i 	c #CCD0EC",
"j 	c #DEE0F3",
"k 	c #C1C9E7",
"l 	c #C6CCE8",
"m 	c #C0C8E5",
"n 	c #B5BEE1",
"o 	c #C2CAE7",
"p 	c #DDE0F2",
"q 	c #D2D6EF",
"r 	c #8895CB",
"s 	c #EEEFF5",
"t 	c #FDFDFC",
"u 	c #F7F7F7",
"v 	c #B2BAD8",
"w 	c #6F7CC5",
"x 	c #C2C8E9",
"y 	c #A7B1DC",
"z 	c #7E8ECA",
"{ 	c #8A99CF",
"| 	c #909ED1",
"} 	c #98A5D5",
"~ 	c #D5DAEE",
" !	c #D6DAF0",
"!!	c #BBC2E5",
"#!	c #909AD4",
"$!	c #A1AAD1",
"%!	c #F9F9F9",
"&!	c #5E6EAF",
"'!	c #344AA7",
"(!	c #8B98D1",
")!	c #8896CF",
"*!	c #6F80C3",
"+!	c #5C70BA",
",!	c #576CB8",
"-!	c #8493CC",
".!	c #F7F7FD",
"0!	c #C2C7E9",
"1!	c #8590D2",
"2!	c #4E60AF",
"3!	c #F5F5F4",
"4!	c #414141",
"5!	c #FAF9F5",
"6!	c #31469A",
"7!	c #0F2A93",
"8!	c #2F47A3",
"9!	c #9CA6D8",
":!	c #B3BBE1",
";!	c #556AB6",
"<!	c #3951AA",
"=!	c #A7B1DA",
">!	c #B7BEE3",
"?!	c #B9BFE6",
"@!	c #7581CB",
"A!	c #2A409C",
"B!	c #E5E6E9",
"C!	c #F6F5F5",
"D!	c #F5F4EF",
"E!	c #2D4296",
"F!	c #0C2792",
"G!	c #1B3598",
"H!	c #707FC4",
"I!	c #CCD0EE",
"J!	c #C8CDEA",
"K!	c #8D9ACE",
"L!	c #A6B1DA",
"M!	c #243DA2",
"N!	c #6374BF",
"O!	c #A9B0E1",
"P!	c #5F70BE",
"Q!	c #152E90",
"R!	c #E3E4E7",
"S!	c #F4F3F2",
"T!	c #404040",
"U!	c #F8F7F1",
"V!	c #495B9D",
"W!	c #052290",
"X!	c #3D53AA",
"Y!	c #A9B0DF",
"Z!	c #C4CAE9",
"[!	c #6B7CBF",
"]!	c #7484C6",
"^!	c #4358B2",
"_!	c #596ABC",
"`!	c #949CD9",
"a!	c #6474C1",
"b!	c #32479C",
"c!	c #E8E8E7",
"d!	c #F3F3F3",
"e!	c #FCFBF5",
"f!	c #818AB0",
"g!	c #0F2B95",
"h!	c #031F8C",
"i!	c #384EA7",
"j!	c #CACEEC",
"k!	c #B7BFE1",
"l!	c #3B52AA",
"m!	c #485DB2",
"n!	c #475CB2",
"o!	c #384EA9",
"p!	c #5767BA",
"q!	c #354DAA",
"r!	c #616EA0",
"s!	c #F7F6F0",
"t!	c #3E3E3E",
"u!	c #F1F1F0",
"v!	c #D0D1D2",
"w!	c #22388C",
"x!	c #19359C",
"y!	c #344BA8",
"z!	c #D1D5EE",
"{!	c #C4CBE6",
"|!	c #6677C0",
"}!	c #5669B8",
"~!	c #3950AA",
" #	c #2842A1",
"!#	c #2640A2",
"##	c #2F4599",
"$#	c #BCBEC6",
"%#	c #F5F4F3",
"&#	c #E7E7E7",
"'#	c #E9E9EA",
"(#	c #F2F1EE",
")#	c #989BAB",
"*#	c #213892",
"+#	c #5A6DBF",
",#	c #939FD5",
"-#	c #7181C4",
".#	c #7D8BCA",
"0#	c #7485C7",
"1#	c #677AC4",
"2#	c #334AA0",
"3#	c #7B829E",
"4#	c #F1F0EB",
"5#	c #EBECEC",
"6#	c #3C3C3C",
"7#	c #E8E8E8",
"8#	c #EDECE8",
"9#	c #9296A6",
":#	c #4C5B98",
";#	c #6F7EC0",
"<#	c #A7B0DE",
"=#	c #B5BDE5",
">#	c #99A4D9",
"?#	c #808EC8",
"@#	c #49599A",
"A#	c #7E849D",
"B#	c #E9E8E2",
"C#	c #EAEAEA",
"D#	c #E1E1E1",
"E#	c #EDEDED",
"F#	c #E8E8E9",
"G#	c #EFEEEA",
"H#	c #C9C8C7",
"I#	c #9193A2",
"J#	c #8A8DA6",
"K#	c #9195AD",
"L#	c #898DA6",
"M#	c #8D90A0",
"N#	c #BFBFC0",
"O#	c #E9E9E9",
"P#	c #DEDEDE",
"Q#	c #3A3A3A",
"R#	c #EEEEEE",
"S#	c #E5E5E5",
"T#	c #ECEBEB",
"U#	c #EDECE9",
"V#	c #E2E1DE",
"W#	c #DCDCD9",
"X#	c #E1E0DD",
"Y#	c #ECEBE9",
"Z#	c #EDEDEC",
"[#	c #2D2D2D",
"]#	c #E2E2E2",
"^#	c #DFDFDF",
"_#	c #DCDCDC",
"`#	c #DBDBDB",
"a#	c #DADADA",
"b#	c #D7D7D7",
"c#	c #D6D6D6",
"d#	c #D5D5D5",
"e#	c #D4D4D4",
"f#	c #D3D3D3",
"g#	c #C1C1C1",
"h#	c #343434",
"i#	c #292929",
"j#	c #2B2B2B",
"k#	c #282828",
"l#	c #272727",
"    # $ $ $ $ $ $ $ $ $ $ % &               ",
"  ' ( ( ) ) ) ) ) ) ) ) * + , -             ",
"  . ( 0 * * * * * * * * 1 2 3 4 5           ",
"  6 ) 0 * * * * * * * * 1 % 7 ( 8 9         ",
"  6 ) 0 * * * * : ( ( ( ; < = > > ? 9       ",
"  6 ) 0 * * @ ) A B C D E 3 F G G H I 9     ",
"  6 0 0 * J K L M N O O P Q R S T U V W     ",
"  6 * * J X Y Z [ ] ^ _ ` ] a b c d e W     ",
"  6 f 0 g h i j k l m n o p q r s t u W     ",
"  6 f ( v w x y z { | } ~  !!!#!$!J u W     ",
"  6 %!J &!'!(!)!*!+!,!-!.!j 0!1!2!3!> 4!    ",
"  6 %!5!6!7!8!9!:!;!<!*!=!>!?!@!A!B!C!4!    ",
"  6 1 D!E!F!G!H!I!J!K!L!M!N!O!P!Q!R!S!T!    ",
"  6 > U!V!W!G!X!Y!Z![!]!^!_!`!a!b!c!d T!    ",
"  6 d!e!f!g!h!i!j!k!l!m!n!o!p!q!r!s!e t!    ",
"  6 3 u!v!w!x!y!z!{!|!}!~! #!###$#%#&#t!    ",
"  6 7 '#(#)#*#+#,#-#.#]!0#1#2#3#4#5#U 6#    ",
"  6 d 7#'#8#9#:#;#<#=#>#?#@#A#B#e C#D#6#    ",
"  6 E#&#&#F#G#H#I#J#K#L#M#N#8#C#&#O#P#Q#    ",
"  6 R#S#V V V T#U#V#W#X#Y#Z#7#&#&#O#P#Q#    ",
"  [#]#]#^#^#, _#_#_#`#a#b#c#d#e#f#c#g#h#    ",
"    i#j#j#j#j#j#j#j#i#i#i#i#k#k#k#i#l#      "};