/* XPM */
static const char * htmlwin_xpm[] = {
"22 22 216 2",
"  	c None",
". 	c #F9F9F9",
"+ 	c #FAFAFA",
"@ 	c #FBFBFB",
"# 	c #F8F8F8",
"$ 	c #F7F7F7",
"% 	c #F6F6F6",
"& 	c #EEEEEE",
"* 	c #DFDFDF",
"= 	c #FEFEFE",
"- 	c #FDFDFD",
"; 	c #FCFCFC",
"> 	c #F4F4F4",
", 	c #CFCFCF",
"' 	c #DBDBDB",
") 	c #CBCBCB",
"! 	c #E6E6E6",
"~ 	c #DCDCDC",
"{ 	c #D4D4D4",
"] 	c #E8E8E8",
"^ 	c #E0E0E0",
"/ 	c #B0B0B0",
"( 	c #AAAAAA",
"_ 	c #E2E2E2",
": 	c #FEFEFD",
"< 	c #EAECF4",
"[ 	c #D0D5E9",
"} 	c #C3CAE3",
"| 	c #CED4E8",
"1 	c #E8EBF3",
"2 	c #F2F2F2",
"3 	c #CECECE",
"4 	c #FFFFFE",
"5 	c #EBEDF5",
"6 	c #B3BCDC",
"7 	c #B5BEDE",
"8 	c #CAD0E8",
"9 	c #CCD2E8",
"0 	c #C6CDE6",
"a 	c #BEC5E0",
"b 	c #DFE1EA",
"c 	c #F1F0ED",
"d 	c #F3F3F3",
"e 	c #CCCCCC",
"f 	c #F5F5F5",
"g 	c #E2E5F0",
"h 	c #99A4D2",
"i 	c #D4D8EE",
"j 	c #F2F2FB",
"k 	c #E2E5F4",
"l 	c #D6DCEF",
"m 	c #D3D9EE",
"n 	c #E2E6F4",
"o 	c #B6BEDF",
"p 	c #D1D6E4",
"q 	c #F7F6F3",
"r 	c #F1F1F1",
"s 	c #FAFBFA",
"t 	c #7987C3",
"u 	c #CCD0EC",
"v 	c #DEE0F3",
"w 	c #C1C9E7",
"x 	c #C6CCE8",
"y 	c #C0C8E5",
"z 	c #B5BEE1",
"A 	c #C2CAE7",
"B 	c #DDE0F2",
"C 	c #D2D6EF",
"D 	c #8895CB",
"E 	c #EEEFF5",
"F 	c #FDFDFC",
"G 	c #B2BAD8",
"H 	c #6F7CC5",
"I 	c #C2C8E9",
"J 	c #A7B1DC",
"K 	c #7E8ECA",
"L 	c #8A99CF",
"M 	c #909ED1",
"N 	c #98A5D5",
"O 	c #D5DAEE",
"P 	c #D6DAF0",
"Q 	c #BBC2E5",
"R 	c #909AD4",
"S 	c #A1AAD1",
"T 	c #F0F0F0",
"U 	c #5E6EAF",
"V 	c #344AA7",
"W 	c #8B98D1",
"X 	c #8896CF",
"Y 	c #6F80C3",
"Z 	c #5C70BA",
"` 	c #576CB8",
" .	c #8493CC",
"..	c #F7F7FD",
"+.	c #C2C7E9",
"@.	c #8590D2",
"#.	c #4E60AF",
"$.	c #F5F5F4",
"%.	c #CACACA",
"&.	c #31469A",
"*.	c #0F2A93",
"=.	c #2F47A3",
"-.	c #9CA6D8",
";.	c #B3BBE1",
">.	c #556AB6",
",.	c #3951AA",
"'.	c #A7B1DA",
").	c #B7BEE3",
"!.	c #B9BFE6",
"~.	c #7581CB",
"{.	c #2A409C",
"].	c #E5E6E9",
"^.	c #2D4296",
"/.	c #0C2792",
"(.	c #1B3598",
"_.	c #707FC4",
":.	c #CCD0EE",
"<.	c #C8CDEA",
"[.	c #8D9ACE",
"}.	c #A6B1DA",
"|.	c #243DA2",
"1.	c #6374BF",
"2.	c #A9B0E1",
"3.	c #5F70BE",
"4.	c #152E90",
"5.	c #E3E4E7",
"6.	c #495B9D",
"7.	c #052290",
"8.	c #3D53AA",
"9.	c #A9B0DF",
"0.	c #C4CAE9",
"a.	c #6B7CBF",
"b.	c #7484C6",
"c.	c #4358B2",
"d.	c #596ABC",
"e.	c #949CD9",
"f.	c #6474C1",
"g.	c #32479C",
"h.	c #E8E8E7",
"i.	c #ECECEC",
"j.	c #818AB0",
"k.	c #0F2B95",
"l.	c #031F8C",
"m.	c #384EA7",
"n.	c #CACEEC",
"o.	c #B7BFE1",
"p.	c #3B52AA",
"q.	c #485DB2",
"r.	c #475CB2",
"s.	c #384EA9",
"t.	c #5767BA",
"u.	c #354DAA",
"v.	c #616EA0",
"w.	c #F7F6F0",
"x.	c #EBEBEB",
"y.	c #C9C9C9",
"z.	c #D0D1D2",
"A.	c #22388C",
"B.	c #19359C",
"C.	c #344BA8",
"D.	c #D1D5EE",
"E.	c #C4CBE6",
"F.	c #6677C0",
"G.	c #5669B8",
"H.	c #3950AA",
"I.	c #2842A1",
"J.	c #2640A2",
"K.	c #2F4599",
"L.	c #BCBEC6",
"M.	c #F5F4F3",
"N.	c #EAEAEA",
"O.	c #EFEFEF",
"P.	c #F2F1EE",
"Q.	c #989BAB",
"R.	c #213892",
"S.	c #5A6DBF",
"T.	c #939FD5",
"U.	c #7181C4",
"V.	c #7D8BCA",
"W.	c #7485C7",
"X.	c #677AC4",
"Y.	c #334AA0",
"Z.	c #7B829E",
"`.	c #F1F0EB",
" +	c #EBECEC",
".+	c #E9E9EA",
"++	c #EDECE8",
"@+	c #9296A6",
"#+	c #4C5B98",
"$+	c #6F7EC0",
"%+	c #A7B0DE",
"&+	c #B5BDE5",
"*+	c #99A4D9",
"=+	c #808EC8",
"-+	c #49599A",
";+	c #7E849D",
">+	c #E9E8E2",
",+	c #E9E9E9",
"'+	c #C8C8C8",
")+	c #E7E7E7",
"!+	c #E8E8E9",
"~+	c #EFEEEA",
"{+	c #C9C8C7",
"]+	c #9193A2",
"^+	c #8A8DA6",
"/+	c #9195AD",
"(+	c #898DA6",
"_+	c #8D90A0",
":+	c #BFBFC0",
"<+	c #EDEDED",
"[+	c #E1E1E1",
"}+	c #DEDEDE",
"|+	c #DDDDDD",
"1+	c #DADADA",
"2+	c #D9D9D9",
"3+	c #D1D1D1",
"    . + @ + . . . . # $ $ % & *             ",
"    # = = = = - - ; ; @ @ + > , '           ",
"    # ; = - ; ; ; @ @ + + . + ) ! ~         ",
"    # ; - - ; ; @ @ + . . # . { + ] ^       ",
"    $ @ ; @ @ + @ . + # # $ # { / ( ) _     ",
"    % @ ; ; : = < [ } | 1 2 ; ; ; ; & 3     ",
"    % @ ; 4 5 6 7 8 9 9 0 a b c ; ; d e     ",
"    f . 4 g h i j k l m n k o p q ; r e     ",
"    > . s t u v w x y z A B C D E F r )     ",
"    > # G H I J K L M N O P Q R S 4 T )     ",
"    > + U V W X Y Z `  ...v +.@.#.$.& %.    ",
"    d @ &.*.=.-.;.>.,.Y '.).!.~.{.].f %.    ",
"    2 # ^./.(._.:.<.[.}.|.1.2.3.4.5.& %.    ",
"    r > 6.7.(.8.9.0.a.b.c.d.e.f.g.h.i.%.    ",
"    r d j.k.l.m.n.o.p.q.r.s.t.u.v.w.x.y.    ",
"    r 2 z.A.B.C.D.E.F.G.H.I.J.K.L.M.N.y.    ",
"    O.r P.Q.R.S.T.U.V.b.W.X.Y.Z.`. +N.y.    ",
"    O.T .+++@+#+$+%+&+*+=+-+;+>+x.N.,+'+    ",
"    & O.)+!+~+{+]+^+/+(+_+:+++N.)+,+] '+    ",
"    <+& O.& & <+<+i.x.x.N.N.,+] ] ] ] '+    ",
"    <+& & & <+i.x.x.x.N.N.,+,+] ] )+] '+    ",
"    ,+[+}+}+}+|+|+|+~ ~ ' ' ' 1+1+2+1+3+    "};
