/* XPM */ 
static const unsigned char * hyperlink_ctrl_xpm[] = {
"22 22 26 1",
" 	c None",
"!	c black",
"#	c #0066CC",
"$	c white",
"%	c #0B0B0B",
"&	c #ADADAD",
"'	c #9F9F9F",
"(	c #A6A6A6",
")	c #0F0F0F",
"*	c #767676",
"+	c #D1D1D1",
",	c #D3D3D3",
"-	c #C0C0C0",
".	c #BCBCBC",
"0	c #8B8B8B",
"1	c #FBFBFB",
"2	c #F9F9F9",
"3	c #1B1B1B",
"4	c #AEAEAE",
"5	c #F4F4F4",
"6	c #FCFCFC",
"7	c #FDFDFD",
"8	c #1C1C1C",
"9	c #D4D4D4",
":	c #FEFEFE",
";	c #F8F8F8",
"                      ",
"                      ",
"         #            ",
"         #            ",
"         #            ",
"     ##  ###   ##     ",
"       # #  # #       ",
"     ### #  ! #       ",
"    #  # # !$!#       ",
"     ### ##!$! ##     ",
"           !$!!%      ",
"   #######!!$&'(!##   ",
"         )*!$+,-.!    ",
"          !0$$$12!    ",
"          345667$!    ",
"           !$167$!    ",
"           89:;:!     ",
"            !$1$!     ",
"            !!!!!     ",
"                      ",
"                      ",
"                      "};