/* XPM */
static char * propgriditem_xpm[] = {
"21 21 11 1",
" 	c None",
".	c #000000",
"+	c #858585",
"@	c #2C2C2C",
"#	c #FFFFFF",
"$	c #FFFDFD",
"%	c #B8B8B8",
"&	c #868383",
"*	c #8A7F80",
"=	c #FFF7F7",
"-	c #FF0018",
".....................",
".++@++@+++++++++++++.",
".+@+@@++++++++++++++.",
".++##$#####%########.",
".&*#$=#####%########.",
".-------------------.",
".-+########%#######-.",
".-+########%#######-.",
".-------------------.",
".++########%########.",
".++########%########.",
".++@++@+++++++++++++.",
".+@+@@++++++++++++++.",
".++########%########.",
".++########%########.",
".++%%%%%%%%%%%%%%%%%.",
".++########%########.",
".++########%########.",
".++%%%%%%%%%%%%%%%%%.",
".++########%########.",
"....................."};
