/* XPM */ 
static const unsigned char * propgrid_xpm[] = {
"21 21 6 1",
" 	c None",
"!	c black",
"#	c #858585",
"$	c #2C2C2C",
"%	c white",
"&	c #B8B8B8",
"!!!!!!!!!!!!!!!!!!!!!",
"!##$##$#############!",
"!#$#$$##############!",
"!##%%%%%%%%&%%%%%%%%!",
"!##%%%%%%%%&%%%%%%%%!",
"!##&&&&&&&&&&&&&&&&&!",
"!##%%%%%%%%&%%%%%%%%!",
"!##%%%%%%%%&%%%%%%%%!",
"!##&&&&&&&&&&&&&&&&&!",
"!##%%%%%%%%&%%%%%%%%!",
"!##%%%%%%%%&%%%%%%%%!",
"!##$##$#############!",
"!#$#$$##############!",
"!##%%%%%%%%&%%%%%%%%!",
"!##%%%%%%%%&%%%%%%%%!",
"!##&&&&&&&&&&&&&&&&&!",
"!##%%%%%%%%&%%%%%%%%!",
"!##%%%%%%%%&%%%%%%%%!",
"!##&&&&&&&&&&&&&&&&&!",
"!##%%%%%%%%&%%%%%%%%!",
"!!!!!!!!!!!!!!!!!!!!!"};