/* XPM */ 
static const unsigned char * scrollbar_xpm[] = {
"21 21 40 1",
" 	c None",
"!	c black",
"#	c #333366",
"$	c #B3E1F5",
"%	c #AADBF3",
"&	c #A3D7F1",
"'	c #97CFEF",
"(	c #8DC7EC",
")	c #EBEAEB",
"*	c #8FC8ED",
"+	c #86C3EB",
",	c #7ABAE9",
"-	c #BDE8F8",
".	c #B5E3F6",
"0	c #808080",
"1	c #9AD0EF",
"2	c #E3E4E3",
"3	c #AEDEF4",
"4	c #A5D8F2",
"5	c #93CBEE",
"6	c #CBF1FB",
"7	c #DCDCDD",
"8	c #B8E5F6",
"9	c #AFDFF5",
":	c #D2F7FD",
";	c #BAE6F7",
"<	c #D7D7D6",
"=	c #C3ECF9",
">	c #9FD3F0",
"?	c #D4F8FC",
"@	c #D0D0D0",
"A	c #DEFFFF",
"B	c #D9FCFE",
"C	c #CDF4FB",
"D	c #C7EFF9",
"E	c #CCCBCC",
"F	c #CCCBCB",
"G	c #D3F7FD",
"H	c #CCF3FB",
"I	c #BDE9F7",
"                     ",
"                     ",
"                     ",
"                     ",
"                     ",
"                     ",
" ####################",
" #$%&'(#))))))#&'*+,#",
" #-.0&1#222222#3405+#",
" #60034#777777#89005#",
" #:00;$#<<<<<<#=;00>#",
" #?:0=-#@@@@@@#6=0$%#",
" #AB?CD#EEFEEF#GHDI.#",
" ####################",
"                     ",
"                     ",
"                     ",
"                     ",
"                     ",
"                     ",
"                     "};