/* XPM */
static const unsigned char * spin_ctrl_double_xpm[] = {
"21 21 24 1",
" 	c None",
".	c #333366",
"+	c #FFFFFF",
"@	c #F8FFFF",
"#	c #F3FFFF",
"$	c #F1FFFF",
"%	c #EEFFFF",
"&	c #9BCDFF",
"*	c #000000",
"=	c #F6FFFF",
"-	c #A5D5FF",
";	c #808080",
">	c #F7FFFF",
",	c #F5FFFF",
"'	c #EBFFFF",
")	c #AAD9FF",
"!	c #EFFFFF",
"~	c #C2EAFF",
"{	c #E5FFFF",
"]	c #ECFFFF",
"^	c #EAFFFF",
"/	c #E2FFFF",
"(	c #EDFFFF",
"_	c #DFFFFF",
"                     ",
"                     ",
"                     ",
"                     ",
"                     ",
" ....................",
" .+++++@@##$%.&&&&&&.",
" .++*+@@=#*$%.--;;--.",
" .+**+@>,**%'.);;;;).",
" .++*###$!*''.~~~~~~.",
" .@@*$$$%'*{{.{{{{{{.",
" .##*$$$]^*//.~;;;;~.",
" .@***%*(***/.--;;-).",
" .$%%''{{///_.&&&&&&.",
" ....................",
"                     ",
"                     ",
"                     ",
"                     ",
"                     ",
"                     "};
