/* XPM */
static char * timer_xpm[] = {
"22 22 356 2",
"  	c None",
". 	c #ACACBC",
"+ 	c #B4B4C2",
"@ 	c #B7B7C5",
"# 	c #B8B8C6",
"$ 	c #B6B6C5",
"% 	c #B1B1C1",
"& 	c #A8A8BA",
"* 	c #9D9DAF",
"= 	c #87879E",
"- 	c #B4B4C3",
"; 	c #B5B5C4",
"> 	c #D6D6DF",
", 	c #F1F1F4",
"' 	c #FDFCFB",
") 	c #F6F5F5",
"! 	c #F3F2F3",
"~ 	c #F1EFF0",
"{ 	c #F4F3F5",
"] 	c #E3E3E9",
"^ 	c #C0C0CD",
"/ 	c #8D8DA4",
"( 	c #7B7B8F",
"_ 	c #F7F7F8",
": 	c #F8F8F9",
"< 	c #CED0DC",
"[ 	c #9EAACB",
"} 	c #98ACD5",
"| 	c #9BB0D8",
"1 	c #90A7D1",
"2 	c #96A2C0",
"3 	c #BDC0D0",
"4 	c #E4E4EA",
"5 	c #E2E2E9",
"6 	c #9B9BAF",
"7 	c #75758A",
"8 	c #D1D1DB",
"9 	c #FFFFFF",
"0 	c #CBD0DF",
"a 	c #A6BDE1",
"b 	c #C9DEF4",
"c 	c #EBF8FF",
"d 	c #EAEEFB",
"e 	c #9A9FE5",
"f 	c #E1EFFD",
"g 	c #D9F2FF",
"h 	c #B7D7F2",
"i 	c #8EAAD4",
"j 	c #B1B1C2",
"k 	c #E0E0E5",
"l 	c #A3A3B6",
"m 	c #6E6E85",
"n 	c #B6B6C4",
"o 	c #C2C2CD",
"p 	c #C3C4D2",
"q 	c #A1C5EE",
"r 	c #DEF5FF",
"s 	c #E5F7FE",
"t 	c #DEEAFA",
"u 	c #A2ACE9",
"v 	c #DAEBFC",
"w 	c #D5F2FE",
"x 	c #D1F4FF",
"y 	c #82B2EC",
"z 	c #9A9EB9",
"A 	c #DADAE1",
"B 	c #9292A7",
"C 	c #4A4A5A",
"D 	c #F7F7F9",
"E 	c #CBD0E0",
"F 	c #8DB9EC",
"G 	c #D3F4FF",
"H 	c #D7F3FF",
"I 	c #E2F6FF",
"J 	c #E5F8FF",
"K 	c #E7FBFF",
"L 	c #DEF6FF",
"M 	c #D7F2FE",
"N 	c #D6F8FF",
"O 	c #C8EEFF",
"P 	c #BCE4FD",
"Q 	c #75A1DD",
"R 	c #AAA9BB",
"S 	c #C4C4D1",
"T 	c #76768F",
"U 	c #B0B0BF",
"V 	c #D9D9E1",
"W 	c #87AADF",
"X 	c #C0E7FD",
"Y 	c #C9EDFE",
"Z 	c #D1F1FF",
"` 	c #D5F3FF",
" .	c #D9F4FF",
"..	c #DAF5FF",
"+.	c #D8F4FF",
"@.	c #D8FAFF",
"#.	c #72868E",
"$.	c #9FC0D4",
"%.	c #B2DDFB",
"&.	c #A3D2FC",
"*.	c #5378BF",
"=.	c #C0BDC8",
"-.	c #9090A7",
";.	c #535369",
">.	c #B9B9C7",
",.	c #F2F2F5",
"'.	c #CCD0DE",
").	c #89BAF0",
"!.	c #B5DFFB",
"~.	c #BFE6FD",
"{.	c #C7ECFE",
"].	c #CDEFFF",
"^.	c #D0F1FF",
"/.	c #D1F2FF",
"(.	c #CFF0FE",
"_.	c #CDF0FF",
":.	c #607178",
"<.	c #030405",
"[.	c #87A7BE",
"}.	c #ABD6FA",
"|.	c #A3D0F9",
"1.	c #66A4F3",
"2.	c #8C91AE",
"3.	c #63637E",
"4.	c #BCBCC9",
"5.	c #FEFDFC",
"6.	c #97A8CD",
"7.	c #88BEF8",
"8.	c #ABD7FB",
"9.	c #B3DDFC",
"0.	c #BAE3FD",
"a.	c #C4E9FE",
"b.	c #C5EBFE",
"c.	c #CCF4FF",
"d.	c #60747E",
"e.	c #080B0C",
"f.	c #91B3CC",
"g.	c #A9D6F9",
"h.	c #A0CFFA",
"i.	c #9BCBF9",
"j.	c #69A6F3",
"k.	c #5B79BA",
"l.	c #BBBAC8",
"m.	c #6F6F8A",
"n.	c #30303E",
"o.	c #BDBDCB",
"p.	c #FBF8F7",
"q.	c #7396D4",
"r.	c #81B1F3",
"s.	c #9BC8F7",
"t.	c #A8D5FA",
"u.	c #AFDAFB",
"v.	c #AED9FB",
"w.	c #AFDBFE",
"x.	c #84A3B6",
"y.	c #50626D",
"z.	c #080B0D",
"A.	c #8AADCA",
"B.	c #ABDAFF",
"C.	c #9CCCF9",
"D.	c #89BDF6",
"E.	c #5594EF",
"F.	c #2267E5",
"G.	c #4975C4",
"H.	c #B3B2C1",
"I.	c #7A7A92",
"J.	c #383849",
"K.	c #BDBDCA",
"L.	c #FBF8F6",
"M.	c #6B92D6",
"N.	c #4766DB",
"O.	c #7AA3EC",
"P.	c #95C7F8",
"Q.	c #84BAF5",
"R.	c #86BCF9",
"S.	c #6F9CCB",
"T.	c #6F6D6A",
"U.	c #3C3B3A",
"V.	c #12181F",
"W.	c #2D3944",
"X.	c #2D3D50",
"Y.	c #6CA3E6",
"Z.	c #5F9FF1",
"`.	c #437BE7",
" +	c #1D3FD0",
".+	c #4A78C9",
"++	c #7C7C94",
"@+	c #343445",
"#+	c #B8B8C7",
"$+	c #F7F5F4",
"%+	c #7B9BD2",
"&+	c #6EA4F2",
"*+	c #73AAF2",
"=+	c #79B2F4",
"-+	c #96C7F9",
";+	c #99C8F2",
">+	c #2A2E31",
",+	c #242A2E",
"'+	c #3C4D5A",
")+	c #374857",
"!+	c #384C5F",
"~+	c #75A7E1",
"{+	c #71ABF3",
"]+	c #5D9BF0",
"^+	c #4785EB",
"/+	c #567DC3",
"(+	c #A7A6B7",
"_+	c #71718B",
":+	c #333343",
"<+	c #B1B1C0",
"[+	c #99A6C6",
"}+	c #65A5F5",
"|+	c #7BB3F4",
"1+	c #8DC0F7",
"2+	c #9DCDF9",
"3+	c #ABD7FA",
"4+	c #B5DEFD",
"5+	c #AED5EE",
"6+	c #ACD2E9",
"7+	c #B8E2FF",
"8+	c #B0DCFF",
"9+	c #A3D3FD",
"0+	c #92C4F7",
"a+	c #82B8F5",
"b+	c #6FABF3",
"c+	c #5B9CF1",
"d+	c #6981B4",
"e+	c #A4A3B6",
"f+	c #61617D",
"g+	c #20202B",
"h+	c #A6A6B7",
"i+	c #EAEAEE",
"j+	c #C3C7D5",
"k+	c #79ACEC",
"l+	c #8ABEF7",
"m+	c #B0DAFB",
"n+	c #BEE6FD",
"o+	c #C9EDFF",
"p+	c #CFF0FF",
"q+	c #CBEFFF",
"r+	c #C2E9FD",
"s+	c #B5DFFC",
"t+	c #A4D1FA",
"u+	c #90C3F8",
"v+	c #7DB4F5",
"w+	c #68A4F2",
"x+	c #7C7F9C",
"y+	c #9292A9",
"z+	c #545471",
"A+	c #000000",
"B+	c #9292A5",
"C+	c #C9C9D4",
"D+	c #ECECF0",
"E+	c #93AFD8",
"F+	c #96C8F9",
"G+	c #ACD8FB",
"H+	c #CEF0FE",
"I+	c #D6F3FF",
"J+	c #DBF4FF",
"K+	c #DCF4FF",
"L+	c #D8F4FE",
"M+	c #B2DCFC",
"N+	c #89C1FC",
"O+	c #6780B2",
"P+	c #9593A7",
"Q+	c #737392",
"R+	c #353548",
"S+	c #9898AC",
"T+	c #EBEBF0",
"U+	c #BFBECA",
"V+	c #9EC8F0",
"W+	c #B7E0FD",
"X+	c #CAEEFE",
"Y+	c #E0F5FF",
"Z+	c #E7F8FF",
"`+	c #E8F8FF",
" @	c #E3F6FF",
".@	c #DAF4FE",
"+@	c #BDE5FD",
"@@	c #A7D4FB",
"#@	c #84AAD9",
"$@	c #81819B",
"%@	c #8F8FA7",
"&@	c #5B5B77",
"*@	c #848496",
"=@	c #A6A6B8",
"-@	c #E9E9ED",
";@	c #B0B2C2",
">@	c #AFCDE6",
",@	c #DCF5FF",
"'@	c #E8F8FE",
")@	c #ECF5FD",
"!@	c #D7DFF6",
"~@	c #E7F5FE",
"{@	c #E0F6FF",
"]@	c #D4F2FF",
"^@	c #C9F0FF",
"/@	c #98B9DB",
"(@	c #7C809D",
"_@	c #9A9AAF",
":@	c #6B6B88",
"<@	c #22222E",
"[@	c #7F7F91",
"}@	c #AEAEBF",
"|@	c #E5E5EB",
"1@	c #ABBACD",
"2@	c #DFF6FF",
"3@	c #EBFAFF",
"4@	c #DDE3F7",
"5@	c #797BDA",
"6@	c #DCE6F9",
"7@	c #E3F8FF",
"8@	c #D5F3FE",
"9@	c #8E9EB7",
"0@	c #83839D",
"a@	c #9C9CB0",
"b@	c #6E6E8C",
"c@	c #434358",
"d@	c #77778D",
"e@	c #9D9DB0",
"f@	c #C7C6D1",
"g@	c #A5A6B8",
"h@	c #B2B8C8",
"i@	c #BEC3D2",
"j@	c #B9BFD4",
"k@	c #B7BFD0",
"l@	c #A2AABE",
"m@	c #8788A1",
"n@	c #9796AC",
"o@	c #9494AA",
"p@	c #6C6C89",
"q@	c #434359",
"r@	c #51515F",
"s@	c #808097",
"t@	c #9B9BB0",
"u@	c #C7C7D3",
"v@	c #BEBECB",
"w@	c #B0B0C0",
"x@	c #ADADBE",
"y@	c #9B9BAE",
"z@	c #797995",
"A@	c #5D5D79",
"B@	c #23232F",
"C@	c #5A5A6E",
"D@	c #6C6C85",
"E@	c #787891",
"F@	c #838399",
"G@	c #85859B",
"H@	c #787892",
"I@	c #676782",
"J@	c #585875",
"K@	c #343441",
"L@	c #3C3C4D",
"M@	c #383848",
"N@	c #363646",
"O@	c #22222D",
"            . + @ # $ % & * =               ",
"        - ; > , ' ) ! ~ { ] ^ / (           ",
"      @ ^ _ : < [ } | 1 2 3 4 5 6 7         ",
"    # 8 9 0 a b c d e f g h i j k l m       ",
"  n o 9 p q r s c t u v r w x y z A B C     ",
"  # D E F G H r I J K L M N O P Q R S T     ",
"U V : W X Y Z `  ...+.w @.#.$.%.&.*.=.-.;.  ",
">.,.'.).!.~.{.].^./.(._.:.<.[.}.|.1.2.- 3.  ",
"4.5.6.7.8.9.0.X a.b.c.d.e.f.g.h.i.j.k.l.m.n.",
"o.p.q.r.s.t.u.v.w.x.y.z.A.B.C.D.E.F.G.H.I.J.",
"K.L.M.N.O.P.Q.R.S.T.U.V.W.X.Y.Z.`. +.+. ++@+",
"#+$+%+&+*+=+D.-+;+>+,+'+)+!+~+{+]+^+/+(+_+:+",
"<+: [+}+|+1+2+3+4+5+6+7+8+9+0+a+b+c+d+e+f+g+",
"h+i+j+k+l+2+m+n+o+p+p+q+r+s+t+u+v+w+x+y+z+A+",
"B+C+D+E+F+G+~.H+I+J+K+L+Z b.M+2+N+O+P+Q+R+  ",
"  S+T+U+V+W+X+M Y+Z+`+ @.@p++@@@#@$@%@&@A+  ",
"  *@=@-@;@>@G ,@'@)@!@~@{@]@^@/@(@_@:@<@    ",
"    [@}@|@- 1@2@3@4@5@6@7@8@9@0@a@b@c@A+    ",
"      d@e@8 f@g@h@i@j@k@l@m@n@o@p@q@A+      ",
"        r@s@t@^ u@v@@ w@x@y@z@A@B@A+        ",
"            C@D@E@F@G@H@I@J@J.A+            ",
"                K@L@M@N@O@A+                "};
