/* XPM */
static char * auitoolbar_xpm[] = {
"22 22 64 1",
" 	c None",
".	c #000000",
"+	c #ACA899",
"@	c #FFFFFF",
"#	c #666699",
"$	c #CC9900",
"%	c #003399",
"&	c #FAFDFF",
"*	c #F4FBFF",
"=	c #F9F9F8",
"-	c #FFFD00",
";	c #F8F7F7",
">	c #F7F8F6",
",	c #F7F7F6",
"'	c #F7F7F5",
")	c #F6F6F5",
"!	c #0083D7",
"~	c #1E92DF",
"{	c #F2FAFF",
"]	c #EBF7FF",
"^	c #E2F4FF",
"/	c #EBEBE8",
"(	c #E9E8E5",
"_	c #E8E8E5",
":	c #0A87DA",
"<	c #2F9AE3",
"[	c #E6F6FF",
"}	c #DFF3FF",
"|	c #D6EFFF",
"1	c #DEDCD8",
"2	c #FFF600",
"3	c #FFF200",
"4	c #FFED00",
"5	c #FFE700",
"6	c #FFE200",
"7	c #DADAD5",
"8	c #168EDD",
"9	c #2394E1",
"0	c #329BE5",
"a	c #42A2E8",
"b	c #DBF1FF",
"c	c #CBEBFF",
"d	c #CFCEC8",
"e	c #FFDE00",
"f	c #CDCCC4",
"g	c #C8C8C8",
"h	c #D2EDFF",
"i	c #C9EAFF",
"j	c #C1E7FF",
"k	c #C2C0B7",
"l	c #FFDA00",
"m	c #BFBEB4",
"n	c #48A5E9",
"o	c #B4B2A7",
"p	c #B2B0A4",
"q	c #B1B0A4",
"r	c #B2AFA3",
"s	c #B0AEA2",
"t	c #ACAB9D",
"u	c #ACAB9E",
"v	c #ACAA9D",
"w	c #ACAA9E",
"x	c #ADAA9E",
"y	c #ADAA9D",
"                      ",
"                      ",
"                      ",
"                      ",
".+.+++++++++++++++++++",
"+.++++++++++++++++++++",
".+.+++++++++++++++++++",
"@@@@@@@@@@@@@@@@@@@@@@",
"####@@@@$$@@@@@@@%%%%@",
"#@&*#==$--$;>,')%!@@~%",
"#&{]^#/$-$$$$$(_%:@@<%",
"#{[}|#1$$23456$7%890a%",
"#[b|c#d$$3456e$f%gggg%",
"#bhij#k$$455el$m%gngg%",
"######oo$$$$$$pqr%%%%s",
"tuvwvxyxxwwytwxuuuxyuu",
"7777777777777777777777",
"                      ",
"                      ",
"                      ",
"                      ",
"                      "};
