/* XPM */
static char *choice_xpm[] = {
/* columns rows colors chars-per-pixel */
"22 22 75 1",
"  c black",
". c #333366",
"X c magenta",
"o c #808080",
"O c #9BCDFF",
"+ c #9ECFFF",
"@ c #9ED0FF",
"# c #A0D2FF",
"$ c #A1D2FF",
"% c #A2D3FF",
"& c #A3D4FF",
"* c #A4D4FF",
"= c #A4D5FF",
"- c #A5D5FF",
"; c #A7D6FF",
": c #A7D7FF",
"> c #A8D8FF",
", c #AAD8FF",
"< c #AAD9FF",
"1 c #ACDAFF",
"2 c #AEDCFF",
"3 c #AFDCFF",
"4 c #B0DDFF",
"5 c #B4E0FF",
"6 c #B5E0FF",
"7 c #B7E2FF",
"8 c #B8E3FF",
"9 c #BAE4FF",
"0 c #BAE5FF",
"q c #BBE6FF",
"w c #BDE6FF",
"e c #BDE7FF",
"r c #BFE8FF",
"t c #C0E8FF",
"y c #C1E9FF",
"u c #C2EAFF",
"i c #C3ECFF",
"p c #C5ECFF",
"a c #C6EDFF",
"s c #C9EFFF",
"d c #CAF0FF",
"f c #CEF3FF",
"g c #DFFFFF",
"h c LightCyan",
"j c #E1FFFF",
"k c #E2FFFF",
"l c #E3FFFF",
"z c #E4FFFF",
"x c #E5FFFF",
"c c #E6FFFF",
"v c #E7FFFF",
"b c #E8FFFF",
"n c #E9FFFF",
"m c #EBFFFF",
"M c #ECFFFF",
"N c #EDFFFF",
"B c #EEFFFF",
"V c #EFFFFF",
"C c azure",
"Z c #F1FFFF",
"A c #F2FFFF",
"S c #F3FFFF",
"D c #F4FFFF",
"F c #F5FFFF",
"G c #F6FFFF",
"H c #F7FFFF",
"J c #F8FFFF",
"K c #F9FFFF",
"L c #FAFFFF",
"P c #FBFFFF",
"I c #FCFFFF",
"U c #FDFFFF",
"Y c #FEFFFF",
"T c gray100",
"R c None",
/* pixels */
"RRRRRRRRRRRRRRRRRRRRRR",
"RRRRRRRRRRRRRRRRRRRRRR",
"RRRRRRRRRRRRRRRRRRRRRR",
"RRRRRRRRRRRRRRRRRRRRRR",
"RRRRRRRRRRRRRRRRRRRRRR",
"RRRRRRRRRRRRRRRRRRRRRR",
"......................",
".TTTTTTTJJSSZB.O@@--<.",
".TTTTTJTJJZZZB.+@-:14.",
".TT  TJJSZZBBm.@-<145.",
".TTTJ SSSZBmmm.-oooo9.",
".TJ   ZZZBmmxx.<2oo9e.",
".T SS ZBBBmxkk.255eei.",
".SJ   BBmxxkkk.58euas.",
".JSZBBmmxxkkkg.9euadf.",
"......................",
"RRRRRRRRRRRRRRRRRRRRRR",
"RRRRRRRRRRRRRRRRRRRRRR",
"RRRRRRRRRRRRRRRRRRRRRR",
"RRRRRRRRRRRRRRRRRRRRRR",
"RRRRRRRRRRRRRRRRRRRRRR",
"RRRRRRRRRRRRRRRRRRRRRR"
};
