/* XPM */
static const char * infobar_xpm[] = {
"22 22 6 1",
" 	c None",
".	c #716F64",
"+	c #ECE9D8",
"@	c #4D32C3",
"#	c #DFDDCD",
"$	c #FFFFFF",
"                      ",
"                      ",
"                      ",
"                      ",
"                      ",
"                      ",
"..................... ",
"++++++++++++++++++++..",
"+++++++++++++@@@@@++#.",
"++++++++++++@@@$@@@+#.",
"+++++++++++@@@@@@@@@#.",
"+++++++++++@@@$$@@@@#.",
"+++++++++++@@@@$@@@@#.",
"+++++++++++@@@@$@@@@#.",
"++++++++++++@@$$$@@+#.",
"+++++++++++++@@@@@+##.",
"####################..",
"..................... ",
"                      ",
"                      ",
"                      ",
"                      "};
