/* XPM */
static char *list_ctrl_xpm[] = {
/* columns rows colors chars-per-pixel */
"22 22 50 1",
"  c #333366",
". c #0066CC",
"X c magenta",
"o c #CBC7B8",
"O c #D4D1C2",
"+ c #D4D1C3",
"@ c #D5D1C2",
"# c #D5D1C3",
"$ c #D4D2C2",
"% c #D4D2C3",
"& c #D5D2C3",
"* c #DEFFFF",
"= c #E1DFD0",
"- c #E1DFD1",
"; c #E2DFD0",
": c #E2DFD1",
"> c #E1E0D0",
", c #E1E0D1",
"< c #E2E0D0",
"1 c #E2E0D1",
"2 c #EBEADB",
"3 c LightCyan",
"4 c #E1FFFF",
"5 c #E2FFFF",
"6 c #E3FFFF",
"7 c #E4FFFF",
"8 c #E6FFFF",
"9 c #E7FFFF",
"0 c #E8FFFF",
"q c #E9FFFF",
"w c #EAFFFF",
"e c #ECFFFF",
"r c #EDFFFF",
"t c #EEFFFF",
"y c #EFFFFF",
"u c azure",
"i c #F1FFFF",
"p c #F2FFFF",
"a c #F3FFFF",
"s c #F4FFFF",
"d c #F6FFFF",
"f c #F7FFFF",
"g c #F9FFFF",
"h c #FAFFFF",
"j c #FBFFFF",
"k c #FCFFFF",
"l c #FDFFFF",
"z c #FEFFFF",
"x c gray100",
"c c None",
/* pixels */
"cccccccccccccccccccccc",
"cccccccccccccccccccccc",
"                      ",
" 22222222222222222222 ",
" 2222222222ox22222222 ",
" 1:111::1=,ox:11::::1 ",
" $$$$$$$OOOOOOOO$$$$$ ",
" xxxxxxxxxxxxxxxjjsie ",
" xxxxxxxxxxxxxjjjsiie ",
" x       xxxxx   siew ",
" xxxxxxxxxxxxxjjssiew ",
" xxxxxxxxxxxxjjssiew8 ",
" .................... ",
" .xxxx........xxxx... ",
" .................... ",
" xxxxxxxxxxxxssieww85 ",
" xxxxxxxxxxjssiiew855 ",
" x      xxjjjs     5* ",
" xxxxxxxxxjjsiiew855* ",
"                      ",
"cccccccccccccccccccccc",
"cccccccccccccccccccccc"
};
