/* XPM */
static char *menu_xpm[] = {
/* columns rows colors chars-per-pixel */
"22 22 78 1",
"  c #333366",
". c #0066CC",
"X c #6984C9",
"o c #778ACD",
"O c magenta",
"+ c #8995D4",
"@ c #9494CD",
"# c #9695D0",
"$ c #9797D5",
"% c #939EDD",
"& c #9D9FD5",
"* c #9998DA",
"= c #9B9AE0",
"- c #9D9DE6",
"; c #9E9FEC",
": c #9EA9E6",
"> c #A2A9DF",
", c #A0A1F2",
"< c #A2A2F7",
"1 c #A3A3FC",
"2 c #A5A5FF",
"3 c #B3B5E5",
"4 c #B4B5FA",
"5 c #B6B8F0",
"6 c #C0C0C0",
"7 c #C4C4F3",
"8 c #C8C8F7",
"9 c #CBCBF8",
"0 c #D1D1F7",
"q c #D3D4FC",
"w c #D8D8FF",
"e c #DFDFFE",
"r c #DFFFFF",
"t c #E2E2FE",
"y c #E3E3FF",
"u c #E4E4FF",
"i c #E5E5FF",
"p c #E6E6FF",
"a c #E7E7FF",
"s c #E9E9FE",
"d c #E9E9FF",
"f c #EAEAFF",
"g c #EBEBFF",
"h c #EDEDFF",
"j c #EFEFFF",
"k c LightCyan",
"l c #E1FFFF",
"z c #E3FFFF",
"x c #E4FFFF",
"c c #E5FFFF",
"v c #E6FFFF",
"b c #E7FFFF",
"n c #E8FFFF",
"m c #E9FFFF",
"M c #EAFFFF",
"N c #EBFFFF",
"B c #ECFFFF",
"V c #EDFFFF",
"C c #EEFFFF",
"Z c #F0F0FF",
"A c #F1F1FF",
"S c #F3F3FF",
"D c #F6F6FF",
"F c #F7F7FF",
"G c azure",
"H c #F1FFFF",
"J c #F2FFFF",
"K c #F3FFFF",
"L c #F4FFFF",
"P c #F9FFFF",
"I c #FAFFFF",
"U c #FBFFFF",
"Y c #FCFCFF",
"T c #FCFFFF",
"R c #FDFFFF",
"E c #FEFFFF",
"W c gray100",
"Q c None",
/* pixels */
"QQQQQQQQQQQQQQQQQQQQQQ",
"QQQQQQQQQQQQQQQQQQQQQQ",
"QQQQ           QQQQQQQ",
"QQQQ WWWWWWUWW QQQQQQQ",
"QQQQ W      UU 6QQQQQQ",
"QQQQ WWWUUUULU 6QQQQQQ",
"QQQQ ......... 6QQQQQQ",
"QQQQ .WWWWW... 6QQQQQQ",
"QQQQ .......22 6QQQQQQ",
"QQQQ LLLHHHH2q46QQQQQQ",
"QQQQ        1W86QQQQQQ",
"QQQQ BBBBBBM<DD5QQQQQQ",
"QQQQ M     x,SSh:QQQQQ",
"QQQQ MMxMxMx;hhhd%QQQQ",
"QQQQ xxxzxzz-ddppy+QQQ",
"QQQQ z      =ppy>oXQQQ",
"QQQQ zzrrrrr*e@03QQQQQ",
"QQQQ        $@ &w&QQQQ",
"QQQQQ6666666#66&97&QQQ",
"QQQQQQQQQQQQQQQQ&&&QQQ",
"QQQQQQQQQQQQQQQQQQQQQQ",
"QQQQQQQQQQQQQQQQQQQQQQ"
};
