/* XPM */
static char *radio_box_xpm[] = {
/* columns rows colors chars-per-pixel */
"22 22 88 1",
"  c #343466",
". c #343467",
"X c #472E75",
"o c #003399",
"O c #696989",
"+ c #6C6D8D",
"@ c #6E6E8E",
"# c #727393",
"$ c #747495",
"% c #7E7E97",
"& c #7A7A9B",
"* c #7B7B9C",
"= c #009900",
"- c #11A40B",
"; c #1AAB12",
": c #2AB51C",
"> c #30B920",
", c #30B921",
"< c #56B750",
"1 c #57B751",
"2 c #41C52B",
"3 c #47C82F",
"4 c #4BCB32",
"5 c #59D43B",
"6 c #66C25B",
"7 c #66C25C",
"8 c #6BE047",
"9 c magenta",
"0 c #91E07A",
"q c #92E17A",
"w c #8787A1",
"e c #8989A3",
"r c #9797A8",
"t c #9898A8",
"y c #9C9CAC",
"u c #9E9EAE",
"i c #9797B0",
"p c #89BE87",
"a c #89BF87",
"s c #ADADBE",
"d c #AFAFC0",
"f c #B6B6C7",
"g c #B6B7C7",
"h c #BABAC0",
"j c #BCBCC1",
"k c #BDBDC2",
"l c #BFBFC5",
"z c #99E680",
"x c #9AE780",
"c c #A5D39B",
"v c #A6D59D",
"b c #B3DFA7",
"n c #B5E0A9",
"m c #D0D0BF",
"M c #C7EFB7",
"N c #C7EFB8",
"B c #C8C8C8",
"V c #C9CAC9",
"C c #CACACA",
"Z c #CBCBCA",
"A c #CCCDCD",
"S c #CECECE",
"D c #CFCFD0",
"F c #D2D2D1",
"G c LightGray",
"H c #D5D6D6",
"J c #D7D7D7",
"K c #DADADA",
"L c #DBDBDA",
"P c #DEDEDD",
"I c #DFDFDF",
"U c #DCDCE0",
"Y c #DEDDE2",
"T c #DFDFE4",
"R c #E1E1E6",
"E c #E3E4E3",
"W c #E4E4E4",
"Q c #E7E7E8",
"! c #E9E9E9",
"~ c #ECEBEC",
"^ c #EEEEEE",
"/ c #F0F0EF",
"( c #F2F2F3",
") c #F3F3F2",
"_ c #F3F4F3",
"` c #F7F7F6",
"' c gray97",
"] c None",
/* pixels */
"]]]]]]]]]]]]]]]]]]]]]]",
"]]]]]]ooooo]]]]]]]]]]]",
"]]]mm]ooooo]mmmmmmm]]]",
"]]m]]]]]]]]]]]]]]]]m]]",
"]m]]]]]]]]]]]]]]]]]]m]",
"]m]]]]]]OXXO]]]]]]]]m]",
"]m]]]] Orhky+ ]]]]]]m]",
"]m]]] %BBADGJw ]]]]]m]",
"]m]]]OBBa16cLI#]]]]]m]",
"]m]]OtAa=-:3bWsO]]]]m]",
"]m]]XkA1-;,40!UX]]]]m]",
"]m]]XlG7:,25z^TX]]]]m]",
"]m]]OyJv3458M(gO]]]]m]",
"]m]]]+LPn0zM)`&]]]]]m]",
"]m]]] eW!~(_'i ]]]]]m]",
"]m]]]] $dUTg* ]]]]]]m]",
"]m]]]]]]OXXO]]]]]]]]m]",
"]m]]]]]]]]]]]]]]]]]]m]",
"]]m]]]]]]]]]]]]]]]]m]]",
"]]]mmmmmmmmmmmmmmmm]]]",
"]]]]]]]]]]]]]]]]]]]]]]",
"]]]]]]]]]]]]]]]]]]]]]]"
};
