/* XPM */
static char *separator_xpm[] = {
/* columns rows colors chars-per-pixel */
"22 22 51 1",
"  c #6984C9",
". c #778ACD",
"X c magenta",
"o c #ACA899",
"O c #8995D4",
"+ c #9494CD",
"@ c #9695D0",
"# c #9797D5",
"$ c #939EDD",
"% c #9D9FD5",
"& c #9998DA",
"* c #9B9AE0",
"= c #9D9DE6",
"- c #9E9FEC",
"; c #9EA9E6",
": c #A2A9DF",
"> c #A0A1F2",
", c #A2A2F7",
"< c #A3A3FC",
"1 c #A5A5FF",
"2 c #B3B5E5",
"3 c #B4B5FA",
"4 c #B6B8F0",
"5 c #C0C0C0",
"6 c #C4C4F3",
"7 c #C8C8F7",
"8 c #CBCBF8",
"9 c #D1D1F7",
"0 c #D4D4FC",
"q c #D8D8FF",
"w c #DFDFFE",
"e c #E2E2FE",
"r c #E3E3FF",
"t c #E4E4FF",
"y c #E5E5FF",
"u c #E6E6FF",
"i c #E7E7FF",
"p c #E9E9FE",
"a c #E9E9FF",
"s c #EAEAFF",
"d c #EBEBFF",
"f c #EDEDFF",
"g c #EFEFFF",
"h c #F0F0FF",
"j c #F1F1FF",
"k c #F3F3FF",
"l c #F6F6FF",
"z c #F7F7FF",
"x c #FCFCFF",
"c c gray100",
"v c None",
/* pixels */
"vvvvvvvvvvvvvvvvvvvvvv",
"vvvvvvvvvvvvvvvvvvvvvv",
"vvvvvvvvvvvvvvvvvvvvvv",
"vvvovvvvvvvvvo5vvvvvvv",
"vvvocvcvcvcvco5vvvvvvv",
"vvvoccccccccco5vvvvvvv",
"vvvoccccccccco5vvvvvvv",
"vvvoccccccccco5vvvvvvv",
"vvvoooooooo11o5vvvvvvv",
"vvvoccccccc1035vvvvvvv",
"vvvoccccccc<c75vvvvvvv",
"vvvoccccccc,ll4vvvvvvv",
"vvvocvcvcvc>jjg;vvvvvv",
"vvvovvvvvvv;ggpp$vvvvv",
"vvvvvvvvvvv=ppptrOvvvv",
"vvvvvvvvvvv*ttr:. vvvv",
"vvvvvvvvvvv&w+92vvvvvv",
"vvvvvvvvvvv#+v%q%vvvvv",
"vvvvvvvvvvv@vv%86%vvvv",
"vvvvvvvvvvvvvvv%%%vvvv",
"vvvvvvvvvvvvvvvvvvvvvv",
"vvvvvvvvvvvvvvvvvvvvvv"
};
