/* XPM */
static char *statusbar_xpm[] = {
/* columns rows colors chars-per-pixel */
"22 22 17 1",
"  c #716F64",
". c magenta",
"X c #ACA899",
"o c #BBB9AC",
"O c #BBB9AD",
"+ c #BBBAAD",
"@ c #BCB9AD",
"# c #CDCBBD",
"$ c #CECBBD",
"% c #CECCBD",
"& c #DFDCCD",
"* c #DFDDCD",
"= c #E0DCCD",
"- c #E0DDCD",
"; c #E0DDCE",
": c #ECE9D8",
"> c None",
/* pixels */
">>>>>>>>>>>>>>>>>>>>>>",
">>>>>>>>>>>>>>>>>>>>>>",
">>>>>>>>>>>>>>>>>>>>>>",
">>>>>>>>>>>>>>>>>>>>>>",
">>>>>>>>>>>>>>>>>>>>>>",
">>>>>>>>>>>>>>>>>>>>>>",
">>>>>>>>>>>>>>>>>>>>>>",
"OO@OO@O@OO@OOOO@O@OOO ",
"$%$%$%%%%%%$$%$$$$$$$ ",
"&*&&&&&&&&***&&****** ",
"::::::::::::::::::::: ",
"::::::::::::::::::X:: ",
"::::::::::::::::::::: ",
"::::::::::::::::X:X:: ",
"::::::::::::::::::::: ",
"::::::::::::::X:X:X:: ",
"::::::::::::::::::::: ",
"                      ",
">>>>>>>>>>>>>>>>>>>>>>",
">>>>>>>>>>>>>>>>>>>>>>",
">>>>>>>>>>>>>>>>>>>>>>",
">>>>>>>>>>>>>>>>>>>>>>"
};
