/* XPM */ 
static const unsigned char * toolseparator_xpm[] = {
"22 22 34 1",
" 	c None",
"!	c black",
"#	c #ACA899",
"$	c #ECE9D8",
"%	c #666699",
"&	c white",
"'	c #003399",
"(	c #FAFDFF",
")	c #F4FBFF",
"*	c #EBE8D7",
"+	c #0083D7",
",	c #1E92DF",
"-	c #F2FAFF",
".	c #EBF7FF",
"0	c #E2F4FF",
"1	c #0A87DA",
"2	c #2F9AE3",
"3	c #E6F6FF",
"4	c #DFF3FF",
"5	c #D6EFFF",
"6	c #168EDD",
"7	c #2394E1",
"8	c #329BE5",
"9	c #42A2E8",
":	c #DBF1FF",
";	c #CBEBFF",
"<	c #C8C8C8",
"=	c #D2EDFF",
">	c #C9EAFF",
"?	c #C1E7FF",
"@	c #48A5E9",
"A	c #E1DECE",
"B	c #E3E0D0",
"C	c #E1DDCE",
"                      ",
"                      ",
"                      ",
"                      ",
"                      ",
"                      ",
"######################",
"$$$$$$$$$$$#$$$$$$$$$$",
"$$%%%%$$$$&#$$$''''$$$",
"$$%&()%*$$&#$$'+&&,'$$",
"$$%(-.0%$$&#$$'1&&2'$$",
"$$%-345%$$&#$$'6789'$$",
"$$%3:5;%$$&#$$'<<<<'$$",
"$$%:=>?%$$&#$$'<@<<'$$",
"$$%%%%%%$$&#$$A''''B$$",
"CACCCAACCA&CCCCCACCACC",
"######################",
"                      ",
"                      ",
"                      ",
"                      ",
"                      "};