/* XPM */ 
static const unsigned char * sizer16x16_xpm[] = {
"16 16 5 1",
" 	c None",
"!	c black",
"#	c #00287C",
"$	c #0046D9",
"%	c #6C9DFF",
"  ############  ",
" #$%%%%%%%%%%$# ",
" #%          %# ",
" #%          %# ",
" #$%%%%%%%%%%$# ",
" ############## ",
" #$%%%%%%%%%%$# ",
" #%          %# ",
" #%          %# ",
" #$%%%%%%%%%%$# ",
" ############## ",
" #$%%%%%%%%%%$# ",
" #%          %# ",
" #%          %# ",
" #$%%%%%%%%%%$# ",
"  ############  "};