/* XPM */
static char *combo_box_xpm[] = {
/* columns rows colors chars-per-pixel */
"22 22 74 1",
"  c black",
". c #333366",
"X c magenta",
"o c #808080",
"O c #9BCDFF",
"+ c #9ECFFF",
"@ c #9ED0FF",
"# c #A0D2FF",
"$ c #A1D2FF",
"% c #A2D3FF",
"& c #A3D4FF",
"* c #A4D4FF",
"= c #A4D5FF",
"- c #A5D5FF",
"; c #A7D6FF",
": c #A7D7FF",
"> c #A8D8FF",
", c #AAD8FF",
"< c #AAD9FF",
"1 c #ACDAFF",
"2 c #AEDCFF",
"3 c #AFDCFF",
"4 c #B0DDFF",
"5 c #B4E0FF",
"6 c #B5E0FF",
"7 c #B7E2FF",
"8 c #B8E3FF",
"9 c #BAE4FF",
"0 c #BAE5FF",
"q c #BBE6FF",
"w c #BDE6FF",
"e c #BDE7FF",
"r c #BFE8FF",
"t c #C0E8FF",
"y c #C1E9FF",
"u c #C2EAFF",
"i c #C3ECFF",
"p c #C5ECFF",
"a c #C6EDFF",
"s c #C9EFFF",
"d c #CAF0FF",
"f c #CEF3FF",
"g c #DFFFFF",
"h c LightCyan",
"j c #E1FFFF",
"k c #E2FFFF",
"l c #E3FFFF",
"z c #E4FFFF",
"x c #E5FFFF",
"c c #E7FFFF",
"v c #E8FFFF",
"b c #E9FFFF",
"n c #EBFFFF",
"m c #ECFFFF",
"M c #EDFFFF",
"N c #EEFFFF",
"B c #EFFFFF",
"V c azure",
"C c #F1FFFF",
"Z c #F2FFFF",
"A c #F3FFFF",
"S c #F4FFFF",
"D c #F5FFFF",
"F c #F6FFFF",
"G c #F7FFFF",
"H c #F8FFFF",
"J c #F9FFFF",
"K c #FAFFFF",
"L c #FBFFFF",
"P c #FCFFFF",
"I c #FDFFFF",
"U c #FEFFFF",
"Y c gray100",
"T c None",
/* pixels */
"TTTTTTTTTTTTTTTTTTTTTT",
"TTTTTTTTTTTTTTTTTTTTTT",
"TTTTTTTTTTTTTTTTTTTTTT",
"TTTTTTTTTTTTTTTTTTTTTT",
"TTTTTTTTTTTTTTTTTTTTTT",
"TTTTTTTTTTTTTTTTTTTTTT",
"......................",
".YYYYYYYHHAACN.O+#==<.",
".YYYYYHYoHoCNN.+#=;14.",
".YY  YHHAoCNNn.#=<144.",
".YYYH AAAoNnnn.=ooooe.",
".YH   CCConnxx.<2oo9e.",
".Y AA CNNonxkk.255eei.",
".AH   NNoxokkk.58euas.",
".HACNNNnxxkkkg.9euadf.",
"......................",
"TTTTTTTTTTTTTTTTTTTTTT",
"TTTTTTTTTTTTTTTTTTTTTT",
"TTTTTTTTTTTTTTTTTTTTTT",
"TTTTTTTTTTTTTTTTTTTTTT",
"TTTTTTTTTTTTTTTTTTTTTT",
"TTTTTTTTTTTTTTTTTTTTTT"
};
