/* XPM */ 
static const unsigned char * document_xpm[] = {
"22 22 92 1",
" 	c None",
"!	c #86ACDC",
"#	c #8DB0DC",
"$	c #7BA7DC",
"%	c #7AA6DC",
"&	c #7AA4DA",
"'	c #79A2D8",
"(	c #79A1D8",
")	c #76A0D5",
"*	c #759ED4",
"+	c #739DD2",
",	c #729ACF",
"-	c #7099CE",
".	c #6F96CB",
"0	c #6C94C9",
"1	c #7A99C4",
"2	c #7193C2",
"3	c black",
"4	c #85ACDC",
"5	c #CEDCF1",
"6	c #A0C1EA",
"7	c #92B9E8",
"8	c #C5C8CD",
"9	c #FF6444",
":	c #A7C4E8",
";	c #6E90C0",
"<	c #7AA4DB",
"=	c #79A3DA",
">	c #78A1D7",
"?	c #769FD5",
"@	c #749ED3",
"A	c #739CD1",
"B	c #7097CD",
"C	c #6E95CB",
"D	c #6B91C7",
"E	c #698FC4",
"F	c #678DC3",
"G	c #668BC0",
"H	c #D4D4D4",
"I	c #D3D3D3",
"J	c #6387BD",
"K	c #79A3D9",
"L	c white",
"M	c #6085BA",
"N	c #FDFDFD",
"O	c #FCFCFC",
"P	c #FBFBFB",
"Q	c #FAFAFA",
"R	c #F8F8F8",
"S	c #F7F7F7",
"T	c #F5F5F5",
"U	c #5E81B7",
"V	c #6F97CC",
"W	c #6E94CA",
"X	c #6C92C8",
"Y	c #CECECE",
"Z	c #D6D6D6",
"[	c #F4F4F4",
"]	c #F3F3F3",
"^	c #5C7EB5",
"_	c #688EC3",
"`	c #6488BE",
"a	c #F2F2F2",
"b	c #5A7CB2",
"c	c #587AB0",
"d	c #5678AD",
"e	c #5475AC",
"f	c #5373AA",
"g	c #D2D2D2",
"h	c #D0D0D0",
"i	c #CDCDCD",
"j	c #CBCBCB",
"k	c #CACACA",
"l	c #C8C8C8",
"m	c #C6C6C6",
"n	c #C5C5C5",
"o	c #C3C3C3",
"p	c #C2C2C2",
"q	c #AFAFAF",
"r	c #5172A9",
"s	c #6C90C3",
"t	c #6185BB",
"u	c #5F83B9",
"v	c #5E80B6",
"w	c #5C7EB4",
"x	c #587BB1",
"y	c #5779AE",
"z	c #5676AD",
"{	c #5475AB",
"|	c #5373A9",
"}	c #5171A9",
"~	c #506FA2",
"!#$%&'()*+,-.012      ",
"45677777787879:;      ",
"$<='>?@A,BC0DEFG      ",
"<HHHHHHHHHHHIIIJ      ",
"KLLLLLLLLLLLLLLM      ",
"'LNNNNNNOPQRSTLU      ",
")LNN!#$%&'()*+,-.012  ",
"*LNN45677777787879:;  ",
"ALOP$<='>?@A,BC0DEFG  ",
",LQR<HHHHHHHHHHHIIIJ  ",
"VLSTKLLLLLLLLLLLLLLM  ",
"WLLL'LNNNNNNOPQRSTLU  ",
"XYZH)LNNNNOPQRST[]L^  ",
"X_G`*LNNOPQRST[]aaLb  ",
"    ALOPQRST[]aaaaLc  ",
"    ,LQRST[]aaaaaaLd  ",
"    VLST[]aaaaaaaaLe  ",
"    WLLLLLLLLLLLLLLf  ",
"    XYZHghijklmnopqr  ",
"    s_G`tuvwbxyz{|}~  ",
"                      ",
"                      "};