/* XPM */
static char *static_bitmap_xpm[] = {
/* columns rows colors chars-per-pixel */
"22 22 139 2",
"   c #03369B",
".  c #02389E",
"X  c #093FA1",
"o  c #0245AA",
"O  c #1143A3",
"+  c #1C51AB",
"@  c #1E52AB",
"#  c #1F52AC",
"$  c #1755B2",
"%  c #2053AC",
"&  c #2154AD",
"*  c #2255AD",
"=  c #2356AD",
"-  c #2456AD",
";  c #0B6DD0",
":  c #1D6AC5",
">  c #1871CE",
",  c #207CD5",
"<  c #4825B6",
"1  c #5123B9",
"2  c #7B1ACA",
"3  c #7E1ACB",
"4  c #3389DA",
"5  c #3A8FDD",
"6  c #6295AA",
"7  c #5190D5",
"8  c #4797E0",
"9  c #509CE3",
"0  c #569EE1",
"q  c #57A3E5",
"w  c #60A9E7",
"e  c #65ABE8",
"r  c #6DB1EB",
"t  c #75B7ED",
"y  c #79BAEE",
"u  c #7DBCEF",
"i  c #990000",
"p  c #AF4200",
"a  c #FF3300",
"s  c #FF3906",
"d  c #FF410D",
"f  c #FF4A16",
"g  c #FF4B16",
"h  c #FF5520",
"j  c #FF5620",
"k  c #FF602B",
"l  c #FF612A",
"z  c #FF612B",
"x  c #FF6D36",
"c  c #FF6E36",
"v  c #FF7A42",
"b  c #FF7A43",
"n  c magenta",
"m  c #AB8A1F",
"M  c #A99227",
"N  c #838E5F",
"B  c #BFB870",
"V  c #CB9500",
"C  c #CB9A06",
"Z  c #D8A500",
"A  c #DEAB00",
"S  c #D8A809",
"D  c #D5A119",
"F  c #D8AC15",
"G  c #DEB317",
"H  c #C7A62F",
"J  c #D8B124",
"K  c #DEBE37",
"L  c #E8B500",
"P  c #E8BA0E",
"I  c #E3A737",
"U  c #FF874E",
"Y  c #FF874F",
"T  c #FF945A",
"R  c #FF945B",
"E  c #E9A441",
"W  c #F3A957",
"Q  c #FFA166",
"!  c #FFA167",
"~  c #FFAD72",
"^  c #FFAE72",
"/  c #FFB97D",
"(  c #F6C300",
")  c #F7C400",
"_  c #F6C70C",
"`  c #F6C70D",
"'  c #FFCC00",
"]  c #FECD07",
"[  c #FECE07",
"{  c #FFCE07",
"}  c #FFD10F",
"|  c #FFD419",
" . c #FFD519",
".. c #FFD41A",
"X. c #FFD51A",
"o. c #E8C939",
"O. c #E8C83A",
"+. c #F7D129",
"@. c #F7D229",
"#. c #FFD825",
"$. c #FFD925",
"%. c #FFDC32",
"&. c #FFDD32",
"*. c #FFE13F",
"=. c #E8D151",
"-. c #E8D152",
";. c #F7D940",
":. c #F7DA41",
">. c #FFE54C",
",. c #FFE54D",
"<. c #FFE64D",
"1. c #F6E25F",
"2. c #FFEA5A",
"3. c #FFEE67",
"4. c #FFEF67",
"5. c #FFEE68",
"6. c #F6E870",
"7. c #F6E871",
"8. c #F7EC7B",
"9. c #F7ED7C",
"0. c #FFF274",
"q. c #FFF374",
"w. c #FEF57C",
"e. c #FEF57D",
"r. c #FFF77F",
"t. c #94A584",
"y. c #A8B38B",
"u. c #81BFF1",
"i. c #85C2F1",
"p. c #89C4F3",
"a. c #91CAF5",
"s. c #97CFF6",
"d. c #9DD3F9",
"f. c #B1CBC1",
"g. c #A4D7FA",
"h. c #FFF680",
"j. c #FFF780",
"k. c #FFFA8A",
"l. c None",
/* pixels */
"l.l.l.l.l.l.l.l.l.l.l.l.l.l.l.l.l.l.l.l.l.l.",
"l.l.l.l.l.l.l.l.l.l.l.l.l.l.l.l.l.l.l.l.l.l.",
"l.l.i i i i i i i i l.l.l.l.l.l.l.l.l.l.l.l.",
"l.i a s d g h z c v i l.l.l.l.l.l.l.l.l.l.l.",
"l.i s d g h z c v Y i l.l.l.l.l.l.l.l.l.l.l.",
"l.i d g j j c b Y T i l.l.Z Z Z l.l.l.l.l.l.",
"l.i g h z c b Y T ! p Z L ) [ _ P S l.l.l.l.",
"l.i h k c b Y R ! E A ) ' [ }  .#.@.G l.l.l.",
"l.i k c v Y T ! W Z ( ' [ }  .#.%.*.:.F l.l.",
"l.i c v Y T ! ^ I L ' [ }  .#.%.*.>.2.o.l.l.",
"l.i v Y T ! ^ / D ) [ }  .#.%.>.>.2.3.3.Z l.",
"l.l.i i i i i i V [ }  .#.%.&.>.2.4.7.e.Z l.",
"l.l.l.l.l.3 o ; M _  .#.&.&.<.2.4.q.e.6.Z l.",
"l.l.l.l.l.. > , N P #.%.>.>.2.5.q.j.k.=.l.l.",
"l.l.l.l.1 : 4 5 6 S @.*.<.2.5.q.j.k.8.J l.l.",
"l.l.l.2 $ 8 9 q w t.G :.2.5.q.j.k.9.K l.l.l.",
"l.l.l.X 0 e r t u i.y.F o.1.e.6.=.J l.l.l.l.",
"l.l.< 7 y u.p.a.s.d.g.f.B H C m J l.l.l.l.l.",
"l.l.  + + # % & & & - - - - - O l.l.l.l.l.l.",
"l.l.l.l.l.l.l.l.l.l.l.l.l.l.l.l.l.l.l.l.l.l.",
"l.l.l.l.l.l.l.l.l.l.l.l.l.l.l.l.l.l.l.l.l.l.",
"l.l.l.l.l.l.l.l.l.l.l.l.l.l.l.l.l.l.l.l.l.l."
};
