/* XPM */
static char *submenu_xpm[] = {
/* columns rows colors chars-per-pixel */
"22 22 77 1",
"  c #333366",
". c #0066CC",
"X c #6984C9",
"o c #778ACD",
"O c magenta",
"+ c #ACA899",
"@ c #8995D4",
"# c #9494CD",
"$ c #9695D0",
"% c #9797D5",
"& c #939EDD",
"* c #9D9FD5",
"= c #9998DA",
"- c #9B9AE0",
"; c #9D9DE6",
": c #9E9FEC",
"> c #9EA9E6",
", c #A2A9DF",
"< c #A0A1F2",
"1 c #A2A2F7",
"2 c #A3A3FC",
"3 c #A5A5FF",
"4 c #B3B5E5",
"5 c #B4B5FA",
"6 c #B6B8F0",
"7 c #C0C0C0",
"8 c #C4C4F3",
"9 c #C8C8F7",
"0 c #CBCBF8",
"q c #D1D1F7",
"w c #D4D4FC",
"e c #D8D8FF",
"r c #DFDFFE",
"t c #E2E2FE",
"y c #E3E3FF",
"u c #E4E4FF",
"i c #E5E5FF",
"p c #E6E6FF",
"a c #E7E7FF",
"s c #E9E9FE",
"d c #E9E9FF",
"f c #EAEAFF",
"g c #EBEBFF",
"h c #EDEDFF",
"j c #EFEFFF",
"k c LightCyan",
"l c #E1FFFF",
"z c #E3FFFF",
"x c #E4FFFF",
"c c #E5FFFF",
"v c #E7FFFF",
"b c #E8FFFF",
"n c #E9FFFF",
"m c #EBFFFF",
"M c #ECFFFF",
"N c #EDFFFF",
"B c #EEFFFF",
"V c #EFFFFF",
"C c #F0F0FF",
"Z c #F1F1FF",
"A c #F3F3FF",
"S c #F6F6FF",
"D c #F7F7FF",
"F c azure",
"G c #F1FFFF",
"H c #F2FFFF",
"J c #F3FFFF",
"K c #F4FFFF",
"L c #F9FFFF",
"P c #FAFFFF",
"I c #FBFFFF",
"U c #FCFCFF",
"Y c #FCFFFF",
"T c #FDFFFF",
"R c #FEFFFF",
"E c gray100",
"W c None",
/* pixels */
"EEEEEEEEE WWWWWWWWWWWW",
"E      LL 7WWWWWWWWWWW",
"LEELELLLL 7WWWWWWWWWWW",
".......E.            W",
".EEEEE.EE  EEEEEEEEE W",
".......E.  E      EL 7",
"KKJJJJBBB  EEELELLLL 7",
"           ......... 7",
"W777777777 .EEEEE... 7",
"WWWWWWWWWW ....33... 7",
"WWWWWWWWWW KJJJ3w5BB+7",
"WWWWWWWWWW     2L9++ 7",
"WWWWWWWWWW BBBm1DS6m 7",
"WWWWWWWWWW m   <AZZ> 7",
"WWWWWWWWWW mmcc:Chss&7",
"WWWWWWWWWW cccc;ssaiy@",
"WWWWWWWWWW l   -iiy,oX",
"WWWWWWWWWW kllk=r#q4 7",
"WWWWWWWWWW     %# *e*7",
"WWWWWWWWWWW7777$77*08*",
"WWWWWWWWWWWWWWWWWWW***",
"WWWWWWWWWWWWWWWWWWWWWW"
};
