/* XPM */ 
static const unsigned char * checklistbox_xpm[] = {
"22 22 48 1",
" 	c None",
"!	c black",
"#	c #333366",
"$	c white",
"%	c #DEFFFF",
"&	c #D4F8FC",
"'	c #D2F7FD",
"(	c #CBF1FB",
")	c #BDE8F8",
"*	c #B3E1F5",
"+	c #D9FCFE",
",	c #808080",
"-	c #B5E3F6",
".	c #AADBF3",
"0	c #A3D7F1",
"1	c #CDF4FB",
"2	c #C3ECF9",
"3	c #BAE6F7",
"4	c #AEDEF4",
"5	c #97CFEF",
"6	c #C7EFF9",
"7	c #A5D8F2",
"8	c #9AD0EF",
"9	c #8DC7EC",
":	c #0066CC",
";	c #3CBA00",
"<	c #CCCBCC",
"=	c #D0D0D0",
">	c #D7D7D6",
"?	c #DCDCDD",
"@	c #E3E4E3",
"A	c #EBEAEB",
"B	c #CCCBCB",
"C	c #F9FFFF",
"D	c #F5FFFF",
"E	c #D3F7FD",
"F	c #B8E5F6",
"G	c #EDFFFF",
"H	c #CCF3FB",
"I	c #AFDFF5",
"J	c #ECFFFF",
"K	c #8FC8ED",
"L	c #E3FFFF",
"M	c #BDE9F7",
"N	c #93CBEE",
"O	c #86C3EB",
"P	c #9FD3F0",
"Q	c #7ABAE9",
"                      ",
"                      ",
"                      ",
"######################",
"#$$$$$$$$$$$$$#%&'()*#",
"#$###$$$$$$$$$#+',,-.#",
"#$#$#$#######$#&,,,,0#",
"#$###$$$$$$$$$#123405#",
"#$$$$$$$$$$$$$#6)*789#",
"#:###:::::::::########",
"#:#;#$$$$$$$$:#<=>?@A#",
"#:###:::::::::#B=>?@A#",
"#CCCCCCC$CCCCC########",
"#D###DDDDDDDDD#E(2F40#",
"#G#G#G#######G#H23I75#",
"#G###JJJJJGGGJ#6,,,,K#",
"#JJLJJLJJLJLJL#M*,,NO#",
"#LLLLLLLLLLLLL#-.PNOQ#",
"######################",
"                      ",
"                      ",
"                      "};