/* XPM */
static char * colourPickerIcon_xpm[] = {
"16 10 37 1",
" 	c None",
".	c #B3B6AE",
"+	c #B9BBB3",
"@	c #B7B9B1",
"#	c #E1E3DC",
"$	c #E3E4DD",
"%	c #E2E4DD",
"&	c #B6B8B0",
"*	c #E0E2DA",
"=	c #BCBDB9",
"-	c #7A7B78",
";	c #797A76",
">	c #B4B6B1",
",	c #B5B7AF",
"'	c #DFE1D9",
")	c #8E8F8C",
"!	c #000000",
"~	c #B4B6AE",
"{	c #DDDFD7",
"]	c #8D8E8B",
"^	c #8E8E8C",
"/	c #AFB2A9",
"(	c #D6D9D0",
"_	c #8B8C89",
":	c #B1B4AB",
"<	c #D8DBD2",
"[	c #B2B4AF",
"}	c #7D7E7B",
"|	c #7D7E7C",
"1	c #B0B2AE",
"2	c #B3B6AD",
"3	c #DBDED5",
"4	c #D9DCD3",
"5	c #D8DBD3",
"6	c #B1B3AB",
"7	c #B2B5AC",
"8	c #ACAFA7",
".++++++++++++++.",
"@#$$$$$$$$$$$%#@",
"&*=--;-;--;-->*&",
",')!!!!!!!!!!)',",
"~{]!!!!!!!!!!^{~",
"/(_!!!!!!!!!!_(/",
"/(_!!!!!!!!!!_(/",
":<[}}|}||}|}}1<:",
"2345555555555532",
"6777777777777778"};
