/* XPM */
static char * scrollwin_xpm[] = {
"21 21 21 1",
" 	c None",
".	c #FFFFFF",
"+	c #FBFBFB",
"@	c #F8F8F8",
"#	c #808080",
"$	c #000000",
"%	c #F5F5F5",
"&	c #D7D7D7",
"*	c #D4D0C8",
"=	c #FDFDFD",
"-	c #D6D6D6",
";	c #FCFCFC",
">	c #D8D8D8",
",	c #F1F1F1",
"'	c #D9D9D9",
")	c #F3F3F3",
"!	c #0A0A0A",
"~	c #090909",
"{	c #060606",
"]	c #020202",
"^	c #101010",
".+........@....#####$",
"%&&&&&&&&&&&&&&#...*$",
"=&&&&&&&&&&&&&&#.$#*$",
".&&&&&&&&&&&&&&#.$#*$",
".&-&&&&&&&&&&&&#****$",
";&>&&&&&&&&&&&&#$$$$$",
".&&&&&&&&&&&&&>#...*$",
"=&-&&&&&&&&&&&&#.***$",
"+&&&&&&&&&&&&&&#.***$",
".&&&&&&&&&&&&&&#$$$$$",
".&&&&&&&&&&&&&&#*.*.$",
"+&&&&&&&&&&&&&&#.*.*$",
".&&&&&&&&&&&&&&#*.*.$",
"@&&&&&&&&&&&&&&#.*.*$",
".&&&&&&&&&&&&&&#*.*.$",
",&&&&&&&&'&&'&&#$$$$$",
".&&&&&&&&&&&&&&#...*$",
".&&&&&&&&&&&&&&#.$#*$",
")&&&&&&&&&&&&&&#.$#*$",
".&&&&&&&&&&&&&&#****$",
"$$!~${]$^${$$$]$$$$$$"};
