/* XPM */ 
static const unsigned char * spinbtn_xpm[] = {
"21 21 33 1",
" 	c None",
"!	c black",
"#	c #333366",
"$	c #DEFFFF",
"%	c #D4F8FC",
"&	c #D2F7FD",
"'	c #CBF1FB",
"(	c #BDE8F8",
")	c #B3E1F5",
"*	c #D9FCFE",
"+	c #808080",
",	c #B5E3F6",
"-	c #AADBF3",
".	c #A3D7F1",
"0	c #CDF4FB",
"1	c #C3ECF9",
"2	c #BAE6F7",
"3	c #AEDEF4",
"4	c #97CFEF",
"5	c #C7EFF9",
"6	c #A5D8F2",
"7	c #9AD0EF",
"8	c #8DC7EC",
"9	c #D3F7FD",
":	c #B8E5F6",
";	c #CCF3FB",
"<	c #AFDFF5",
"=	c #8FC8ED",
">	c #BDE9F7",
"?	c #93CBEE",
"@	c #86C3EB",
"A	c #9FD3F0",
"B	c #7ABAE9",
"                     ",
"                     ",
"                     ",
"                     ",
"       ########      ",
"       #$%&'()#      ",
"       #*&++,-#      ",
"       #%++++.#      ",
"       #0123.4#      ",
"       #5()678#      ",
"       ########      ",
"       #9'1:3.#      ",
"       #;12<64#      ",
"       #5++++=#      ",
"       #>)++?@#      ",
"       #,-A?@B#      ",
"       ########      ",
"                     ",
"                     ",
"                     ",
"                     "};