/* XPM */
static char * splitter_window_xpm[] = {
"21 21 29 1",
" 	c None",
".	c #FFFFFF",
"+	c #000000",
"@	c #FEFEFE",
"#	c #FBFBFB",
"$	c #FCFCFC",
"%	c #0D0D0D",
"&	c #D6D6D6",
"*	c #7A7A7A",
"=	c #7C7C7C",
"-	c #D7D7D7",
";	c #D5D5D5",
">	c #020202",
",	c #7D7D7D",
"'	c #DADADA",
")	c #D3D3D3",
"!	c #7E7E7E",
"~	c #161616",
"{	c #F2F2F2",
"]	c #D9D9D9",
"^	c #787878",
"/	c #797979",
"(	c #D8D8D8",
"_	c #F8F8F8",
":	c #121212",
"<	c #050505",
"[	c #111111",
"}	c #090909",
"|	c #080808",
"..........+......@#$%",
"$&&&&&&&&*+.&&&&&&&*+",
"@&&&&&&&&=+@-;-&--&*>",
"@&&&&&&&&=+@-;-&--&*>",
"@&&&&&&&&=+@-;-&--&*>",
"@&&&&&&&&=+@-;-&--&*>",
"@&&&&&&&&=+@-;-&--&*>",
"@&&&&&&&&=+@-;-&--&*>",
"@&&&&&&&&=+@-;-&--&*>",
"@&&&&&&&&=+@-;&&--&*>",
"@&&&&&&&-,+.&&&&'-&*>",
"@&&&&&&&)!~{&&&&&-&*>",
"@&&&&&&=====&&&&&-&*>",
"@&&&&&&=...==&&&;-&*>",
"@&&&&&&=$..==&'&&-&*>",
"@&&&&&&=...==&;&&-&*>",
"@&&&&&&======&&&&-&*>",
"@]&&&&&&^====&&&&&&*>",
".&&&&&&&&/>.&&&&&&(*+",
".=========+_========:",
"++++++++++<+[++}|%++>"};
