/* XPM */ 
static const unsigned char * toggle_button_xpm[] = {
"22 22 14 1",
" 	c None",
"!	c black",
"#	c #CFD9EC",
"$	c #003399",
"%	c #CBEBFF",
"&	c #C7EAFF",
"'	c #D0EDFF",
"(	c #D9F0FF",
")	c #E3F4FF",
"*	c #E8F6FF",
"+	c #ECF7FF",
",	c #F0F9FF",
"-	c #F4FBFF",
".	c #FAFDFF",
"                      ",
"                      ",
"                      ",
"                      ",
"                      ",
"                      ",
"#$$$$$$$$$$$$$$$$$$$$#",
"$%%%%%%%%%%%%%%%%%%%%$",
"$&&&&&&!!&&!&&&!&&&&'$",
"$'''''!''!'!!''!''''($",
"$(((((!((!(!(!(!(((()$",
"$)))))!))!)!)!)!))))*$",
"$+++++!++!+!++!!++++,$",
"$------!!--!---!-----$",
"$....................$",
"#$$$$$$$$$$$$$$$$$$$$#",
"                      ",
"                      ",
"                      ",
"                      ",
"                      ",
"                      "};