/* XPM */
static char * tree_ctrl_xpm[] = {
"21 21 6 1",
" 	c None",
".	c #000000",
"+	c #00FFFF",
"@	c #7B797B",
"#	c #FFFF00",
"$	c #00FF00",
"  ...                ",
"  .+. @@@@@@         ",
"  ...                ",
"   .                 ",
"   .  ...            ",
"   ....#. @@@@@@     ",
"   .  ...            ",
"   .   .             ",
"   .   .  ...        ",
"   .   ....$. @@@@@@ ",
"   .   .  ...        ",
"   .   .             ",
"   .   .  ...        ",
"   .   ....$. @@@@@@ ",
"   .      ...        ",
"   .                 ",
"   .  ...            ",
"   ....#. @@@@@@     ",
"      ...            ",
"       .             ",
"       .             "};
