/* XPM */
static char * large_hd_unmount_xpm[] = {
"48 48 217 2",
"  	c None",
". 	c #262626",
"+ 	c #000000",
"@ 	c #DADADA",
"# 	c #C4C4C4",
"$ 	c #AFAEAE",
"% 	c #ACACAC",
"& 	c #B1B1B1",
"* 	c #373737",
"= 	c #3C3C3C",
"- 	c #444444",
"; 	c #9D9D9D",
"> 	c #2D2D2D",
", 	c #BA7A33",
"' 	c #DAA56D",
") 	c #E9C398",
"! 	c #FBE9D6",
"~ 	c #EBC7A1",
"{ 	c #D99F61",
"] 	c #BB7326",
"^ 	c #292929",
"/ 	c #15110D",
"( 	c #D19758",
"_ 	c #DDAF7E",
": 	c #E5BE93",
"< 	c #EBC8A2",
"[ 	c #F7E2CA",
"} 	c #ECC9A4",
"| 	c #EAC59C",
"1 	c #E9C196",
"2 	c #ECC9A3",
"3 	c #AB6922",
"4 	c #2B2B2B",
"5 	c #3B3B3B",
"6 	c #7C4A12",
"7 	c #D2A069",
"8 	c #C68947",
"9 	c #CB9355",
"0 	c #D9A975",
"a 	c #E0B688",
"b 	c #EAC49A",
"c 	c #F1D4B5",
"d 	c #F7E1C8",
"e 	c #D69A59",
"f 	c #B67125",
"g 	c #D8A873",
"h 	c #E5BD93",
"i 	c #EDCAA5",
"j 	c #F6E0C7",
"k 	c #EFCEAA",
"l 	c #ECCAA6",
"m 	c #F9E5D1",
"n 	c #F5E0C8",
"o 	c #F5DEC5",
"p 	c #EECFAD",
"q 	c #9C5E1D",
"r 	c #A96A26",
"s 	c #B27129",
"t 	c #B67631",
"u 	c #C18645",
"v 	c #D8A976",
"w 	c #EAC59E",
"x 	c #EECDAA",
"y 	c #F2DAC2",
"z 	c #F5E2CD",
"A 	c #F3DFC9",
"B 	c #F3DDC7",
"C 	c #CC853A",
"D 	c #C38036",
"E 	c #AA6D2A",
"F 	c #A56928",
"G 	c #BD8345",
"H 	c #E4BC90",
"I 	c #F4D9BE",
"J 	c #EAC69F",
"K 	c #EED0AE",
"L 	c #F2D6B9",
"M 	c #F0D8BD",
"N 	c #F6E5D3",
"O 	c #8A5318",
"P 	c #C28340",
"Q 	c #BA7731",
"R 	c #AB6C28",
"S 	c #9E6425",
"T 	c #CC9961",
"U 	c #DFB485",
"V 	c #F0D2B2",
"W 	c #EFD4B6",
"X 	c #EED2B5",
"Y 	c #CF8D46",
"Z 	c #CD975C",
"` 	c #C68E52",
" .	c #E3B583",
"..	c #E5BA8D",
"+.	c #E4B786",
"@.	c #EDCEAB",
"#.	c #724414",
"$.	c #D6A168",
"%.	c #DBAC79",
"&.	c #BF7D36",
"*.	c #C3833D",
"=.	c #945F26",
"-.	c #331801",
";.	c #200D00",
">.	c #3D1F00",
",.	c #A3631F",
"'.	c #D59755",
").	c #ECCCA9",
"!.	c #E7C096",
"~.	c #E6BD91",
"{.	c #E7BF92",
"].	c #D19553",
"^.	c #DEB282",
"/.	c #E2B88B",
"(.	c #CF914E",
"_.	c #AE7333",
":.	c #63411A",
"<.	c #040302",
"[.	c #110201",
"}.	c #C57D30",
"|.	c #E7BF94",
"1.	c #E6BD8F",
"2.	c #E4B888",
"3.	c #E3B687",
"4.	c #502C06",
"5.	c #E1B17E",
"6.	c #5B3309",
"7.	c #0A0906",
"8.	c #DDBA94",
"9.	c #915718",
"0.	c #E9C39B",
"a.	c #E9C49D",
"b.	c #E1C19F",
"c.	c #80613F",
"d.	c #0B0000",
"e.	c #D2924C",
"f.	c #F0CFAE",
"g.	c #F0D0AF",
"h.	c #6A3D0D",
"i.	c #F6DDC3",
"j.	c #F2D4B6",
"k.	c #492703",
"l.	c #C29C74",
"m.	c #BFA384",
"n.	c #845D34",
"o.	c #6E400E",
"p.	c #F0D0AD",
"q.	c #715B42",
"r.	c #423326",
"s.	c #EECDA9",
"t.	c #EAC8A6",
"u.	c #EACBAA",
"v.	c #EBCEAF",
"w.	c #E2C4A4",
"x.	c #515151",
"y.	c #646464",
"z.	c #858585",
"A.	c #AC9883",
"B.	c #2F1600",
"C.	c #AF6A22",
"D.	c #555555",
"E.	c #595959",
"F.	c #7E7E7E",
"G.	c #959595",
"H.	c #8C8884",
"I.	c #403F3E",
"J.	c #BC7629",
"K.	c #A66724",
"L.	c #AE6F2B",
"M.	c #616161",
"N.	c #4D4D4D",
"O.	c #7B7B7B",
"P.	c #828282",
"Q.	c #494949",
"R.	c #969696",
"S.	c #A3A3A3",
"T.	c #A7A7A7",
"U.	c #A4A4A3",
"V.	c #ACABAB",
"W.	c #A0A0A0",
"X.	c #414141",
"Y.	c #6C645C",
"Z.	c #E0BF9C",
"`.	c #C38540",
" +	c #BE803A",
".+	c #CB8942",
"++	c #FFFFFF",
"@+	c #5F5F5F",
"#+	c #757575",
"$+	c #6D6D6D",
"%+	c #9F9F9F",
"&+	c #A4A3A0",
"*+	c #989796",
"=+	c #4F4D4B",
"-+	c #877C70",
";+	c #E2C8AC",
">+	c #E9C59E",
",+	c #6B6B6B",
"'+	c #919191",
")+	c #D2C2B0",
"!+	c #844E15",
"~+	c #C3C3C3",
"{+	c #676767",
"]+	c #D39858",
"^+	c #C58B4D",
"/+	c #DEB78D",
"(+	c #F8E3CC",
"_+	c #696969",
":+	c #3C210D",
"<+	c #4E4E4E",
"[+	c #535353",
"}+	c #9A9A9A",
"|+	c #4B4B4B",
"1+	c #939393",
"2+	c #898989",
"3+	c #B8B8B8",
"4+	c #8E8E8E",
"                                                                                                ",
"                                              . + + + + + +                                     ",
"                                            . @ # $ % & # @ +                                   ",
"                                          . @ * * = = = - ; @ +                                 ",
"                                        . @ = = = = = = = = = @ +                               ",
"                                      . @ = = > > > > > > > = = @ +                             ",
"                                    . @ = > > , ' ) ! ~ { ] > = = @ +                           ",
"                                  ^ @ / > ] ( _ : < [ } | 1 2 2 3 = @ +                         ",
"                                4 @ 5 6 7 8 9 0 a ~ [ } b b } c d e = @ +                       ",
"                              > @ = f f , , 8 g h i j k | 2 l m n o p 3 @ +                     ",
"                            4 @ 5 q 3 r s t u v 1 < d } b w x y z A B p 3 @ +                   ",
"                          4 @ = C D s E F t G 7 H < I ~ ~ J K L M z N N p > @ +                 ",
"                        4 @ . O v P Q R S t u T U < V } J p W X y N N z I e > @ +               ",
"                      4 @ = . Y Z ` 8 Q s t u Z 0  .....+.@.M M y W W V l 2 > = @ +             ",
"                    4 @ = > #.$.7 7 %.9 P &.*.8 =.-.;.>.,.'.} p ).~ !.~.{.) ,.> = @ +           ",
"                  4 @ = = > ].U ^./.a _ ' (._.:./ <.+ [.O }.Y b |.1.2.3.1 ) '.4.> = @ +         ",
"                ^ @ = = = 4.5.: /.|.!.h ..&.6.7.:._.8.7 =.9.6.1...+.1.0.} ~ 5.6.> = = @ +       ",
"              ^ @ = = = > 6. .} 0.| J 0.a.r [.-.g b.8.c.` d.6 e.} < i f.g.g.} h.> = = = @ +     ",
"            . @ = = = > / h.[ i.j I L j.V ,.>.k.l.m._.:.n.k.>.,.V j.L I o o ! o./ > = = # +     ",
"          . @ = = = > / / o.c L L c p.g.g.e.6 d.T q.r.r.=.-.[.,.~ | a.0.J s.5.6.. / > = @ +     ",
"        . @ > . . / / / / 6.t.u.v.w.b.8.8.8.6.9.=.7 m.S <.+ k.] 1 h a /.!.J %.6.. / / @ x.+     ",
"      . @ > y.% z.x./ / / 6.l.m.m.m.m.m.m.A.c.n.O [.+ + + B.C.C $.g g _ ^./.e.. / / @ x.D.+     ",
"    . @ > E.% F.G.% % % % % % % % % % % % H.I.q.,.>.;.B.6 J.K.L.*.].$.T T $.#./ / @ x.x.x.+     ",
"  . @ M.N.O.P.> Q.G.R.R.S.% T.U.V.$ $ W.> X.Y.Z. ..... .' `.S =.E &.*. +8 .+/ / @ x.x.x.N.+     ",
"  . ++M.Q.@+S.#+$+%+% $ % $ &+*+#+> X.=+-+;+i.c ~ } V >+g 8 _.=.S R R Q ` h./ @ x.x.x.N.+       ",
"  . T.++,+/ $+; $ % S.'+#+/ / > X.A.)+y I d I k 2 ~ I a.%.9 u t L.R K.3 !+/ @ x.x.x.x.+         ",
"  . ; ~+++{+/ / . . / / / / / / ]+[ j N ! n p.~ | } d < U 9 ^+u D }.J.q / @ x.x.x.x.+           ",
"  . P.; ~+++M./ . . / / / / / / / e p z z m l 2 | k d s./+` G .+C }.K./ @ x.x.x.x.+             ",
"  . $+P.W.~+++M.. / / / / / / / / / e L d c } b b } (+s./+T ` (.(.O / @ x.D.x.x.+               ",
"    . _+z.%+~+++M./ / / / / / / / / / / ] 2 2 1 | } (+g.~ %.].J.:+/ @ x.D.x.<++                 ",
"      . $+z.%+~+++M./ / / / / / / / / / / / d.] { ~ ! b { C.[.. / @ [+D.x.x.+                   ",
"        . $+P.}+~+++M./ / / / / / / / / / / / / / / / / / / . . @ x.x.x.x.+                     ",
"          . $+P.G.~+++M./ / / / / / / / / / / / / / / / / . . @ x.x.|+<++                       ",
"            . _+F.G.~+++M./ / / / / / / / / / / / / / / / / @ x.x.Q.|++                         ",
"              . _+F.1+~+++M./ / / / / / / / / / / / / / / @ x.x.<+<++                           ",
"                . $+P.G.~+++M./ / / / / / / / / / / / / @ x.x.<+Q.+                             ",
"                  . _+z.}+~+++M./ / / / / / / / / / / @ x.x.Q.Q.+                               ",
"                    . $+2+%+~+++M./ / / / / / / / / @ Q.N.<+<++                                 ",
"                      . $+2+S.~+++M.. / / / / / / @ Q.Q.Q.Q.+                                   ",
"                        . $+2+S.~+++M.. . . . . @ Q.<+Q.<++                                     ",
"                          . $+'+S.~+++M.. . . @ <+Q.<+Q.+                                       ",
"                            . $+'+S.~+++++@ @ <+Q.<+Q.+                                         ",
"                              . $+'+W.3+3+3+O.<+Q.Q.+                                           ",
"                                . _+4+W.T.T.O.Q.Q.+                                             ",
"                                  . $+'+O.O.O.<++                                               ",
"                                    + + + + + +                                                 ",
"                                                                                                ",
"                                                                                                "};
