/* XPM */
static char * calendar_xpm[] = {
"21 21 7 1",
" 	c None",
".	c #808080",
"+	c #000000",
"@	c #000080",
"#	c #FFFFFF",
"$	c #C0C0C0",
"%	c #800000",
"                     ",
"                     ",
"                     ",
"  ...............+   ",
"  .@@@@@@@.......+   ",
"  .@@@@@@@.......+   ",
"  .##$##$##$##$##+   ",
"  .##$##$##$##$##+   ",
"  .$$$$$$$$%%%%$$+   ",
"  .##$##$##%##%##+   ",
"  .##$##$##%##%##+   ",
"  .$$$$$$$$%%%%$$+   ",
"  .##$##$##$##$##+   ",
"  .##$##$##$##$##+   ",
"  .$$$$$$$$$$$$$$+   ",
"  .##$##$##$##$##+   ",
"  .##$##$##$##$##+   ",
"  ++++++++++++++++   ",
"                     ",
"                     ",
"                     "};
