/* XPM */ 
static const unsigned char * colourpickericon_xpm[] = {
"22 22 8 1",
" 	c None",
"!	c black",
"#	c #CFD9EC",
"$	c #003399",
"%	c #FAFDFF",
"&	c #C5C5C5",
"'	c #9B0032",
"(	c #CBEBFF",
"                      ",
"                      ",
"                      ",
"                      ",
"                      ",
"                      ",
"#$$$$$$$$$$$$$$$$$$$$#",
"$%%%%%%%%%%%%%%%%%%%%$",
"$&''''''''''''''''''&$",
"$&'!'!!'!'''!'!''!''&$",
"$&!''!'!'!'!!''!'!!'&$",
"$&'!'!!'!!''!'!''!''&$",
"$&!''!'''!''!''!'!''&$",
"$&''''''''''''''''''&$",
"$(((((((((((((((((((($",
"#$$$$$$$$$$$$$$$$$$$$#",
"                      ",
"                      ",
"                      ",
"                      ",
"                      ",
"                      "};