/* XPM */
static char * htmlwin_xpm[] = {
"21 21 11 1",
" 	c None",
".	c #000000",
"+	c #FFFFFF",
"@	c #C0C0C0",
"#	c #000080",
"$	c #0000FF",
"%	c #00FF00",
"&	c #00C000",
"*	c #0000C0",
"=	c #008000",
"-	c #FFFF00",
"                     ",
"                     ",
"      ............   ",
"      .+++@##@+++.   ",
"      .++#$%&$#++.   ",
"      .+@$$&$**@+.   ",
"      .+#=$$***#+.   ",
"      .+#%$$**%#+.   ",
"      .+@&&**%&@+.   ",
"      .++&$$#=#++.   ",
"      .+++@##@+++.   ",
"  ...........++++.   ",
"  .$-$$-$$-$-.+++.   ",
"  .$$$$$$$$$--.++.   ",
"  .----------.@++.   ",
"  ...........@+++.   ",
"      .++++++++++.   ",
"      ............   ",
"                     ",
"                     ",
"                     "};
