/* XPM */ 
static const unsigned char * listbook_xpm[] = {
"21 21 9 1",
" 	c None",
"!	c #787878",
"#	c #848284",
"$	c #D2D2D2",
"%	c white",
"&	c #808080",
"'	c #000084",
"(	c #EBEBEB",
")	c black",
"!!!!!!!!!!!!!!!!!!!!!",
"#########$$$$$$$$$$$!",
"#%%%%%%%#$&&&&&&&&&&!",
"#%''''%%#$&%%%%%%%%%!",
"#%%%%%%%#$&%%%%%%%%%!",
"#%'''''%#$&&&&&&&&&&!",
"#%%%%%%%#$$$$$$$$$$$!",
"#%''''%%#$&&&&&&&&&&!",
"#%%%%%%%#$&%%%%%%%%%!",
"#'''''''#$&%%%%%%%%%!",
"#'''''''#$&&&&&&&&&&!",
"#'%%%%%'#$$$$$$$$$$$!",
"#'''''''#$$$$$$$$$$$!",
"#'''''''#$((((((((((!",
"#%%%%%%%#$($$)$$)$)(!",
"#%%%%%%%#$($)$)$))$(!",
"#%%%%%%%#$($$)$$)$)(!",
"#%%%%%%%#$((((((((((!",
"#%%%%%%%#$##########!",
"#########$$$$$$$$$$$!",
"!!!!!!!!!!!!!!!!!!!!!"};