/* XPM */
static char * radio_button_xpm[] = {
"21 21 5 1",
" 	c None",
".	c #848284",
"+	c #000000",
"@	c #FFFFFF",
"#	c #C6C3C6",
"                     ",
"                     ",
"                     ",
"                     ",
"        ....         ",
"      ..++++..       ",
"     .++@@@@++@      ",
"     .+@@@@@@#@      ",
"    .+@@@++@@@#@     ",
"    .+@@++++@@#@     ",
"    .+@@++++@@#@     ",
"    .+@@@++@@@#@     ",
"     .+@@@@@@#@      ",
"     .##@@@@##@      ",
"      @@####@@       ",
"        @@@@         ",
"                     ",
"                     ",
"                     ",
"                     ",
"                     "};
