/* XPM */
static char * scrollbar_xpm[] = {
"21 21 5 1",
" 	c None",
".	c #808080",
"+	c #000000",
"@	c #FFFFFF",
"#	c #D4D0C8",
"                     ",
"                     ",
"                     ",
"                     ",
"                     ",
"                     ",
"                     ",
"....................+",
".@@@#+@@@+#@#@#+@@@#+",
".@++#+@##+@#@#@+@++#+",
".@..#+@##+#@#@#+@..#+",
".####+###+@#@#@+####+",
"+++++++++++++++++++++",
"                     ",
"                     ",
"                     ",
"                     ",
"                     ",
"                     ",
"                     ",
"                     "};
