/* XPM */
static char * spinbtn_xpm[] = {
"21 21 7 1",
" 	c None",
".	c #141414",
"+	c #D6D6D6",
"@	c #D4D4D4",
"#	c #000000",
"$	c #0A0A0A",
"%	c #0D0D0D",
"                     ",
"                     ",
"                     ",
"     ...........     ",
"     .+++@+@+++.     ",
"     .++++#++++.     ",
"     .+++...+++.     ",
"     .++.....++.     ",
"     .+.......+.     ",
"     .+++++++++.     ",
"     ...........     ",
"     $+++++++++$     ",
"     .+.......+.     ",
"     .++.....++.     ",
"     .+++...+++.     ",
"     .++++.++++.     ",
"     .+++++++++.     ",
"     #%%%%%%%%%#     ",
"                     ",
"                     ",
"                     "};
