/* XPM */
static char * spin_ctrl_xpm[] = {
"21 21 38 1",
" 	c None",
".	c #000000",
"+	c #060608",
"@	c #000002",
"#	c #020202",
"$	c #010101",
"%	c #080808",
"&	c #131313",
"*	c #FFFFFF",
"=	c #F7F7F7",
"-	c #FDFDFD",
";	c #EBEBEB",
">	c #FCFCFC",
",	c #D4D4D4",
"'	c #070707",
")	c #CFCFCF",
"!	c #8F8F8F",
"~	c #FBFBFB",
"{	c #040404",
"]	c #050505",
"^	c #7C7C7C",
"/	c #0C0C0C",
"(	c #090909",
"_	c #111111",
":	c #6B6B6B",
"<	c #0B0B0B",
"[	c #0A0A0A",
"}	c #F6F6F6",
"|	c #FEFEFE",
"1	c #030303",
"2	c #CDCDCD",
"3	c #BFBFBF",
"4	c #737373",
"5	c #787878",
"6	c #838383",
"7	c #797979",
"8	c #828282",
"9	c #888888",
"                     ",
"                     ",
"                     ",
"                     ",
"                     ",
"                     ",
" .+.@.@.@.@.#$.#%... ",
" &**********=.-*;>*# ",
" .**--------*#>,')!. ",
" .**********~.*.{]^$ ",
" $**********-/**=**. ",
" %**---------.*.(_:< ",
" [}|*********1*2.34[ ",
" .*|*********.56789. ",
" {<.$$$$$$$$$$$$$$$$ ",
"                     ",
"                     ",
"                     ",
"                     ",
"                     ",
"                     "};
