/* XPM */
static char * toggle_button_xpm[] = {
"21 21 22 1",
" 	c None",
".	c #7C7C7C",
"+	c #FCFCFC",
"@	c #000000",
"#	c #060606",
"$	c #BEBEBE",
"%	c #C2C2C2",
"&	c #BFBFBF",
"*	c #010101",
"=	c #C1C1C1",
"-	c #050505",
";	c #0C0C0C",
">	c #040404",
",	c #070707",
"'	c #0E0E0E",
")	c #111111",
"!	c #080808",
"~	c #030303",
"{	c #020202",
"]	c #BCBCBC",
"^	c #0D0D0D",
"/	c #1D1D1D",
"                     ",
"                     ",
"                     ",
" ..................+ ",
" .@@@@@@@@@@@@@@#@@+ ",
" .@$$$$$$$$$$$$$$$$+ ",
" .@$$$%$$$&&$$$$$$$+ ",
" .@$$$$$$$$$$$$$$$$+ ",
" .@$$$$#@$$*$$@$$$$+ ",
" .@$=$@$$-$@$$;$$$$+ ",
" .@$$$>$$@$,@$@$$$$+ ",
" .@$$$'$$)$!$~@$$$$+ ",
" .@$%$@$${${$$@$$$$+ ",
" .@$]$$@@$$^=$/$$$$+ ",
" .@$$$$$$$$$$$$$$$$+ ",
" .@$$$$$$$$$$$$$$$$+ ",
" .@$$$$$$$$$$$$$$$$+ ",
" +++++++++++++++++++ ",
"                     ",
"                     ",
"                     "};
