/* XPM */ 
static const unsigned char * calendar_xpm[] = {
"22 22 197 2",
"  	c None",
"! 	c black",
"# 	c #1A67A7",
"$ 	c #4783BC",
"% 	c #4E87BF",
"& 	c #4C87BE",
"' 	c #4D87BE",
"( 	c #4A85BE",
") 	c #427FBC",
"* 	c #417FBB",
"+ 	c #3979BA",
", 	c #3A79BA",
"- 	c #3B7AB9",
". 	c #1D69A7",
"0 	c #3C7BBA",
"1 	c #95B0EB",
"2 	c #8CAAE6",
"3 	c #8AA8E6",
"4 	c #759AE1",
"5 	c #86A6E5",
"6 	c #8FADE7",
"7 	c #3C71D4",
"8 	c #ABC1ED",
"9 	c #B5C6F3",
": 	c #2F72B7",
"; 	c #1F64B5",
"< 	c #4173D7",
"= 	c #3C71D3",
"> 	c #3D71D4",
"? 	c #3D72D4",
"@ 	c #376DD2",
"A 	c #3F73D4",
"B 	c #7A9EE2",
"C 	c #88A8E5",
"D 	c #2E67D0",
"E 	c #B5C8EF",
"F 	c #A8BEEF",
"G 	c #1963B4",
"H 	c #1660B2",
"I 	c #346FC7",
"J 	c #3A75C5",
"K 	c #3B76C6",
"L 	c #3773C2",
"M 	c #3672C2",
"N 	c #3671C1",
"O 	c #3873C3",
"P 	c #3A75C6",
"Q 	c #447BC4",
"R 	c #4B82C8",
"S 	c #3E78C7",
"T 	c #3F78C6",
"U 	c #3A73C8",
"V 	c #1861B3",
"W 	c #0F5CAE",
"X 	c #81A9D6",
"Y 	c #E7EFF4",
"Z 	c #E7EFF5",
"[ 	c #CFD8DD",
"] 	c #CBD4D9",
"^ 	c #CBD3D9",
"_ 	c #D0D9DE",
"` 	c #C6CFD4",
"a 	c #D5DDE2",
"b 	c #E7F0F5",
"c 	c #C0C9D0",
"d 	c #D3DDE3",
"e 	c #E5EEF4",
"f 	c #80A7D6",
"g 	c #115EAE",
"h 	c #92B4DD",
"i 	c white",
"j 	c #EAE9E7",
"k 	c #E7E6E4",
"l 	c #E7E5E4",
"m 	c #ECEAE9",
"n 	c #E1E0DE",
"o 	c #F0EEED",
"p 	c #DDDBDA",
"q 	c #F3F2F0",
"r 	c #1561AF",
"s 	c #95B6DF",
"t 	c #EAEAEA",
"u 	c #E7E7E7",
"v 	c #E6E6E6",
"w 	c #EBEBEB",
"x 	c #E2E2E2",
"y 	c #F0F0F0",
"z 	c #DDDDDD",
"{ 	c #F2F2F2",
"| 	c #1A64B2",
"} 	c #89AAD1",
"~ 	c #E6E6E5",
" !	c #DADADA",
"!!	c #D8D8D8",
"#!	c #DBDBDB",
"$!	c #D5D5D5",
"%!	c #E0E3EB",
"&!	c #EAEDF6",
"'!	c #E9EDF6",
"(!	c #D7DBE2",
")!	c #DEDFE0",
"*!	c #2067B3",
"+!	c #89A9CF",
",!	c #E2E2DF",
"-!	c #E2E1E1",
".!	c #D7D7D7",
"0!	c #E1E1E1",
"1!	c #D6D6D6",
"2!	c #BA9344",
"3!	c #BA9242",
"4!	c #BC9643",
"5!	c #A8843D",
"6!	c #D3CEC4",
"7!	c #E4E4E6",
"8!	c #2268B2",
"9!	c #9BBBE0",
":!	c #EEEEEE",
";!	c #ECECEC",
"<!	c #EFEFEF",
"=!	c #E5E3E0",
">!	c #C79A32",
"?!	c #FCF47B",
"@!	c #FCE153",
"A!	c #B08019",
"B!	c #E5DDCD",
"C!	c #256BB3",
"D!	c #9EBCDF",
"E!	c #EDEDED",
"F!	c #CBA239",
"G!	c #FFED3C",
"H!	c #FFBB00",
"I!	c #AD6D00",
"J!	c #E6E0D5",
"K!	c #2A6FB4",
"L!	c #9EBCDE",
"M!	c #FCFCFB",
"N!	c #FBFBFC",
"O!	c #FBFBFB",
"P!	c #FCFCFC",
"Q!	c #E8E6E6",
"R!	c #B4861F",
"S!	c #CD9B1F",
"T!	c #C57A00",
"U!	c #975900",
"V!	c #E4DDCE",
"W!	c #FCFDFE",
"X!	c #2E73B7",
"Y!	c #97B4D5",
"Z!	c #E7E7E5",
"[!	c #E0E1E1",
"]!	c #BAA781",
"^!	c #B5A078",
"_!	c #B6A47D",
"`!	c #B5A07A",
"a!	c #DEDBD4",
"b!	c #E9E9EB",
"c!	c #3075B6",
"d!	c #A3C0DF",
"e!	c #FBFBFA",
"f!	c #F1F1F1",
"g!	c #F9FDFF",
"h!	c #F2F6FC",
"i!	c #F5F5F6",
"j!	c #FBFAFA",
"k!	c #3477B7",
"l!	c #A9C4E3",
"m!	c #F7F7F6",
"n!	c #F6F6F5",
"o!	c #F5F4F4",
"p!	c #F3F3F3",
"q!	c #F9F9F8",
"r!	c #F2F1F1",
"s!	c #FAFAF9",
"t!	c #3A7AB8",
"u!	c #A7C4E1",
"v!	c #FFFFFE",
"w!	c #F8F7F6",
"x!	c #F9F8F7",
"y!	c #FBFAF9",
"z!	c #F4F4F3",
"{!	c #FCFBFA",
"|!	c #4884BC",
"}!	c #8FB2DA",
"~!	c #95B8D7",
" #	c #99BBDA",
"!#	c #96B8D7",
"##	c #96B8D6",
"$#	c #95B7D6",
"%#	c #95B6D5",
"&#	c #94B6D5",
"'#	c #97B9D8",
"(#	c #1565A3",
")#	c #427FB9",
"*#	c #3075B3",
"+#	c #2F75B2",
",#	c #3076B3",
"-#	c #3075B2",
"                                            ",
"                                            ",
"# $ % & & & & & & & & & & & ' ( ) * + , - . ",
"0 1 2 2 2 2 2 2 2 2 2 2 2 2 3 4 5 6 7 8 9 : ",
"; < = = > ? = = ? > = = ? 7 @ A B C D E F G ",
"H I J K L M K K M L K K N O J P Q R S T U V ",
"W X Y Z [ ] Z Z ^ _ Z Z ` a Z b c d Z e f W ",
"g h i i j k i i l m i i n o i i p q i i h g ",
"r s i i t u i i v w i i x y i i z { i i s r ",
"| } ~ v  !!!v v !!#!v v $!%!&!'!(!)!~ ~ } | ",
"*!+!,!-!!!.!x 0!1!!!x x $!2!3!4!5!6!7!,!+!*!",
"8!9!i i :!;!i i w <!i i =!>!?!@!A!B!i i 9!8!",
"C!D!i i <!E!i i E!y i i l F!G!H!I!J!i i D!C!",
"K!L!M!N!:!;!O!P!w <!P!O!Q!R!S!T!U!V!W!M!L!K!",
"X!Y!Z!u x 0!u u x x u u [!]!^!_!`!a!b!Z!Y!X!",
"c!d!e!O!f!<!O!O!y f!O!O!E!g!i i h!i!j!e!d!c!",
"k!l!i i m!n!i i o!m!i i p!q!i i r!s!i i l!k!",
"t!u!v!i q!w!i i m!x!i i n!y!i i z!{!i v!u!t!",
"|!}!~! #!### # #$#!# # #%#!# # #&#'# #~!}!|!",
"(#)#*#+#,#,#+#+#,#,#+#+#,#*#+#+#,#-#+#*#)#(#",
"                                            ",
"                                            "};