/* XPM */
static char * dataviewtree_ctrl_xpm[] = {
"21 21 10 1",
" 	c None",
".	c #3E9ADE",
"+	c #858585",
"@	c #FFFFFF",
"#	c #555753",
"$	c #FF3300",
"%	c #386093",
"&	c #FFCC00",
"*	c #1871CE",
"=	c #5CAD25",
".....................",
".++++++++++++++++++++",
".+@@@@@@@@@@@@@@@@@@@",
".+@@#@@@@@@@@@@@@@@@@",
".+@#$@%%%%%%@@@@@@@@@",
".+@@@@@@@@@@@@@@@@@@@",
".+@@@@#@@@@@@@@@@@@@@",
".+@@@#&@%%%%%%@@@@@@@",
".+@@@@@@@@@@@@@@@@@@@",
".+@@@@@@#@@@@@@@@@@@@",
".+@@@@@#*@%%%%%%@@@@@",
".+@@@@@@@@@@@@@@@@@@@",
".+@@@@@@#@@@@@@@@@@@@",
".+@@@@@#*@%%%%%%@@@@@",
".+@@@@@@@@@@@@@@@@@@@",
".+@@@@@@@@#@@@@@@@@@@",
".+@@@@@@@#=@%%%%%%@@@",
".+@@@@@@@@@@@@@@@@@@@",
".+@@@@#@@@@@@@@@@@@@@",
".+@@@#&@%%%%%%@@@@@@@",
".+@@@@@@@@@@@@@@@@@@@"};
