/* XPM */ 
static const unsigned char * datepicker_xpm[] = {
"22 22 178 2",
"  	c None",
"! 	c #1A67A7",
"# 	c #4783BC",
"$ 	c #4E87BF",
"% 	c #4C87BE",
"& 	c #4D87BE",
"' 	c #4A85BE",
"( 	c #427FBC",
") 	c #417FBB",
"* 	c #3979BA",
"+ 	c #3A79BA",
", 	c #3B7AB9",
"- 	c #1D69A7",
". 	c #3C7BBA",
"0 	c #95B0EB",
"1 	c #8CAAE6",
"2 	c #8AA8E6",
"3 	c #759AE1",
"4 	c #86A6E5",
"5 	c #8FADE7",
"6 	c #3C71D4",
"7 	c #ABC1ED",
"8 	c #B5C6F3",
"9 	c #2F72B7",
": 	c #1F64B5",
"; 	c #4173D7",
"< 	c #3C71D3",
"= 	c #3D71D4",
"> 	c #3D72D4",
"? 	c #376DD2",
"@ 	c #3F73D4",
"A 	c #7A9EE2",
"B 	c #88A8E5",
"C 	c #2E67D0",
"D 	c #B5C8EF",
"E 	c #A8BEEF",
"F 	c #1963B4",
"G 	c #1660B2",
"H 	c #346FC7",
"I 	c #3A75C5",
"J 	c #3B76C6",
"K 	c #3773C2",
"L 	c #3672C2",
"M 	c #3671C1",
"N 	c #3873C3",
"O 	c #3A75C6",
"P 	c #447BC4",
"Q 	c #4B82C8",
"R 	c #3E78C7",
"S 	c #3F78C6",
"T 	c #3A73C8",
"U 	c #1861B3",
"V 	c #0F5CAE",
"W 	c #81A9D6",
"X 	c #E7EFF4",
"Y 	c #E7EFF5",
"Z 	c #CFD8DD",
"[ 	c #BA9344",
"] 	c #BA9242",
"^ 	c #BC9643",
"_ 	c #A8843D",
"` 	c #D0D9DE",
"a 	c #C6CFD4",
"b 	c #D5DDE2",
"c 	c #E7F0F5",
"d 	c #C0C9D0",
"e 	c #D3DDE3",
"f 	c #E5EEF4",
"g 	c #80A7D6",
"h 	c #115EAE",
"i 	c #92B4DD",
"j 	c white",
"k 	c #EAE9E7",
"l 	c #C79A32",
"m 	c #FCF47B",
"n 	c #FCE153",
"o 	c #B08019",
"p 	c #ECEAE9",
"q 	c #E1E0DE",
"r 	c #F0EEED",
"s 	c #DDDBDA",
"t 	c #F3F2F0",
"u 	c #1561AF",
"v 	c #95B6DF",
"w 	c #EAEAEA",
"x 	c #CBA239",
"y 	c #FFED3C",
"z 	c #FFBB00",
"{ 	c #AD6D00",
"| 	c #EBEBEB",
"} 	c #E2E2E2",
"~ 	c #F0F0F0",
" !	c #DDDDDD",
"!!	c #F2F2F2",
"#!	c #1A64B2",
"$!	c #89AAD1",
"%!	c #E6E6E5",
"&!	c #E6E6E6",
"'!	c #DADADA",
"(!	c #B4861F",
")!	c #CD9B1F",
"*!	c #C57A00",
"+!	c #975900",
",!	c #DBDBDB",
"-!	c #668EB0",
".!	c #E9EDF6",
"0!	c #D7DBE2",
"1!	c #DEDFE0",
"2!	c #2067B3",
"3!	c #89A9CF",
"4!	c #E2E2DF",
"5!	c #E2E1E1",
"6!	c #D8D8D8",
"7!	c #BAA781",
"8!	c #B5A078",
"9!	c #B6A47D",
":!	c #B5A07A",
";!	c #9CB7CF",
"<!	c #EBF2F9",
"=!	c #E4E4E6",
">!	c #2268B2",
"?!	c #9BBBE0",
"@!	c #EEEEEE",
"A!	c #ECECEC",
"B!	c #C3D9EE",
"C!	c #256BB3",
"D!	c #9EBCDF",
"E!	c #EFEFEF",
"F!	c #EDEDED",
"G!	c #AECCE8",
"H!	c #2A6FB4",
"I!	c #9EBCDE",
"J!	c #FCFCFB",
"K!	c #FBFBFC",
"L!	c #FBFBFB",
"M!	c #FCFCFC",
"N!	c #FCFDFE",
"O!	c #2E73B7",
"P!	c #97B4D5",
"Q!	c #E7E7E5",
"R!	c #E7E7E7",
"S!	c #E1E1E1",
"T!	c #DCE9F5",
"U!	c #96BCE1",
"V!	c #71A5D6",
"W!	c #E9E9EB",
"X!	c #3075B6",
"Y!	c #A3C0DF",
"Z!	c #FBFBFA",
"[!	c #F1F1F1",
"]!	c #96B3CD",
"^!	c #FBFAFA",
"_!	c #3477B7",
"`!	c #A9C4E3",
"a!	c #F7F7F6",
"b!	c #F6F6F5",
"c!	c #B7B6AC",
"d!	c #BA945C",
"e!	c #3A7AB8",
"f!	c #A7C4E1",
"g!	c #FFFFFE",
"h!	c #F9F9F8",
"i!	c #F8F7F6",
"j!	c #D6BD9A",
"k!	c #4884BC",
"l!	c #8FB2DA",
"m!	c #95B8D7",
"n!	c #99BBDA",
"o!	c #96B8D7",
"p!	c #96B8D6",
"q!	c #95B7D6",
"r!	c #F9E9D0",
"s!	c #1565A3",
"t!	c #427FB9",
"u!	c #3075B3",
"v!	c #2F75B2",
"w!	c #3076B3",
"x!	c black",
"! # $ % % % % % % % % % % % & ' ( ) * + , - ",
". 0 1 1 1 1 1 1 1 1 1 1 1 1 2 3 4 5 6 7 8 9 ",
": ; < < = > < < > = < < > 6 ? @ A B C D E F ",
"G H I J K L J J L K J J M N I O P Q R S T U ",
"V W X Y Z [ ] ^ _ ` Y Y a b Y c d e Y f g V ",
"h i j j k l m n o p j j q r j j s t j j i h ",
"u v j j w x y z { | j j } ~ j j  !!!j j v u ",
"#!$!%!&!'!(!)!*!+!,!&!-!-!-!-!.!0!1!%!%!$!#!",
"2!3!4!5!6!7!8!9!:!6!-!;!<!<!;!-!=!=!=!4!3!2!",
">!?!j j @!A!j j | -!;!<!B!B!<!;!-!=!j j ?!>!",
"C!D!j j E!F!j j -!;!<!B!G!G!B!<!;!-!j j D!C!",
"H!I!J!K!@!A!L!M!-!<!B!G!G!G!G!B!<!-!N!J!I!H!",
"O!P!Q!R!} S!R!R!-!T!U!V!V!V!V!U!T!-!W!Q!P!O!",
"X!Y!Z!L![!E!L!L!-!]!T!U!V!V!U!T!]!-!^!Z!Y!X!",
"_!`!j j a!b!j j c!-!]!T!U!U!T!]!-!d!c!j `!_!",
"e!f!g!j h!i!j j a!c!-!]!T!T!]!-!d!j!d!c!f!e!",
"k!l!m!n!o!p!n!n!q!o!c!-!-!-!-!d!j!r!j!d!c!k!",
"s!t!u!v!w!w!v!v!w!w!v!c!c!c!c!c!d!j!r!j!d!c!",
"                                c!d!j!r!j!d!",
"                                  c!d!j!d!c!",
"                                    c!d!c!  ",
"                                      c!    "};