/* XPM */ 
static const unsigned char * filepicker_xpm[] = {
"22 22 82 1",
" 	c None",
"!	c #888A85",
"#	c #878984",
"$	c black",
"%	c white",
"&	c #DEDEDE",
"'	c #E1E1E1",
"(	c #E0E0E0",
")	c #E1E0E1",
"*	c #E1E1E2",
"+	c #E2E2E2",
",	c #E3E3E3",
"-	c #E4E4E3",
".	c #E4E4E4",
"0	c #E4E5E5",
"1	c #E5E5E5",
"2	c #DFDFDF",
"3	c #A8A9A6",
"4	c #A8AAA6",
"5	c #A9AAA7",
"6	c #E4E3E3",
"7	c #E5E4E4",
"8	c #E6E6E5",
"9	c #E6E6E6",
":	c #E6E6E7",
";	c #E7E6E7",
"<	c #E6E7E7",
"=	c #E7E7E7",
">	c #729FCF",
"?	c #E8E8E8",
"@	c #E3E4E4",
"A	c #A8C2CC",
"B	c #EDF1D6",
"C	c #C0D4C4",
"D	c #9AB8D8",
"E	c #E9E9E9",
"F	c #ADAFAC",
"G	c #B1C8C7",
"H	c #F4F5E4",
"I	c #D1DFC3",
"J	c #668EB0",
"K	c #EAEBEA",
"L	c #A3BFCF",
"M	c #9BB9D9",
"N	c #9CB7CF",
"O	c #EBF2F9",
"P	c #8998AD",
"Q	c #8999AE",
"R	c #8A9AAF",
"S	c #C3D9EE",
"T	c #E7E6E6",
"U	c #6D7A92",
"V	c #6E7B92",
"W	c #AECCE8",
"X	c #E7E8E7",
"Y	c #AEAFAD",
"Z	c #EAEAEA",
"[	c #DCE9F5",
"]	c #96BCE1",
"^	c #71A5D6",
"_	c #E9E8E8",
"`	c #AAACA9",
"a	c #ABACA9",
"b	c #ACACAA",
"c	c #96B3CD",
"d	c #E9E9E8",
"e	c #E9EAEA",
"f	c #EBEBEB",
"g	c #B7B6AC",
"h	c #BA945C",
"i	c #ACADAA",
"j	c #D6BD9A",
"k	c #EAEAEB",
"l	c #ECEDEC",
"m	c #EDEDEE",
"n	c #F9E9D0",
"o	c #ECECEC",
"p	c #ECEDED",
"q	c #EEEEED",
"r	c #EFEEEF",
"s	c #F0F0F0",
"t	c #868883",
"!!!!!!!!!!!!!!!!!#    ",
"!%%%%%%%%%%%%%%%%!    ",
"!%&'()*++,-..01.%!    ",
"!%2+'33334555551%!    ",
"!%(,++67..89:;<=%!    ",
"!%'.,>>>>>>>>>>?%!    ",
"!%+9@>ABCDDDDD>E%!    ",
"!%F97>GHIDDJJJJK%!    ",
"!%.%1>DLDMJNOONJ%!    ",
"!%1=8>PQRJNOSSONJ!    ",
"!%9?T>UVJNOSWWSONJ    ",
"!%9EX>>>JOSWWWWSOJ    ",
"!%YE??EZJ[]^^^^][J    ",
"!%=%_`abJc[]^^][cJ    ",
"!%?Z?defgJc[]][cJh    ",
"!%?Z_`aiigJc[[cJhjh   ",
"!%?fEEkflmgJJJJhjnjh  ",
"!%?fEkopqrsggggghjnjh ",
"!%%%%%%%%%%%%%%%ghjnjh",
"t!!!!!!!!!!!!!!!!ghjhg",
"                  ghg ",
"                   g  "};