/* XPM */ 
static const unsigned char * fontpicker_xpm[] = {
"22 22 108 2",
"  	c None",
"! 	c #FEFEFE",
"# 	c #FDFDFD",
"$ 	c #FCFCFC",
"% 	c #FCFCFB",
"& 	c #FBFBFA",
"' 	c #FAFAFA",
"( 	c #D0DEEB",
") 	c #B8CDE4",
"* 	c #F8F8F8",
"+ 	c #F8F8F7",
", 	c #F7F7F6",
"- 	c #F6F6F6",
". 	c #F6F6F5",
"0 	c #8F918C",
"1 	c black",
"2 	c #FBFBFB",
"3 	c #F6F7F8",
"4 	c #84ABD4",
"5 	c #9AB9DA",
"6 	c #F5F5F4",
"7 	c #FDFDFC",
"8 	c #FAFAF9",
"9 	c #B9CEE4",
": 	c #719ECE",
"; 	c #80A6D0",
"< 	c #F4F4F3",
"= 	c #F9F9F9",
"> 	c #EBF0F3",
"? 	c #93B4D7",
"@ 	c #77A0CE",
"A 	c #6795C6",
"B 	c #F1F3F3",
"C 	c #F9F9F8",
"D 	c #A2BFDD",
"E 	c #D6E1EC",
"F 	c #8AADD2",
"G 	c #6290C4",
"H 	c #D9E1EA",
"I 	c #F4F4F2",
"J 	c #F3F3F2",
"K 	c #DBE4EE",
"L 	c #9BB9DA",
"M 	c #A0BBD8",
"N 	c #5D8CC0",
"O 	c #BCCDDF",
"P 	c #F2F2F1",
"Q 	c #F7F8F7",
"R 	c #8FB1D6",
"S 	c #E5EBF0",
"T 	c #B9CBDF",
"U 	c #5887BD",
"V 	c #9FB7D5",
"W 	c #F2F2F0",
"X 	c #C3D4E6",
"Y 	c #ACC3DD",
"Z 	c #D1DCE7",
"[ 	c #5483BA",
"] 	c #82A2C8",
"^ 	c #668EB0",
"_ 	c #F0F2F4",
"` 	c #76A0CD",
"a 	c #AEC4DC",
"b 	c #B2C6DD",
"c 	c #B0C4DB",
"d 	c #A5BCD6",
"e 	c #4F7EB6",
"f 	c #9CB7CF",
"g 	c #EBF2F9",
"h 	c #ABC3DD",
"i 	c #A8C0DC",
"j 	c #C5D4E4",
"k 	c #C4D3E3",
"l 	c #C1D0E0",
"m 	c #BFCEDF",
"n 	c #C3D9EE",
"o 	c #E2E9EF",
"p 	c #7BA1CC",
"q 	c #F2F3F3",
"r 	c #F5F5F3",
"s 	c #AECCE8",
"t 	c #F5F6F6",
"u 	c #87AAD0",
"v 	c #BBCDE0",
"w 	c #F3F3F1",
"x 	c #BBCDE2",
"y 	c #6793C5",
"z 	c #F2F3F2",
"{ 	c #DCE9F5",
"| 	c #96BCE1",
"} 	c #71A5D6",
"~ 	c #BDCFE1",
" !	c #6490C3",
"!!	c #5E8BBF",
"#!	c #ABC1D9",
"$!	c #EDEEEF",
"%!	c #EAECED",
"&!	c #96B3CD",
"'!	c #F1F1F0",
"(!	c #F1F1EF",
")!	c #B7B6AC",
"*!	c #BA945C",
"+!	c #F0F0EE",
",!	c #EFEFED",
"-!	c #D6BD9A",
".!	c white",
"0!	c #F9E9D0",
"1!	c #888A85",
"! ! # # $ % & ' ( ) * + , - . ! 0           ",
"! # # $ 2 & ' 3 4 5 + , . . 6 ! 0           ",
"# 7 $ 2 & ' 8 9 : ; , . . 6 < ! 0           ",
"7 $ 2 & ' = > ? @ A B . 6 < < ! 0           ",
"$ 2 & ' = C D E F G H 6 < I J ! 0           ",
"2 & 8 = C K L , M N O < I J P ! 0           ",
"& 8 = C Q R S . T U V I J P W ! 0           ",
"8 = C + X Y . 6 Z [ ] ^ ^ ^ ^ ! 0           ",
"= C + _ ` a b c d e ^ f g g f ^ 0           ",
"* + , h i j k l m ^ f g n n g f ^           ",
"+ , o p q r < J ^ f g n s s n g f ^         ",
", t u v r < J w ^ g n s s s s n g ^         ",
". x y z < J w W ^ { | } } } } | { ^         ",
"~  !!!#!$!w W %!^ &!{ | } } | { &!^         ",
"6 < I J P W '!(!)!^ &!{ | | { &!^ *!        ",
"< I J P W '!(!+!,!)!^ &!{ { &!^ *!-!*!      ",
".!.!.!.!.!.!.!.!.!.!)!^ ^ ^ ^ *!-!0!-!*!    ",
"1!1!1!1!1!1!1!1!1!1!1!)!)!)!)!)!*!-!0!-!*!  ",
"                                )!*!-!0!-!*!",
"                                  )!*!-!*!)!",
"                                    )!*!)!  ",
"                                      )!    "};