/* XPM */
static char *list_box_xpm[] = {
/* columns rows colors chars-per-pixel */
"22 22 71 1",
"  c #333366",
". c #0066CC",
"X c #7ABAE9",
"o c magenta",
"O c #808080",
"+ c #85C1EB",
"@ c #86C3EB",
"# c #8DC7EC",
"$ c #8FC8ED",
"% c #91CAEE",
"& c #93CBEE",
"* c #97CFEF",
"= c #99CFF0",
"- c #9AD0EF",
"; c #9FD3F0",
": c #A1D5F1",
"> c #A3D7F1",
", c #A3D6F2",
"< c #A5D8F2",
"1 c #A6D9F2",
"2 c #AADBF3",
"3 c #AEDEF4",
"4 c #AFDFF5",
"5 c #B0DFF5",
"6 c #B2E1F5",
"7 c #B3E1F5",
"8 c #B5E3F6",
"9 c #B8E5F6",
"0 c #BAE6F7",
"q c #BDE9F7",
"w c #BEE8F7",
"e c #BDE8F8",
"r c #CCCBCB",
"t c #CCCBCC",
"y c #D0D0D0",
"u c gray84",
"i c #D7D7D6",
"p c #DCDCDD",
"a c #DDDCDD",
"s c #C2ECF8",
"d c #C3ECF9",
"f c #C4EEF9",
"g c #C7EFF9",
"h c #C8EFFA",
"j c #CBF1FB",
"k c #CCF3FB",
"l c #CDF4FB",
"z c #D0F6FC",
"x c #D2F7FD",
"c c #D3F7FD",
"v c #D4F8FC",
"b c #D8FAFD",
"n c #D9FCFE",
"m c #DEFFFF",
"M c #E3E4E3",
"N c #EAEBEB",
"B c #EBEAEB",
"V c #E3FFFF",
"C c #E4FFFF",
"Z c #E7FFFF",
"A c #E8FFFF",
"S c #ECFFFF",
"D c #EDFFFF",
"F c azure",
"G c #F1FFFF",
"H c #F5FFFF",
"J c #F6FFFF",
"K c #F9FFFF",
"L c #FAFFFF",
"P c gray100",
"I c None",
/* pixels */
"IIIIIIIIIIIIIIIIIIIIII",
"IIIIIIIIIIIIIIIIIIIIII",
"IIIIIIIIIIIIIIIIIIIIII",
"                      ",
" PPPPPPPPPPPPP mvxje7 ",
" PPPPPPPPPPPPP nxOO82 ",
" P           P vOOOO> ",
" PPPPPPPPPPPPP ld03>* ",
" PPPPPPPPPPPPP ge7<-# ",
" .............        ",
" .PPPPPPPPPPP. tyipMB ",
" ............. ryipMB ",
" KKKKKKKPKKKKK        ",
" HHHHHHHHHHHHH cjd93> ",
" D           D kd04<* ",
" DDDSSSSSSDDDS gOOOO$ ",
" SSVSSVSSVSVSV q7OO&@ ",
" VVVVVVVVVVVVV 82;&@X ",
"                      ",
"IIIIIIIIIIIIIIIIIIIIII",
"IIIIIIIIIIIIIIIIIIIIII",
"IIIIIIIIIIIIIIIIIIIIII"
};
