/* XPM */
static char * propgridpage_xpm[] = {
"21 21 8 1",
" 	c None",
".	c #FF0018",
"+	c #000000",
"@	c #DEDEDE",
"#	c #858585",
"$	c #2C2C2C",
"%	c #FFFFFF",
"&	c #B8B8B8",
".....+++             ",
".+@+.+@+             ",
".+++.+++             ",
".   .                ",
".+++.................",
".##$##$#############.",
".#$#$$##############.",
".##%%%%%%%%&%%%%%%%%.",
".##%%%%%%%%&%%%%%%%%.",
".##&&&&&&&&&&&&&&&&&.",
".##%%%%%%%%&%%%%%%%%.",
".##%%%%%%%%&%%%%%%%%.",
".##&&&&&&&&&&&&&&&&&.",
".##%%%%%%%%&%%%%%%%%.",
".##%%%%%%%%&%%%%%%%%.",
".##$##$#############.",
".#$#$$##############.",
".##%%%%%%%%&%%%%%%%%.",
".##%%%%%%%%&%%%%%%%%.",
".##&&&&&&&&&&&&&&&&&.",
".##%%%%%%%%&%%%%%%%%."};
