/* XPM */ 
static const unsigned char * propgridman_xpm[] = {
"21 21 7 1",
" 	c None",
"!	c black",
"#	c #DEDEDE",
"$	c #858585",
"%	c #2C2C2C",
"&	c white",
"'	c #B8B8B8",
" !!! !!!             ",
" !#! !#!             ",
" !!! !!!             ",
"                     ",
"!!!!!!!!!!!!!!!!!!!!!",
"!$$%$$%$$$$$$$$$$$$$!",
"!$%$%%$$$$$$$$$$$$$$!",
"!$$&&&&&&&&'&&&&&&&&!",
"!$$&&&&&&&&'&&&&&&&&!",
"!$$'''''''''''''''''!",
"!$$&&&&&&&&'&&&&&&&&!",
"!$$&&&&&&&&'&&&&&&&&!",
"!$$'''''''''''''''''!",
"!$$&&&&&&&&'&&&&&&&&!",
"!$$&&&&&&&&'&&&&&&&&!",
"!$$%$$%$$$$$$$$$$$$$!",
"!$%$%%$$$$$$$$$$$$$$!",
"!$$&&&&&&&&'&&&&&&&&!",
"!$$&&&&&&&&'&&&&&&&&!",
"!$$'''''''''''''''''!",
"!$$&&&&&&&&'&&&&&&&&!"};