/* XPM */
static char * ribbon_bar_xpm[] = {
"22 22 4 1",
" 	c None",
".	c #333366",
"+	c #0066CC",
"@	c #FFFFFF",
"                      ",
"                      ",
"                      ",
"......................",
".+++++++@@@@@@@@@@@@@@",
".+@@@@@+@+++++@@@@@@@@",
".+@@@@@+@+++++@@@@@@@@",
".+++++++@@@@@@@@@@@@@@",
"......................",
".@@@@@@@@@@@@@.@@@@@@@",
".@+++@+++@+++@.@+++@++",
".@+++@+++@+++@.@+++@++",
".@+++@+++@+++@.@+++@++",
".@+++@+++@+++@.@+++@++",
".@+++@+++@+++@.@+++@++",
".@@@@@@@@@@@@@.@@@@@@@",
"......................",
"                      ",
"                      ",
"                      ",
"                      ",
"                      "};
