/* XPM */
static char * ribbon_buttonbar_xpm[] = {
"22 22 4 1",
" 	c None",
".	c #333366",
"+	c #FFFFFF",
"@	c #0066CC",
"                      ",
"                      ",
"                      ",
"                      ",
"......................",
".+++++++++++++++++++++",
".+.....++.....++.....+",
".+++++++++++++++++++++",
"......................",
".+++++++++++++++++++.+",
".++@@@+@@@+@@@+@@@++.+",
".++@@@+@@@+@@@+@@@++.+",
".++@@@@@@@@@@@@@@@++.+",
".++@@@@@@@@@@@@@@@++.+",
".++@@@+@@@+@@@+@@@++.+",
".++@@@+@@@+@@@+@@@++.+",
".+++++++++++++++++++.+",
"......................",
"                      ",
"                      ",
"                      ",
"                      "};
