/* XPM */
static const char * scintilla_xpm[] = {
"22 22 81 1",
" 	c None",
".	c #F9F9F9",
"+	c #FAFAFA",
"@	c #FBFBFB",
"#	c #F8F8F8",
"$	c #F7F7F7",
"%	c #F6F6F6",
"&	c #EEEEEE",
"*	c #DFDFDF",
"=	c #FEFEFE",
"-	c #FDFDFD",
";	c #FCFCFC",
">	c #F4F4F4",
",	c #CFCFCF",
"'	c #DBDBDB",
")	c #CBCBCB",
"!	c #E6E6E6",
"~	c #DCDCDC",
"{	c #D4D4D4",
"]	c #E8E8E8",
"^	c #E0E0E0",
"/	c #B0B0B0",
"(	c #AAAAAA",
"_	c #E2E2E2",
":	c #CECECE",
"<	c #F5F5F5",
"[	c #F3F3F3",
"}	c #CCCCCC",
"|	c #F2F2F2",
"1	c #F1F1F1",
"2	c #A2A2A2",
"3	c #828282",
"4	c #7C7C7C",
"5	c #B3B3B3",
"6	c #D5D5D5",
"7	c #F0F0F0",
"8	c #DADADA",
"9	c #E5E5E5",
"0	c #A7A7A7",
"a	c #FFFFFF",
"b	c #666666",
"c	c #ECECEC",
"d	c #8A8A8A",
"e	c #C3C3C3",
"f	c #CACACA",
"g	c #A4A4A4",
"h	c #8E8E8E",
"i	c #585858",
"j	c #424242",
"k	c #4E4E4E",
"l	c #AFAFAF",
"m	c #686868",
"n	c #474747",
"o	c #4C4C4C",
"p	c #838383",
"q	c #545454",
"r	c #515151",
"s	c #2E2E2E",
"t	c #565656",
"u	c #969696",
"v	c #4D4D4D",
"w	c #2F2F2F",
"x	c #1D1D1D",
"y	c #818181",
"z	c #999999",
"A	c #ACACAC",
"B	c #CDCDCD",
"C	c #EFEFEF",
"D	c #C0C0C0",
"E	c #C8C8C8",
"F	c #EDEDED",
"G	c #EBEBEB",
"H	c #C9C9C9",
"I	c #EAEAEA",
"J	c #E9E9E9",
"K	c #E7E7E7",
"L	c #E1E1E1",
"M	c #DEDEDE",
"N	c #DDDDDD",
"O	c #D9D9D9",
"P	c #D1D1D1",
"  .+@+....#$$%&*      ",
"  #====--;;@@+>,'     ",
"  #;=-;;;@@++.+)!~    ",
"  #;--;;@@+..#.{+]^   ",
"  $@;@@+@.+##$#{/()_  ",
"  %@@@@++.##$%%$.#&:  ",
"  %@@@+..##%%%<>>[[}  ",
"  <.+.+.#$%%<>>[[|1}  ",
"  >.+;#$#%%<>>[[|11)  ",
"  >##2345.%67|[8977)  ",
"  >+,3&*0#abc%ade%&f  ",
"  [@gh<>$)ijklmnop<f  ",
"  |#eqa{r79se9_tu~&f  ",
"  1>[vwxy.%z!&|ABccf  ",
"  1[>CDE<7C>C&F7&cGH  ",
"  1|||177C&&&cFGGIIH  ",
"  C11177C&&FFcGGIIIH  ",
"  C7177C&&FccGGIIJJE  ",
"  &CCC&&FccGGIIJJJ]E  ",
"  F&C&&FFcGGIIJ]]]]E  ",
"  F&&&FcGGGIIJJ]]K]E  ",
"  JLMMMNNN~~'''88O8P  "};
