/* XPM */
static const char * search_xpm[] = {
"22 22 160 2",
"  	c None",
". 	c #A6B7CB",
"+ 	c #FFFFFF",
"@ 	c #EFEFEE",
"# 	c #CBCCCA",
"$ 	c #BABCB9",
"% 	c #AFB1AE",
"& 	c #FEFEFE",
"* 	c #D4D5D3",
"= 	c #B3B5B2",
"- 	c #C8C9C6",
"; 	c #D3D4D1",
"> 	c #DCDCD9",
", 	c #D7D8D6",
"' 	c #CDCECC",
") 	c #D5D6D4",
"! 	c #BABBB9",
"~ 	c #D8DAD7",
"{ 	c #B3BEC8",
"] 	c #9CB0C3",
"^ 	c #95ADC3",
"/ 	c #A0B3C7",
"( 	c #BAC6D1",
"_ 	c #E9EAE8",
": 	c #BEC0BD",
"< 	c #9DAFC1",
"[ 	c #A1B7CD",
"} 	c #C5D5E5",
"| 	c #DFE8F2",
"1 	c #D7E2ED",
"2 	c #B3C5D6",
"3 	c #ACBFCE",
"4 	c #F1F2F2",
"5 	c #B4B6B4",
"6 	c #B3BFC9",
"7 	c #9FB7CC",
"8 	c #E1EBF5",
"9 	c #E8EFF7",
"0 	c #EDF3F9",
"a 	c #E7EFF7",
"b 	c #E3ECF6",
"c 	c #BCCDDD",
"d 	c #C8D3DD",
"e 	c #CCCDCB",
"f 	c #D6D6D4",
"g 	c #9CAFC2",
"h 	c #C1D2E3",
"i 	c #E6EEF7",
"j 	c #F3F7FB",
"k 	c #F9FAFC",
"l 	c #EDF3F8",
"m 	c #DCE6EF",
"n 	c #B3C3D2",
"o 	c #E6E7E5",
"p 	c #BBBDBA",
"q 	c #E3E4E1",
"r 	c #92ABC1",
"s 	c #DCE7F1",
"t 	c #F0F5FA",
"u 	c #F2F7FB",
"v 	c #EDF2F9",
"w 	c #E7EEF7",
"x 	c #E0EAF3",
"y 	c #ABBECE",
"z 	c #EDEDEC",
"A 	c #DEDFDD",
"B 	c #9DB1C5",
"C 	c #C3D3E3",
"D 	c #E3EDF5",
"E 	c #EAF1F8",
"F 	c #E5EDF6",
"G 	c #D9E2EC",
"H 	c #B0C0CF",
"I 	c #E1E1DF",
"J 	c #D3D4D2",
"K 	c #BCC8D3",
"L 	c #A6BACD",
"M 	c #E1EAF4",
"N 	c #E3ECF5",
"O 	c #E5EDF7",
"P 	c #E2EBF5",
"Q 	c #B4C3D1",
"R 	c #C0CAD2",
"S 	c #D0D1CE",
"T 	c #B4B6B3",
"U 	c #F2F3F3",
"V 	c #A5B7C7",
"W 	c #A8BCCE",
"X 	c #D5DFE9",
"Y 	c #DEE7F0",
"Z 	c #D6E1EA",
"` 	c #B0BFCF",
" .	c #ACBAC6",
"..	c #E2E3E1",
"+.	c #B0B0AA",
"@.	c #C4B08D",
"#.	c #BFC1BF",
"$.	c #EFF1F0",
"%.	c #BFCAD3",
"&.	c #A5B7C6",
"*.	c #9DB1C2",
"=.	c #A8BAC7",
"-.	c #BDC7CE",
";.	c #E1E2DF",
">.	c #BBBAB4",
",.	c #CFC8B9",
"'.	c #A97D33",
").	c #CAB085",
"!.	c #E8E8E6",
"~.	c #DDDDDA",
"{.	c #CECFCC",
"].	c #AFAFA9",
"^.	c #BA9E6E",
"/.	c #E0B674",
"(.	c #F3E1C5",
"_.	c #AA7E35",
":.	c #FBFBFB",
"<.	c #E8E9E8",
"[.	c #C8C9C7",
"}.	c #BABAB8",
"|.	c #B9BAB8",
"1.	c #C7C9C7",
"2.	c #BEAA89",
"3.	c #996510",
"4.	c #C2821E",
"5.	c #DEB26B",
"6.	c #F2E0C2",
"7.	c #AB7F37",
"8.	c #CDB48B",
"9.	c #F9F9F9",
"0.	c #F3F3F3",
"a.	c #EDEDED",
"b.	c #EBEBEB",
"c.	c #EEEEEE",
"d.	c #EFEFEF",
"e.	c #C0A77E",
"f.	c #986410",
"g.	c #C07F16",
"h.	c #DBAC61",
"i.	c #DEB97E",
"j.	c #9C6B1B",
"k.	c #F1F1F1",
"l.	c #EAEAEA",
"m.	c #F6F6F6",
"n.	c #F2F2F2",
"o.	c #C7AD82",
"p.	c #9B6610",
"q.	c #B8770E",
"r.	c #A87119",
"s.	c #B9965F",
"t.	c #FDFDFD",
"u.	c #F8F8F8",
"v.	c #ECECEC",
"w.	c #F5F5F5",
"x.	c #F4F4F4",
"y.	c #E3E3E3",
"z.	c #B89F75",
"A.	c #976412",
"B.	c #AE8A50",
"C.	c #F4F1ED",
". . . . . . . . . . . . . . . . . . . . . . ",
". + + + + + + + + + + + + + + + + + + + + . ",
". + + + + + + + + + + + + + + + + + + + + . ",
". + + + + + @ # $ % $ # @ + + + + + + + + . ",
". + + + & * = - ; > , ' = ) & + + + + + + . ",
". + + + * ! ~ { ] ^ / ( _ : ) + + + + + + . ",
". + + @ = ~ < [ } | 1 2 3 4 5 @ + + + + + . ",
". + + # - 6 7 8 9 0 a b c d , e + + + + + . ",
". + + $ f g h i j k l i m n o p + + + + + . ",
". + + % q r s a t u v w x y z % + + + + + . ",
". + + p A B C D E E 9 F G H I p + + + + + . ",
". + + e J K L M N O N P Q R S # + + + + + . ",
". + + @ T U V W X Y Z `  ...+.@.+ + + + + . ",
". + + + ) #.$.%.&.*.=.-.;.>.,.'.).+ + + + . ",
". + + + & ) T J I !.~.{.].^./.(._.).+ + + . ",
". + + + + :.<.[.}.% |.1.2.3.4.5.6.7.8.+ + . ",
". + + + 9.0.a.b.c.d.c.b.a.e.f.g.h.i.j.+ + . ",
". + + + 9.k.l.d.m.& m.d.l.n.o.p.q.r.s.+ + . ",
". + + + + t.u.n.v.b.d.w.x.c.y.z.A.B.C.+ + . ",
". + + + + + + + + + + + + + + + + + + + + . ",
". + + + + + + + + + + + + + + + + + + + + . ",
". . . . . . . . . . . . . . . . . . . . . . "};
