/* XPM */ 
static const unsigned char * spin_ctrl_xpm[] = {
"21 21 17 1",
" 	c None",
"!	c black",
"#	c #333366",
"$	c white",
"%	c #F8FFFF",
"&	c #F3FFFF",
"'	c #F1FFFF",
"(	c #EEFFFF",
")	c #9BCDFF",
"*	c #A5D5FF",
"+	c #808080",
",	c #EBFFFF",
"-	c #AAD9FF",
".	c #C2EAFF",
"0	c #E5FFFF",
"1	c #E2FFFF",
"2	c #DFFFFF",
"                     ",
"                     ",
"                     ",
"                     ",
"                     ",
" ####################",
" #$$$$$%%&&'(#))))))#",
" #$$!$%$!!''(#**++**#",
" #$!!$%!&'!(,#-++++-#",
" #$$!&&!&'!,,#......#",
" #%%!''!'(!00#000000#",
" #&&!''!((!11#.++++.#",
" #%!!!((!!011#**++*-#",
" #'((,,001112#))))))#",
" ####################",
"                     ",
"                     ",
"                     ",
"                     ",
"                     ",
"                     "};