/* XPM */ 
static const unsigned char * treelistctrl_xpm[] = {
"22 22 22 1",
" 	c None",
"!	c black",
"#	c #333366",
"$	c #EBEADB",
"%	c #CBC7B8",
"&	c white",
"'	c #E2E0D1",
"(	c #E2DFD1",
")	c #E1DFD0",
"*	c #E1E0D1",
"+	c #D4D2C2",
",	c #D4D1C2",
"-	c #555753",
".	c #FBFFFF",
"0	c #F4FFFF",
"1	c #F1FFFF",
"2	c #00AAF0",
"3	c #ECFFFF",
"4	c #EAFFFF",
"5	c #0066CC",
"6	c #E6FFFF",
"7	c #E2FFFF",
"                      ",
" #####################",
" #$$$$$$$$$$$$$$$$$$$#",
" #$$$$$$$$$$$%&$$$$$$#",
" #'('''((')**%&''((((#",
" #+++++++,,,,,,,,++++#",
" #&&-&&&&&&&&&&...011#",
" #&-2-&####&&&&#####3#",
" #&&-&&&&&&&&&&..0013#",
" #&&-&&&&&&&&&..00134#",
" #&&-&&55555555555555#",
" #&&--&5&&55555&&&&55#",
" #&&-&&55555555555555#",
" #&&-&&&&&&&&&0013446#",
" #&&-&&-&&&&.00113467#",
" #&&---2-##...0#####7#",
" #&&-&&-&&&..00134677#",
" #&&-&&-&&&..01134677#",
" #&&-&&--##..01134677#",
" #&&-&&......01134677#",
" #&&--&####..01#####7#",
" #####################"};