/* XPM */
static char * bottom_xpm[] = {
"22 22 3 1",
" 	c None",
".	c #0066cc",
"X	c #ff3300",
"                      ",
" .. .. .. .. .. .. .. ",
" .. .. .. .. .. .. .. ",
"                      ",
" ..                .. ",
" ..                .. ",
"                      ",
" ..                .. ",
" ..                .. ",
"                      ",
" ..                .. ",
" ..                .. ",
"                      ",
" ..                .. ",
" ..                .. ",
"                      ",
" ..                .. ",
" ..                .. ",
"                      ",
" XXXXXXXXXXXXXXXXXXXX ",
" XXXXXXXXXXXXXXXXXXXX ",
"                      "};
