/* XPM */
static const char * copy_xpm[] = {
"22 22 27 1",
" 	c None",
"!	c #8B908D",
"#	c #898E8C",
"$	c black",
"%	c #858A88",
"&	c white",
"'	c #8D9190",
"(	c #868C8A",
")	c #F2F2F2",
"*	c #8E9291",
"+	c #ABABAB",
",	c #8A8E8C",
"-	c #8A8F8D",
".	c #868B89",
"0	c #878C8A",
"1	c #F4F4F4",
"2	c #888D8B",
"3	c #848A86",
"4	c #CFCFCF",
"5	c #B9BBBA",
"6	c #858B87",
"7	c #878D89",
"8	c #B4B5B4",
"9	c #8F9490",
":	c #858A86",
";	c #868C88",
"<	c #848A87",
"!#############!       ",
"%&&&&&&&&&&&&&'       ",
"(&)))))))))))&*       ",
"(&)))))))))))&'       ",
"(&)++++*####,-#######-",
"(&))))).&&&&&&&&&&&&&#",
"(&)++++.&)))))))))))&#",
"(&)))))0&)))))))))))&#",
"(&)++++.&)+++++++++)&#",
"(&)))))0&)))))))))))&#",
"(&)++++.&)+++++++++)&#",
".&)))))0&)))))))))))&#",
".&)++++.&)+++++++))1&#",
".&)))))0&)))))))))))&#",
".&)))))0&)+++++++++)&2",
".&)))))0&)))))))))))&2",
"%&&&&&&0&)))))))))))&.",
"!%%%%%%.&)))))))%%%%%%",
"       .&)))))))3445%6",
"       .&)))))))748%9 ",
"       .&&&&&&&&:5%;  ",
"       -..%%%%%<3%    "};
