/* XPM */ 
static const unsigned char * doc_mdi_parent_frame_xpm[] = {
"22 22 92 1",
" 	c None",
"!	c black",
"#	c #A7C4E8",
"$	c #5E81B7",
"%	c #92B9E8",
"&	c #CEDCF1",
"'	c #A0C1EA",
"(	c #C5C8CD",
")	c #FF6444",
"*	c #6E90C0",
"+	c #668BC0",
",	c #7BA7DC",
"-	c #7AA4DB",
".	c #79A3DA",
"0	c #79A2D8",
"1	c #78A1D7",
"2	c #769FD5",
"3	c #749ED3",
"4	c #739CD1",
"5	c #729ACF",
"6	c #7097CD",
"7	c #6E95CB",
"8	c #6C94C9",
"9	c #6B91C7",
":	c #698FC4",
";	c #678DC3",
"<	c #787878",
"=	c #6387BD",
">	c #86ACDC",
"?	c #8DB0DC",
"@	c #7AA6DC",
"A	c #7AA4DA",
"B	c #79A1D8",
"C	c #76A0D5",
"D	c #759ED4",
"E	c #739DD2",
"F	c #7099CE",
"G	c #6F96CB",
"H	c #7A99C4",
"I	c #7193C2",
"J	c #6085BA",
"K	c #85ACDC",
"L	c #D4D4D4",
"M	c #D3D3D3",
"N	c #79A3D9",
"O	c white",
"P	c #5C7EB5",
"Q	c #FDFDFD",
"R	c #FCFCFC",
"S	c #FBFBFB",
"T	c #FAFAFA",
"U	c #F8F8F8",
"V	c #F7F7F7",
"W	c #F5F5F5",
"X	c #5A7CB2",
"Y	c #F4F4F4",
"Z	c #F3F3F3",
"[	c #F2F2F2",
"]	c #587AB0",
"^	c #5678AD",
"_	c #6F97CC",
"`	c #5475AC",
"a	c #6C92C8",
"b	c #CECECE",
"c	c #D6D6D6",
"d	c #D2D2D2",
"e	c #D0D0D0",
"f	c #CDCDCD",
"g	c #CBCBCB",
"h	c #CACACA",
"i	c #C8C8C8",
"j	c #C6C6C6",
"k	c #C5C5C5",
"l	c #C3C3C3",
"m	c #C2C2C2",
"n	c #AFAFAF",
"o	c #5172A9",
"p	c #5373AA",
"q	c #6C90C3",
"r	c #688EC3",
"s	c #6488BE",
"t	c #6185BB",
"u	c #5F83B9",
"v	c #5E80B6",
"w	c #5C7EB4",
"x	c #587BB1",
"y	c #5779AE",
"z	c #5676AD",
"{	c #5475AB",
"|	c #5373A9",
"}	c #5171A9",
"~	c #506FA2",
"                      ",
"                      ",
"#$$$$$$$$$$$$$$$$$$$$#",
"$%&&'%%%%%%%%((%(%%)#*",
"$%&&%%%%%%%%%((%(%%)%+",
"$,,-.00123345667899:;+",
"$<<<<<<<<<<<<<<<<<<<<=",
"$<>?,@A0BCDE5FG8HI<<<J",
"$<K&'%%%%%%(%(%)#*<<<$",
"$<-LLLLLLLLLLLMMM=<<<$",
"$<NOOOOOOOOOOOOOOJ<<<P",
"$<0OQQQQQQRSTUVWO$<<<X",
"$<DOQQRSTUVWYZ[[OX<<<]",
"$<4ORSTUVWYZ[[[[O]<<<]",
"$<5OTUVWYZ[[[[[[O^<<<^",
"$<_OVWYZ[[[[[[[[O`<<<`",
"$<abcLdefghijklmno<<<p",
"$<qr+stuvwXxyz{|}~<<<p",
"$<<<<<<<<<<<<<<<<<<<<o",
"#$$$$$$$$$$wXxxyz{{|}#",
"                      ",
"                      "};