/* XPM */ 
static const unsigned char * frame_xpm[] = {
"22 22 68 1",
" 	c None",
"!	c black",
"#	c #A7C4E8",
"$	c #5E81B7",
"%	c #92B9E8",
"&	c #CEDCF1",
"'	c #A0C1EA",
"(	c #C5C8CD",
")	c #FF6444",
"*	c #6E90C0",
"+	c #668BC0",
",	c #7BA7DC",
"-	c #7AA4DB",
".	c #79A3DA",
"0	c #79A2D8",
"1	c #78A1D7",
"2	c #769FD5",
"3	c #749ED3",
"4	c #739CD1",
"5	c #729ACF",
"6	c #7097CD",
"7	c #6E95CB",
"8	c #6C94C9",
"9	c #6B91C7",
":	c #698FC4",
";	c #678DC3",
"<	c #D4D4D4",
"=	c #D3D3D3",
">	c #6387BD",
"?	c white",
"@	c #6085BA",
"A	c #FDFDFD",
"B	c #FCFCFC",
"C	c #FBFBFB",
"D	c #FAFAFA",
"E	c #F8F8F8",
"F	c #F7F7F7",
"G	c #F5F5F5",
"H	c #F4F4F4",
"I	c #F3F3F3",
"J	c #5C7EB5",
"K	c #F2F2F2",
"L	c #5A7CB2",
"M	c #587AB0",
"N	c #5678AD",
"O	c #5475AC",
"P	c #5373AA",
"Q	c #AFAFAF",
"R	c #CECECE",
"S	c #D6D6D6",
"T	c #D2D2D2",
"U	c #D0D0D0",
"V	c #CDCDCD",
"W	c #CBCBCB",
"X	c #CACACA",
"Y	c #C8C8C8",
"Z	c #C6C6C6",
"[	c #C5C5C5",
"]	c #C3C3C3",
"^	c #C2C2C2",
"_	c #5172A9",
"`	c #5C7EB4",
"a	c #587BB1",
"b	c #5779AE",
"c	c #5676AD",
"d	c #5475AB",
"e	c #5373A9",
"f	c #5171A9",
"                      ",
"                      ",
"#$$$$$$$$$$$$$$$$$$$$#",
"$%&&'%%%%%%%%((%(%%)#*",
"$%&&%%%%%%%%%((%(%%)%+",
"$,,-.00123345667899:;+",
"$<<<<<<<<<<<<<<<<====>",
"$????????????????????@",
"$?AAAAAAAAAABCCDEFFG?$",
"$?AAAAAAAAAABCCDEFFG?$",
"$?AAAAAAABBCDEEFGHHI?J",
"$?AAAAABCDDEFGGHIKKK?L",
"$?BBBCCDEFFGHIIKKKKK?M",
"$?BBBCCDEFFGHIIKKKKK?M",
"$?DDDEEFGHHIKKKKKKKK?N",
"$?FFFGGHIKKKKKKKKKKK?O",
"$????????????????????P",
"$????????????????????P",
"$QRRS<<TUVVWXYYZ[]]^Q_",
"#$$$$$$$$$$`Laabcddef#",
"                      ",
"                      "};