/* XPM */
static char *toolbar_xpm[] = {
/* columns rows colors chars-per-pixel */
"22 22 63 1",
"  c #003399",
". c #666699",
"X c #0083D7",
"o c #0A87DA",
"O c #168EDD",
"+ c #1E92DF",
"@ c #2394E1",
"# c #2F9AE3",
"$ c #329BE5",
"% c #42A2E8",
"& c #48A5E9",
"* c magenta",
"= c #CC9900",
"- c #FFDA00",
"; c #FFDE00",
": c #FFE200",
"> c #FFE300",
", c #FFE700",
"< c #FFE800",
"1 c #FFE900",
"2 c #FFEC00",
"3 c #FFED00",
"4 c #FFEE00",
"5 c #FFF200",
"6 c #FFF600",
"7 c #FFFD00",
"8 c yellow",
"9 c #ACA899",
"0 c #C8C8C8",
"q c #C1E7FF",
"w c #C9EAFF",
"e c #CBEBFF",
"r c #D2EDFF",
"t c #D4EFFF",
"y c #D6EFFF",
"u c #DBF1FF",
"i c #DDF2FF",
"p c #DFF3FF",
"a c #E1DDCE",
"s c #E1DECD",
"d c #E1DECE",
"f c #E3E0CF",
"g c #E3E0D0",
"h c #E5E1D1",
"j c #E5E2D2",
"k c #E6E3D3",
"l c #E6E4D3",
"z c #E8E5D4",
"x c #EAE7D6",
"c c #EBE8D7",
"v c #ECE8D7",
"b c #ECE9D8",
"n c #E2F4FF",
"m c #E6F6FF",
"M c #E8F6FF",
"N c #EBF7FF",
"B c #F0F9FF",
"V c #F2FAFF",
"C c #F4FBFF",
"Z c #F8FDFF",
"A c #FAFDFF",
"S c gray100",
"D c None",
/* pixels */
"DDDDDDDDDDDDDDDDDDDDDD",
"DDDDDDDDDDDDDDDDDDDDDD",
"DDDDDDDDDDDDDDDDDDDDDD",
"DDDDDDDDDDDDDDDDDDDDDD",
"DDDDDDDDDDDDDDDDDDDDDD",
"DDDDDDDDDDDDDDDDDDDDDD",
"9999999999999999999999",
"bbbbbbbbbbbbbbbbbbbbbb",
"....bbcc==bbbbbbb    b",
".SAC.cb=77=ccvcc XSS+ ",
".AVNn.x=7=====cx oSS# ",
".Vmpy.x==653,:=x O@$% ",
".muye.l==53,:;=j 0000 ",
".urwq.l==3,,;-=j 0&00 ",
"......dg======ggd    g",
"adaaaddaadaaaaaadaadaa",
"9999999999999999999999",
"DDDDDDDDDDDDDDDDDDDDDD",
"DDDDDDDDDDDDDDDDDDDDDD",
"DDDDDDDDDDDDDDDDDDDDDD",
"DDDDDDDDDDDDDDDDDDDDDD",
"DDDDDDDDDDDDDDDDDDDDDD"
};
