/* XPM */
static char * wizard_xpm[] = {
"22 22 241 2",
"  	c None",
". 	c #C9D8EB",
"+ 	c #81A5D7",
"@ 	c #90B7E7",
"# 	c #86B1E6",
"$ 	c #84B1E6",
"% 	c #84B0E5",
"& 	c #84AFE5",
"* 	c #84AEE3",
"= 	c #83ADE2",
"- 	c #82ACE1",
"; 	c #81ABE0",
"> 	c #80AADF",
", 	c #7FA8DD",
"' 	c #7EA7DC",
") 	c #7DA7DC",
"! 	c #7DA6DA",
"~ 	c #7CA4D9",
"{ 	c #7AA3D8",
"] 	c #7FA5D7",
"^ 	c #81A3D2",
"/ 	c #81A8D9",
"( 	c #8AB1E0",
"_ 	c #90B7E6",
": 	c #8FB6E6",
"< 	c #E7CEAD",
"[ 	c #C6947B",
"} 	c #8EB6E6",
"| 	c #8EB6E5",
"1 	c #8EB5E5",
"2 	c #8CB1E0",
"3 	c #789DCE",
"4 	c #80AADD",
"5 	c #7FAADE",
"6 	c #7FABDF",
"7 	c #80ABE0",
"8 	c #F77329",
"9 	c #DEA542",
"0 	c #80ACE0",
"a 	c #7EA8DD",
"b 	c #739ACF",
"c 	c #7DA8DC",
"d 	c #8DB2DF",
"e 	c #99BAE2",
"f 	c #EFA594",
"g 	c #FFAD31",
"h 	c #EF9410",
"i 	c #9ABBE3",
"j 	c #9ABBE2",
"k 	c #94B5DE",
"l 	c #779BCF",
"m 	c #85ABDC",
"n 	c #BFD2EA",
"o 	c #EBEFF3",
"p 	c #E8EDF3",
"q 	c #E7735A",
"r 	c #FFA518",
"s 	c #F7E742",
"t 	c #F79400",
"u 	c #E7ECF2",
"v 	c #DDE5EE",
"w 	c #8DA8D2",
"x 	c #86ABDC",
"y 	c #FEFBF6",
"z 	c #EF9C29",
"A 	c #FFF7CE",
"B 	c #FFF78C",
"C 	c #FFBD4A",
"D 	c #CEB5AD",
"E 	c #D9D8D6",
"F 	c #E1DFDE",
"G 	c #F4F2F0",
"H 	c #EBECEF",
"I 	c #91ABD2",
"J 	c #86AADB",
"K 	c #C7D7E9",
"L 	c #FF9C08",
"M 	c #CDCDCD",
"N 	c #E6E9ED",
"O 	c #8EA9D0",
"P 	c #85AADA",
"Q 	c #CAD7E9",
"R 	c #EAE9E7",
"S 	c #C9C9C8",
"T 	c #944A39",
"U 	c #4A5A63",
"V 	c #F6F6F6",
"W 	c #F8F7F6",
"X 	c #FFFFFF",
"Y 	c #8CA6CE",
"Z 	c #84A8D8",
"` 	c #C6D5E7",
" .	c #E8E7E6",
"..	c #C8C8C7",
"+.	c #E71000",
"@.	c #BD5210",
"#.	c #A50800",
"$.	c #BD3931",
"%.	c #7B848C",
"&.	c #636B6B",
"*.	c #FFFEFD",
"=.	c #8AA4CC",
"-.	c #82A7D7",
";.	c #C2D2E5",
">.	c #E7E7E7",
",.	c #CFCFCF",
"'.	c #E2E2E2",
").	c #FCFCFC",
"!.	c #000821",
"~.	c #101010",
"{.	c #424242",
"].	c #848484",
"^.	c #737373",
"/.	c #FBFAF9",
"(.	c #E4E7EB",
"_.	c #89A2CA",
":.	c #82A6D6",
"<.	c #C2D0E5",
"[.	c #F2F0EF",
"}.	c #EBECEB",
"|.	c #E7E7E6",
"1.	c #EBEBEB",
"2.	c #F1F1F1",
"3.	c #F1F1F0",
"4.	c #524A42",
"5.	c #6B6B6B",
"6.	c #F0F0F1",
"7.	c #E3E5E9",
"8.	c #88A1C9",
"9.	c #81A5D4",
"0.	c #C0CEE3",
"a.	c #F2F0ED",
"b.	c #F1F0EE",
"c.	c #F1F0ED",
"d.	c #D6D6D6",
"e.	c #E0E2E6",
"f.	c #87A0C8",
"g.	c #7FA3D2",
"h.	c #C0CEE1",
"i.	c #E8E9EA",
"j.	c #D7DDE8",
"k.	c #D4DCE8",
"l.	c #D5DCE8",
"m.	c #D6DCE8",
"n.	c #E3E5EB",
"o.	c #E3E2E2",
"p.	c #EFEEED",
"q.	c #7B7B7B",
"r.	c #8C8C8C",
"s.	c #D1DBEC",
"t.	c #E6EAF2",
"u.	c #DEE1E5",
"v.	c #859FC6",
"w.	c #7CA0CF",
"x.	c #C0CEDF",
"y.	c #CAD3E4",
"z.	c #7D9CD7",
"A.	c #7094D6",
"B.	c #7195D6",
"C.	c #7597D7",
"D.	c #B8C6E2",
"E.	c #E2E1E0",
"F.	c #A5A5A5",
"G.	c #BBCAE7",
"H.	c #DEE1E4",
"I.	c #829BC3",
"J.	c #7B9ECE",
"K.	c #BECBDD",
"L.	c #D1D7E4",
"M.	c #97AEDA",
"N.	c #8DA8D9",
"O.	c #8EA9D9",
"P.	c #91AAD9",
"Q.	c #C3CEE3",
"R.	c #E0E0DE",
"S.	c #DDE2EC",
"T.	c #525252",
"U.	c #949494",
"V.	c #EFEFEF",
"W.	c #DDDFE4",
"X.	c #8198C0",
"Y.	c #7A9CCC",
"Z.	c #BBC8DC",
"`.	c #E9E8E7",
" +	c #E4E5E6",
".+	c #E4E5E5",
"++	c #E6E7E7",
"@+	c #6B6B63",
"#+	c #DCDEE3",
"$+	c #8098C0",
"%+	c #BBC7DC",
"&+	c #ECEAE7",
"*+	c #EAE9E6",
"=+	c #EAE9E5",
"-+	c #E9E8E6",
";+	c #E6E5E4",
">+	c #E7E6E5",
",+	c #EEEDEC",
"'+	c #EEEEEC",
")+	c #636363",
"!+	c #F1EEEC",
"~+	c #DDDEE2",
"{+	c #6C8FC2",
"]+	c #99AFD3",
"^+	c #B9C8DD",
"/+	c #B7C6DC",
"(+	c #B6C5DA",
"_+	c #B5C4DA",
":+	c #B5C3DA",
"<+	c #B3C2D8",
"[+	c #B4C2D8",
"}+	c #B2C0D6",
"|+	c #B0BED5",
"1+	c #AFBED4",
"2+	c #AFBED3",
"3+	c #AFBDD3",
"4+	c #AFBCD3",
"5+	c #AEBCD2",
"6+	c #AEBBD1",
"7+	c #B1BDD2",
"8+	c #A7B6CF",
"9+	c #708CBD",
"0+	c #5A7BAB",
"a+	c #6486B4",
"b+	c #6283B2",
"c+	c #6081B0",
"d+	c #5F7FAF",
"e+	c #5E7DAD",
"f+	c #5C7CAC",
"g+	c #5B7AAA",
"h+	c #5977A7",
"i+	c #5776A5",
"j+	c #5675A5",
"k+	c #5574A3",
"l+	c #5472A1",
"m+	c #5470A1",
"n+	c #536FA0",
"o+	c #516E9E",
"p+	c #516E9D",
"q+	c #506D9D",
"r+	c #4F6B9C",
"                                            ",
"                                            ",
". + @ # $ % & * = - ; > > , ' ) ! ~ { ] ^ . ",
"/ ( _ : : : : < [ : } | | | 1 1 1 1 1 | 2 3 ",
"4 5 6 7 7 7 7 8 9 7 7 7 7 7 7 7 0 0 0 0 a b ",
"c d e e e 8 f g h f 9 i i i i i i i i j k l ",
"m n o p p q r s s t f u u u u u u u u o v w ",
"x . y < 8 z s A B C z 8 [ D E E E E F G H I ",
"J K G 9 8 L s A B C 8 8 f < M M M M F G N O ",
"P Q G R S q L s s 8 T U V V W X X X X G N Y ",
"Z ` G  ...+.[ r @.#.$.%.&.X *.X X X X G N =.",
"-.;.G >.,.'.).$.q !.~.{.].^./.X X X X G (._.",
":.<.[.}.|.1.2.$.< 3.~.~.4.].5.6.6.6.6.6.7.8.",
"9.0.a.b.b.b.c.+.d.G G ~.~.4.].5.G G G G e.f.",
"g.h.G i.j.k.l.m.n.o.p.p.~.~.{.q.r.s.t.G u.v.",
"w.x.G y.z.A.B.C.D.E.p.p.p.~.~.q.>.F.G.G H.I.",
"J.K.G L.M.N.O.P.Q.R.p.p.p.S.T.U.X V.F.G W.X.",
"Y.Z.`. + +.+.+++++++G G G G G @+U.U.G G #+$+",
"Y.%+&+*+=+*+*+-+;+R.>+,+,+'+'+'+)+'+'+!+~+$+",
"{+]+^+/+(+_+:+<+[+[+}+|+|+1+2+3+4+5+6+7+8+9+",
". 0+a+b+c+d+e+f+g+h+i+j+j+k+l+m+n+o+p+q+r+. ",
"                                            "};
