/* XPM */
static char * wiz_page_xpm[] = {
"22 22 53 1",
" 	c None",
".	c #FBFBFB",
"+	c #FFFFFF",
"@	c #F8F8F8",
"#	c #F5F5F5",
"$	c #DDE2EC",
"%	c #708CBD",
"&	c #FDFDFD",
"*	c #E7CEAD",
"=	c #C6947B",
"-	c #F77329",
";	c #DEA542",
">	c #EFA594",
",	c #FFAD31",
"'	c #EF9410",
")	c #FCFCFC",
"!	c #E7735A",
"~	c #FFA518",
"{	c #F7E742",
"]	c #F79400",
"^	c #EF9C29",
"/	c #FFF7CE",
"(	c #FFF78C",
"_	c #FFBD4A",
":	c #CEB5AD",
"<	c #FF9C08",
"[	c #944A39",
"}	c #4A5A63",
"|	c #E71000",
"1	c #BD5210",
"2	c #A50800",
"3	c #BD3931",
"4	c #7B848C",
"5	c #636B6B",
"6	c #000821",
"7	c #101010",
"8	c #424242",
"9	c #848484",
"0	c #737373",
"a	c #524A42",
"b	c #6B6B6B",
"c	c #D6D6D6",
"d	c #7B7B7B",
"e	c #8C8C8C",
"f	c #E7E7E7",
"g	c #A5A5A5",
"h	c #F1F1F1",
"i	c #525252",
"j	c #949494",
"k	c #EFEFEF",
"l	c #6B6B63",
"m	c #636363",
"n	c #F3F3F3",
"..++++++++@+++++++++  ",
"#$$$$$$$$$$$$$$$$$$$% ",
"&$$$$$*=$$$$$$$$$$$$% ",
"+$$$$$-;$$$$$$$$$$$$% ",
"+$$$->,'>;$$$$$$$$$$% ",
")$$$!~{{]>$$$$$$$$$$% ",
"+$*-^{/(_^-=:$$$$$$$% ",
"&$;-<{/(_-->*$$$$$$$% ",
".$$$!<{{-[}$$$$$$$$$% ",
"+$$$|=~12345$$$$$$$$% ",
"+$$$$$3!67890$$$$$$$% ",
".$$$$$3*$77a9b$$$$$$% ",
"+$$$$$|c$$77a9b$$$$$% ",
"@$$$$$$$$$$778de$$$$% ",
"+$$$$$$$$$$$77dfg$$$% ",
"h$$$$$$$$$$$$ij+kg$$% ",
"+$$$$$$$$$$$$$ljj$$$% ",
"+$$$$$$$$$$$$$$m$$$$% ",
"n$$$$$$$$$$$$$$$$$$$% ",
"+$$$$$$$$$$$$$$$$$$$% ",
" %%%%%%%%%%%%%%%%%%%% ",
"                      "};
