/* XPM */
static char *bitmap_button_xpm[] = {
/* columns rows colors chars-per-pixel */
"22 22 127 2",
"   c #006600",
".  c #036D01",
"X  c #056B02",
"o  c #0A7005",
"O  c #0E7407",
"+  c #17751E",
"@  c #003399",
"#  c #0C9106",
"$  c #15840B",
"%  c #1FA810",
"&  c #288F14",
"*  c #2B9116",
"=  c #3C871C",
"-  c #30863F",
";  c #28AA14",
":  c #2FB018",
">  c #3BA81D",
",  c #3BB71D",
"<  c #3EB81F",
"1  c #378B48",
"2  c #388B48",
"3  c #3E8E48",
"4  c #43AE22",
"5  c #44B522",
"6  c #47BC23",
"7  c #49B225",
"8  c #4ABE25",
"9  c #768300",
"0  c #788400",
"q  c #6FA22E",
"w  c #64A678",
"e  c #54C32B",
"r  c #57C42B",
"t  c #5BC62E",
"y  c #9C0E0F",
"u  c #9D0E0F",
"i  c #9E0F0F",
"p  c #AF0B00",
"a  c #AF1407",
"s  c #AB575F",
"d  c #AF595F",
"f  c #B55B5F",
"g  c #BA5D5F",
"h  c #D92000",
"j  c #D92B08",
"k  c #F93000",
"l  c #FF3300",
"z  c #D94C21",
"x  c #FF440C",
"c  c #FF440D",
"v  c #FF5C1F",
"b  c #FF5D1F",
"n  c #FF7935",
"m  c magenta",
"M  c #A5BE43",
"N  c #CC9900",
"B  c #D18A1A",
"V  c #F99048",
"C  c #FFCC00",
"Z  c #FFCC01",
"A  c #FFCF08",
"S  c #FFD00A",
"D  c #FFD00B",
"F  c #FFD212",
"G  c #FFD314",
"H  c #FFD317",
"J  c #FFD519",
"K  c #FFD61E",
"L  c #FFD721",
"P  c #FFD824",
"I  c #FFD926",
"U  c #FFDA29",
"Y  c #FFDB2D",
"T  c #FFDC30",
"R  c #FFDD32",
"E  c #FFDE35",
"W  c #FFDE38",
"Q  c #FFE03B",
"!  c #FFE13E",
"~  c #DFC269",
"^  c #FFE241",
"/  c #FFE345",
"(  c #FFE448",
")  c #FFE54B",
"_  c #FFE851",
"`  c #FFE854",
"'  c #FCE85A",
"]  c #FFE958",
"[  c #FFED64",
"{  c #80BBA8",
"}  c #BEB6C7",
"|  c #87C0B1",
" . c #8FC2B1",
".. c #9EC9B1",
"X. c #BFE4F3",
"o. c #C3B8C7",
"O. c #D9C1C7",
"+. c #DEC2C7",
"@. c #D6DEEF",
"#. c #C2E7FF",
"$. c #C3E7FF",
"%. c #C2E8FF",
"&. c #C3E8FF",
"*. c #C8E9FF",
"=. c #C8EAFF",
"-. c #CEEBFF",
";. c #CEECFF",
":. c #D2E8E4",
">. c #D5EEFF",
",. c #D5EFFF",
"<. c #DCF1FF",
"1. c #DDF1FF",
"2. c #DCF2FF",
"3. c #DDF2FF",
"4. c #E4F4FF",
"5. c #E4F5FF",
"6. c #EBF7FF",
"7. c #EAF8FF",
"8. c #EBF8FF",
"9. c #F1F9FF",
"0. c #F1FAFF",
"q. c #F6FBFF",
"w. c #F7FBFF",
"e. c #F6FCFF",
"r. c #F7FCFF",
"t. c #FAFDFF",
"y. c None",
/* pixels */
"y.y.y.y.y.y.y.y.y.y.y.y.y.y.y.y.y.y.y.y.y.y.",
"y.y.y.y.y.y.y.y.y.y.y.y.y.y.y.y.y.y.y.y.y.y.",
"y.y.y.y.y.y.y.y.y.y.y.y.y.y.y.y.y.y.y.y.y.y.",
"y.y.y.y.y.y.y.y.y.y.y.y.y.y.y.y.y.y.y.y.y.y.",
"y.y.y.y.y.y.y.y.y.y.y.y.y.y.y.y.y.y.y.y.y.y.",
"y.y.y.y.y.y.y.y.y.y.y.y.y.y.y.y.y.y.y.y.y.y.",
"@.@ @ @ @ @ @ @ @ @ @ @ @ @ @ @ @ @ @ @ @ @.",
"@ t.t.t.t.t.t.~ N N N N N N ~ t.t.t.t.t.t.@ ",
"@ q.t.q.e.w.e.N C C D H Y Q N e.q.q.q.q.e.@ ",
"@ 0.0.0.+.g y N C D H P W ) N 0.0.0.0.0.0.@ ",
"@ 6.8.O.p h k N A G P E ) ' 9 :.7.6.7.6.6.@ ",
"@ 4.4.f h l c N F L R / ` q * o ..4.4.4.4.@ ",
"@ 1.1.y k x b N K R ^ ` M O t > 3 1.1.1.1.@ ",
"@ >.>.d j b n N Y ! _ [ = 7 e 6 $ w >.>.>.@ ",
"@ ;.-.o.a z V B N N N 0 * e 8 , ; .  .;.;.@ ",
"@ =.=.=.} s y s } =.X.X 4 5 < : % # 1 =.=.@ ",
"@ $.&.$.$.&.$.$.&.&.$.{ - +       1 | $.$.@ ",
"@.@ @ @ @ @ @ @ @ @ @ @ @ @ @ @ @ @ @ @ @ @.",
"y.y.y.y.y.y.y.y.y.y.y.y.y.y.y.y.y.y.y.y.y.y.",
"y.y.y.y.y.y.y.y.y.y.y.y.y.y.y.y.y.y.y.y.y.y.",
"y.y.y.y.y.y.y.y.y.y.y.y.y.y.y.y.y.y.y.y.y.y.",
"y.y.y.y.y.y.y.y.y.y.y.y.y.y.y.y.y.y.y.y.y.y."
};
