/* XPM */ 
static const unsigned char * button16x16_xpm[] = {
"16 16 21 1",
" 	c None",
"!	c black",
"#	c #002692",
"$	c #E2F2FE",
"%	c #FEFFFF",
"&	c #FCFFFF",
"'	c white",
"(	c #5D5E5A",
")	c #DCECF7",
"*	c #FAFDFE",
"+	c #EDFFFE",
",	c #D3F2FF",
"-	c #E9F8FD",
".	c #E1F1FC",
"0	c #DFF0FD",
"1	c #F2FDFE",
"2	c #D5EEFE",
"3	c #CFE7F7",
"4	c #D5F5FF",
"5	c #DCFBFF",
"6	c #D6EFFA",
"                ",
"                ",
"                ",
"                ",
" ############## ",
"#$$$$$$$$$$$$$$#",
"#%&''(('('(%%&'#",
"#$)*(++((,(-.01#",
"#23+(++(((00000#",
"#4,56((6(6(6666#",
"#33333333333333#",
" ############## ",
"                ",
"                ",
"                ",
"                "};