/* XPM */
static char *open_xpm[] = {
/* columns rows colors chars-per-pixel */
"22 22 231 2",
"   c #099E00",
".  c #0A9E03",
"X  c #109F0B",
"o  c #00AA00",
"O  c #0DA107",
"+  c #10A508",
"@  c #15A40B",
"#  c #1CA60F",
"$  c #21AA10",
"%  c #25AC13",
"&  c #26AD13",
"*  c #27B016",
"=  c #2EB018",
"-  c #30B31B",
";  c #3CB71F",
":  c #40B920",
">  c #41BD24",
",  c #44BD24",
"<  c #6AAA0F",
"1  c #6DB41E",
"2  c #6DBD20",
"3  c #7DBB23",
"4  c #5CC42D",
"5  c #5CC931",
"6  c #5FCB33",
"7  c #62C52C",
"8  c #65C028",
"9  c #60C92E",
"0  c #6AC529",
"q  c #6AC72D",
"w  c #60C930",
"e  c #62CD33",
"r  c #6CCA35",
"t  c #69D036",
"y  c #75C328",
"u  c #71C332",
"i  c #70D63D",
"p  c #75DB42",
"a  c #79E149",
"s  c #7BE148",
"d  c #7AE44B",
"f  c #7DE44B",
"g  c magenta",
"h  c #BF9F00",
"j  c #B9A306",
"k  c #85EB52",
"l  c #86EC53",
"z  c #89F057",
"x  c #8AF057",
"c  c #88F058",
"v  c #8BF158",
"b  c #90F65D",
"n  c #C59700",
"m  c #C49D00",
"M  c #CC9900",
"N  c #CD9B00",
"B  c #CE9800",
"V  c #CC9904",
"C  c #CC9C03",
"Z  c #CC9E00",
"A  c #CF9C00",
"S  c #CF9F05",
"D  c #D09E02",
"F  c #D3A100",
"G  c #D3A303",
"H  c #D1A204",
"J  c #D3A004",
"K  c #D2A205",
"L  c #D4A100",
"P  c #D4A101",
"I  c #D5A302",
"U  c #D6A304",
"Y  c #D5A406",
"T  c #D6A707",
"R  c #D0A10A",
"E  c #D2A00A",
"W  c #D1A20C",
"Q  c #D6A70B",
"!  c #D4A40E",
"~  c #D5A70E",
"^  c #D6A80F",
"/  c #DDAE0C",
"(  c #D7A913",
")  c #D5A917",
"_  c #D7AC16",
"`  c #D9AB12",
"'  c #DBAE12",
"]  c #DAAF17",
"[  c #D8AE1A",
"{  c #D9B01C",
"}  c #DBB323",
"|  c #D8B226",
" . c #DAB426",
".. c #DCB321",
"X. c #DCB625",
"o. c #DDB728",
"O. c #DEB824",
"+. c #DEB929",
"@. c #DFBB2B",
"#. c #DEB92D",
"$. c #DFBB31",
"%. c #E2B006",
"&. c #E8B70B",
"*. c #E6BA16",
"=. c #E1B81E",
"-. c #E1BC2B",
";. c #E0BE36",
":. c #CFC831",
">. c #CAD12B",
",. c #DED127",
"<. c #EDC113",
"1. c #FCCD0D",
"2. c #F0C515",
"3. c #F1C519",
"4. c #F5CA19",
"5. c #F6CB19",
"6. c #F7CD19",
"7. c #F7CE1E",
"8. c #F8CD1A",
"9. c #FFD216",
"0. c #FFD416",
"q. c #F9D01F",
"w. c #E6C22D",
"e. c #E4C030",
"r. c #E5C537",
"t. c #E6C537",
"y. c #E0C039",
"u. c #E1C23E",
"i. c #E5C539",
"p. c #E7C93D",
"a. c #EECE36",
"s. c #E8C83B",
"d. c #E9C93C",
"f. c #EDCD3B",
"g. c #EECF3A",
"h. c #F4CF2A",
"j. c #F9D222",
"k. c #FBD425",
"l. c #FCD627",
"z. c #FFD926",
"x. c #FFDA29",
"c. c #FFDA2B",
"v. c #FFDB2D",
"b. c #FFDB2E",
"n. c #F3D33A",
"m. c #FFDC30",
"M. c #FFDC32",
"N. c #FFDD34",
"B. c #FFDD35",
"V. c #FFDE37",
"C. c #FFDE38",
"Z. c #FFDF3A",
"A. c #FFDF3B",
"S. c #FFDF3C",
"D. c #FFE03D",
"F. c #FFE03F",
"G. c #D9E256",
"H. c #E2C540",
"J. c #E8CA40",
"K. c #EACE45",
"L. c #ECCF41",
"P. c #EED143",
"I. c #E9D256",
"U. c #F0D342",
"Y. c #F4D94B",
"T. c #F3DC56",
"R. c #F6DF53",
"E. c #EDDB62",
"W. c #F5E146",
"Q. c #FFE142",
"!. c #FFE243",
"~. c #FFE244",
"^. c #FFE345",
"/. c #FFE346",
"(. c #FFE347",
"). c #FFE449",
"_. c #FFE44A",
"`. c #FFE54C",
"'. c #FFE54E",
"]. c #FFE64E",
"[. c #FCE453",
"{. c #FCE553",
"}. c #FFE650",
"|. c #FFE651",
" X c #FFE751",
".X c #FFE753",
"XX c #FFE754",
"oX c #FCE65A",
"OX c #FFE855",
"+X c #FFE856",
"@X c #FFE958",
"#X c #FFE959",
"$X c #FFEA5B",
"%X c #FFEB5D",
"&X c #FFEB5E",
"*X c #FFEB5F",
"=X c #F7E562",
"-X c #F7E665",
";X c #F1E06A",
":X c #F4E66F",
">X c #FCEA64",
",X c #FFEC60",
"<X c #FFEC61",
"1X c #FFEC63",
"2X c #FFED63",
"3X c #FDEC66",
"4X c #FFED64",
"5X c #FFED65",
"6X c #FFED66",
"7X c #FFEE66",
"8X c #F9E869",
"9X c #F8EA6F",
"0X c #FFEE68",
"qX c #FFEF6A",
"wX c #FFF06C",
"eX c #FFF06D",
"rX c #FFF16F",
"tX c #FFF170",
"yX c #FFF271",
"uX c #FFF272",
"iX c #FFF274",
"pX c #FFF375",
"aX c #FFF376",
"sX c #FFF57B",
"dX c #FFF57C",
"fX c #FFF781",
"gX c #FFF987",
"hX c #FFFB8D",
"jX c #FFFD93",
"kX c #FFFF99",
"lX c None",
/* pixels */
"lXlXlXlXlXlXlXlXlXlXlXlXlXlXlXlXlXlXlXlXlXlX",
"lXlXlXlXlXlXlXlX. @ = $ O lXlXlXlXlXlXlXlXlX",
"lXlXlXlXlXlXlXlXlX+ & w : # lXlXlXlXlXlXlXlX",
"lXlXlXlXlXlXlXlXlXlXo & r , + lXlXlXlXlXlXlX",
"lXlXlXM M M R W lXlXlX. > i * lXlXlXlXlXlXlX",
"lXlX| I.E.;X:X .lXlXlXlX= p ; Z V S lXlXlXlX",
"lXlXH.kXjXhXgX9X} +.-.-.1 a 5 :.n.' lXlXlXlX",
"lXlXu.jXhXgXfXsXpXrXu r 4 f a 7 q < lXlXlXlX",
"lXlXy.hXgXfXsXpXtXwXG.5 l k l l e j H P P lX",
"lXlX$.gXfXsXpXtXwX2X&X3 d x v x 2 2.0.1.H lX",
"lXlX$.fXsXpXtX5X[.P.w.g.8 v b 9 ,.5.9.%.Z lX",
"lXlX#.dXpXT.r.s.P.Y.{.].W.y 0 >.l.5.9.P lXlX",
"lXlXo.pXtXp.pXrX5X&XOX]./.F.V.m.k.6.&.Z lXlX",
"lXlX .tX>XK.tX0X2X&X}.)./.A.V.v.j.8.U lXlXlX",
"lXlX} wXL.8XrX0X2XOX}.).Q.A.m.c.q.<.D lXlXlX",
"lXlX{ 2Xr.pXrX5X&XOX]./.F.A.b.c.7.T M lXlXlX",
"lXlX[ oXJ.tXwX2X#XXX]./.F.V.v.z.3.H lXlXlXlX",
"lXlX_ f.-XtX5X2X#X}._.Q.A.h.*./ U n lXlXlXlX",
"lXlX( w.pXrX5X*X}.a.=.' Q H M lXlXlXlXlXlXlX",
"lXlX^ i.=Xp.O.] ~ H m lXlXlXlXlXlXlXlXlXlXlX",
"lXlXR ( ! C j lXlXlXlXlXlXlXlXlXlXlXlXlXlXlX",
"lXlXlXlXlXlXlXlXlXlXlXlXlXlXlXlXlXlXlXlXlXlX"
};
