/* XPM */
static char *save_xpm[] = {
/* columns rows colors chars-per-pixel */
"22 22 99 2",
"   c #2B2B55",
".  c #2E3469",
"X  c #2E3A6E",
"o  c #2F3773",
"O  c #2D3873",
"+  c #303060",
"@  c #303068",
"#  c #33366B",
"$  c #37376D",
"%  c #393468",
"&  c #555555",
"*  c #544673",
"=  c #5A4C75",
"-  c #6C577F",
";  c gray46",
":  c #003399",
">  c #00359B",
",  c #073E9C",
"<  c #0A3A99",
"1  c #0B3B9A",
"2  c #09409D",
"3  c #1E4891",
"4  c #194D9A",
"5  c #0A5DB9",
"6  c #1550A2",
"7  c #1551A2",
"8  c #0D60B9",
"9  c #0F62BB",
"0  c #1164BD",
"q  c #1366BF",
"w  c #244384",
"e  c #20478D",
"r  c #325083",
"t  c #305A90",
"y  c #3A60AD",
"u  c #3E64B1",
"i  c #005FC5",
"p  c #0062C8",
"a  c #0366C9",
"s  c #0066CC",
"d  c #0C66C6",
"f  c #0C6DCE",
"g  c #1568C1",
"h  c #176AC3",
"j  c #196CC5",
"k  c #42679A",
"l  c #546582",
"z  c #5F708D",
"x  c #5277AA",
"c  c #537DB9",
"v  c #64718B",
"b  c #6A7B98",
"n  c #727E96",
"m  c #3B89D8",
"M  c #6287BA",
"N  c #7687A4",
"B  c #7C89A3",
"V  c #408CD9",
"C  c #5398DD",
"Z  c #7297CA",
"A  c #60A0DF",
"S  c #A70700",
"D  c #9A4653",
"F  c #BF5C59",
"G  c #D31D00",
"H  c #8B6F8B",
"J  c magenta",
"K  c gray52",
"L  c #959595",
"P  c gray59",
"I  c #8292AF",
"U  c #8895AE",
"Y  c #8D9DBA",
"T  c #94A1BB",
"R  c gray65",
"E  c #A3ACBE",
"W  c #B6B6B6",
"Q  c #B7B7B7",
"!  c #98A9C6",
"~  c #93BEE9",
"^  c #A0ADC6",
"/  c #A3B4D1",
"(  c #ACB9D3",
")  c #9FC5EC",
"_  c #B9C0CF",
"`  c #B1C0DC",
"'  c #BBC5D8",
"]  c #C6C6C6",
"[  c gray78",
"{  c gray84",
"}  c #D7D7D7",
"|  c #C7D1E4",
" . c #C9D3E6",
".. c #E6E6E6",
"X. c #E7E7E7",
"o. c #F6F6F6",
"O. c gray97",
"+. c gray100",
"@. c None",
/* pixels */
"@.@.@.@.@.@.@.@.@.@.@.@.@.@.@.@.@.@.@.@.@.@.",
"@.@.o O % = = = = = = = = = = = * # O . @.@.",
"@.o 7 5 D S S S S S S S S S S S S - 5 e   @.",
"@.O 5 s F G G G G G G G G G G G G H s 4 + @.",
"@.O 5 s ) +.+.+.+.+.+.+.+.+.+.+.+.A s 4 + @.",
"@.O 5 s ) +.+.+.+.+.+.+.+.+.+.+.+.A s 4 + @.",
"@.O 5 s ) +.G G G G G G G G G G +.A s 4 + @.",
"@.O 5 s ) +.+.+.+.+.+.+.+.+.+.+.+.A s 4 + @.",
"@.O 5 s ) +.+.+.+.+.+.+.+.+.+.+.+.A s 4 + @.",
"@.O 5 s ) +.G G G G G G G G G G +.A s 4 + @.",
"@.O 5 s ) +.+.+.+.+.+.+.+.+.+.+.+.A s 4 + @.",
"@.O 5 a ~ +.+.+.+.+.+.+.+.+.+.+.+.C s 4 + @.",
"@.O 5 s f V V m V V V V V V V V m s s 4 + @.",
"@.O 5 s a 9 9 9 0 0 h h j d i i p s s 4 + @.",
"@.O 5 s t ; K L R W ] } X.` : : > p s 4 + @.",
"@.O 5 s k n 1 1 E } X.o.o.( : : : i s 4 + @.",
"@.O 5 s x U : : ' o.o.X.} T : : : i s 4 + @.",
"@.O 5 s M ^ : :  .X.} ] W B : : : i s 4 + @.",
"@.O 5 s Z | u y _ ] W R L v : : : i s 4 + @.",
"@.X 3 7 c / ! Y I N b z l r , , 2 7 7 w & @.",
"@.@.$ @ @ @ @ @ @ @ @ @ @ @ @ @ @ @ @   @.@.",
"@.@.@.@.@.@.@.@.@.@.@.@.@.@.@.@.@.@.@.@.@.@."
};
