/* XPM */
static char * animation_xpm[] = {
"22 22 145 2",
"  	g None",
". 	g #797979",
"+ 	g #919191",
"@ 	g #A1A1A1",
"# 	g #A6A6A6",
"$ 	g #A4A4A4",
"% 	g #A3A3A3",
"& 	g #8E8E8E",
"* 	g #7A7A7A",
"= 	g #818181",
"- 	g #C1C1C1",
"; 	g #D2D2D2",
"> 	g #EAEAEA",
", 	g #DBDBDB",
"' 	g #8B8B8B",
") 	g #666666",
"! 	g #6E6E6E",
"~ 	g #959595",
"{ 	g #EBEBEB",
"] 	g #E6E6E6",
"^ 	g #D1D1D1",
"/ 	g #BDBDBD",
"( 	g #747474",
"_ 	g #E1E1E1",
": 	g #E2E2E2",
"< 	g #E4E4E4",
"[ 	g #909090",
"} 	g #8D8D8D",
"| 	g #BFBFBF",
"1 	g #E3E3E3",
"2 	g #DEDEDE",
"3 	g #9C9C9C",
"4 	g #616161",
"5 	g #AEAEAE",
"6 	g #D8D8D8",
"7 	g #D5D5D5",
"8 	g #D9D9D9",
"9 	g #ABABAB",
"0 	g #9D9D9D",
"a 	g #B2B2B2",
"b 	g #D6D6D6",
"c 	g #A7A7A7",
"d 	g #CBCBCB",
"e 	g #858585",
"f 	g #757575",
"g 	g #C9C9C9",
"h 	g #CCCCCC",
"i 	g #CECECE",
"j 	g #9E9E9E",
"k 	g #C0C0C0",
"l 	g #B5B5B5",
"m 	g #848484",
"n 	g #7E7E7E",
"o 	g #B4B4B4",
"p 	g #BCBCBC",
"q 	g #898989",
"r 	g #6B6B6B",
"s 	g #737373",
"t 	g #B9B9B9",
"u 	g #C3C3C3",
"v 	g #C4C4C4",
"w 	g #C5C5C5",
"x 	g #696969",
"y 	g #979797",
"z 	g #8F8F8F",
"A 	g #989898",
"B 	g #5F5F5F",
"C 	g #585858",
"D 	g #686868",
"E 	g #C2C2C2",
"F 	g #A2A2A2",
"G 	g #676767",
"H 	g #565656",
"I 	g #515151",
"J 	g #A5A5A5",
"K 	g #868686",
"L 	g #C6C6C6",
"M 	g #C8C8C8",
"N 	g #CDCDCD",
"O 	g #CACACA",
"P 	g #BBBBBB",
"Q 	g #929292",
"R 	g #CFCFCF",
"S 	g #DDDDDD",
"T 	g #DCDCDC",
"U 	g #DADADA",
"V 	g #D0D0D0",
"W 	g #888888",
"X 	g #ACACAC",
"Y 	g #414141",
"Z 	g #3F3F3F",
"` 	g #8A8A8A",
" .	g #5C5C5C",
"..	g #424242",
"+.	g #595959",
"@.	g #717171",
"#.	g #C7C7C7",
"$.	g #7C7C7C",
"%.	g #E8E8E8",
"&.	g #3D3D3D",
"*.	g #4D4D4D",
"=.	g #575757",
"-.	g #D3D3D3",
";.	g #464646",
">.	g #363636",
",.	g #434343",
"'.	g #DFDFDF",
").	g #555555",
"!.	g #484848",
"~.	g #626262",
"{.	g #EEEEEE",
"].	g #3B3B3B",
"^.	g #1D1D1D",
"/.	g #282828",
"(.	g #5E5E5E",
"_.	g #F2F2F2",
":.	g #2A2A2A",
"<.	g #1C1C1C",
"[.	g #181818",
"}.	g #ADADAD",
"|.	g #474747",
"1.	g #EFEFEF",
"2.	g #EDEDED",
"3.	g #F9F9F9",
"4.	g #F6F6F6",
"5.	g #F5F5F5",
"6.	g #F4F4F4",
"7.	g #E9E9E9",
"8.	g #F0F0F0",
"9.	g #000000",
"0.	g #5D5D5D",
"a.	g #E7E7E7",
"b.	g #0D0D0D",
"c.	g #656565",
"d.	g #B3B3B3",
"e.	g #7D7D7D",
"f.	g #5B5B5B",
"g.	g #4F4F4F",
"h.	g #646464",
"i.	g #0F0F0F",
"j.	g #525252",
"k.	g #535353",
"l.	g #4B4B4B",
"m.	g #3C3C3C",
"n.	g #0C0C0C",
"                                            ",
"                                            ",
"              . + @ # $ % & *               ",
"        = - ; > , ' ) ! ~ { ] ^ / (         ",
"      % _ : _ < # [ & & } | 1 _ : 2 3       ",
"  4 5 6 , 7 6 8 ^ 9 3 0 a b 8 8 b , 7 c     ",
"  $ d | 0 e f # g h 7 b i g c f ' j k l m   ",
"n o p 0 q ) r s t u v v w t s x ) + 3 y z ( ",
"A p | 9 B C D @ | v E - w | F G H I 3 J # K ",
"# v L M N O h g L d N N h L M N g L P P P Q ",
"$ N R R R ; S N T 7 R R R U ^ V 8 i i i d W ",
"q V S S T X B Y Z ` U S L  ...+.@.8 S T #.$.",
"G t U %.] m Y &.*.=.-.> * ;.>.,.( v %.'.c ).",
"!.~.R _ {./ ].^./.(.> _.P :.<.[.s > _ }.G |.",
"  ) 4 F 1.2.{ _.{ 3.4.5.3.3.6.7.8.< z x B   ",
"  9.x 0.(.E {.: < ] a.a.] < 1 {.}.H ) 0.    ",
"    b.=.c.H 4 m 0 5 o d.9 A e.f.f.) g.      ",
"        ^.=.G h.B 0. .0.(.4 ) G g.i.        ",
"            <.Y *.j.k.k.I l.m.n.            ",
"                                            ",
"                                            ",
"                                            "};
